SplineFontDB: 3.0
FontName: FrankRuehlCLM-BoldOblique
FullName: Frank Ruehl CLM Bold Oblique
FamilyName: Frank Ruehl CLM
Weight: Bold
Copyright: Copyright (c) 2002-2011 by Maxim Iorsh (iorsh@users.sourceforge.net).\nDistributed under the terms of GNU General Public License version 2(http://www.gnu.org/licenses/gpl.html). \nLatin glyphs, digits and punctuation: portions of Century Schoolbook L Bold Italic ver. 1.06 Copyright (URW)++,Copyright 1999 by (URW)++ Design & Development.\nAll rights reserved.
UComments: "2002-7-16: Created." 
Version: 0.121
ItalicAngle: -15
UnderlinePosition: -140
UnderlineWidth: 70
Ascent: 960
Descent: 240
LayerCount: 2
Layer: 0 0 "Back"  1
Layer: 1 0 "Fore"  0
NeedsXUIDChange: 1
FSType: 0
OS2Version: 0
OS2_WeightWidthSlopeOnly: 0
OS2_UseTypoMetrics: 0
CreationTime: 1163025782
ModificationTime: 1324323732
PfmFamily: 17
TTFWeight: 700
TTFWidth: 5
LineGap: 90
VLineGap: 0
Panose: 2 0 6 3 0 0 0 0 0 0
OS2TypoAscent: 0
OS2TypoAOffset: 1
OS2TypoDescent: 0
OS2TypoDOffset: 1
OS2TypoLinegap: 0
OS2WinAscent: 0
OS2WinAOffset: 1
OS2WinDescent: 0
OS2WinDOffset: 1
HheadAscent: 0
HheadAOffset: 1
HheadDescent: 0
HheadDOffset: 1
OS2Vendor: 'CLM '
Lookup: 4 8 0 "'hlig' Historic Ligatures in Hebrew lookup 0"  {"'hlig' Historic Ligatures in Hebrew lookup 0 subtable"  } ['hlig' ('hebr' <'dflt' > ) ]
Lookup: 6 1 0 "ccmpAltAyin"  {"ccmpAltAyin subtable"  } ['ccmp' ('hebr' <'dflt' > ) ]
Lookup: 1 1 0 "Single Substitution lookup 12"  {"Single Substitution lookup 12 subtable"  } []
Lookup: 6 1 0 "ccmpVavHolam"  {"ccmpVavHolam subtable"  } ['ccmp' ('hebr' <'dflt' > ) ]
Lookup: 1 1 0 "salt MiscSAlt"  {"MiscSAlt"  } ['salt' ('hebr' <'dflt' > ) ]
Lookup: 4 1 0 "ccmp AlephLamed2"  {"AlephLamed2"  } ['ccmp' ('hebr' <'JUD ' > ) ]
Lookup: 4 1 0 "dlig AlephLamed"  {"AlephLamed"  } ['dlig' ('hebr' <'dflt' > ) ]
Lookup: 4 1 0 "ccmp CustomPrecomp"  {"CustomPrecomp"  } ['ccmp' ('hebr' <'dflt' > ) ]
Lookup: 1 1 0 "jalt WideLetters"  {"WideLetters"  } ['jalt' ('hebr' <'dflt' > ) ]

StartChar: exclam
Encoding: 33 33 0
Width: 326
VWidth: 1000
Flags: HMW
HStem: -61.598 22.66
LayerCount: 2
Back
SplineSet
177 228 m 1
 124 228 l 1
 118 373 111 416 71 548 c 0
 62 578 57 611 57 637 c 0
 57 700 92 737 151 737 c 0
 209 737 244 700 244 637 c 0
 244 598 242 589 210 479 c 0
 191 414 181 337 177 228 c 1
150 172 m 0
 202 172 244 130 244 79 c 0
 244 27 202 -15 149 -15 c 0
 99 -15 57 28 57 79 c 0
 57 130 99 172 150 172 c 0
EndSplineSet
Fore
SplineSet
40.1875 129.055 m 6
 133.655 228.45 l 6
 149.404 245.198 154.39 245.68 161.359 228.45 c 6
 201.561 129.055 l 6
 207.191 115.136 204.698 105.14 191.349 90.9453 c 6
 97.8818 -8.4502 l 6
 82.0244 -25.3135 77.1475 -25.6797 70.1777 -8.4502 c 6
 29.9766 90.9453 l 6
 23.7109 106.436 26.0195 113.989 40.1875 129.055 c 6
206.179 323.862 m 2
 323.864 566.141 l 2
 335.607 590.315 344.677 615.658 349.189 632.5 c 0
 368.054 702.9 346.83 737 284.595 737 c 0
 222.355 737 181.047 701.8 162.772 633.601 c 0
 158.175 616.44 152.882 588.264 151.793 565.591 c 2
 140.175 323.873 l 2
 139.725 314.509 141.496 308.241 146.209 300.4 c 0
 158.989 279.134 163.732 278.767 187.788 300.4 c 0
 197.426 309.068 202.069 315.4 206.179 323.862 c 2
EndSplineSet
EndChar

StartChar: quotedbl
Encoding: 34 34 1
Width: 479
VWidth: 1000
Flags: HMW
LayerCount: 2
Fore
SplineSet
74.2852 378 m 5
 157.757 624.399 l 6
 160.581 632.1 164.471 638.7 168.361 645.3 c 4
 190.408 682.7 231.901 703.6 281.664 703.6 c 4
 333.143 703.6 350.645 683.8 327.948 645.3 c 4
 324.06 638.7 319.52 631 313.913 624.399 c 6
 106.888 378 l 5
 74.2852 378 l 5
301.645 378 m 5
 385.119 624.399 l 6
 387.943 632.1 391.835 638.7 395.724 645.3 c 4
 417.771 682.7 460.981 703.6 510.743 703.6 c 4
 560.508 703.6 579.076 682.7 557.677 646.399 c 4
 553.139 638.7 547.532 632.1 541.276 624.399 c 6
 334.251 378 l 5
 301.645 378 l 5
EndSplineSet
EndChar

StartChar: numbersign
Encoding: 35 35 2
Width: 574
VWidth: 1000
Flags: HMW
HStem: 0 20 220 83<41 135 237 311 413 507> 411 83<67 163 264 338 440 533>
LayerCount: 2
Fore
SplineSet
116.949 220 m 1
 22.9492 220 l 1
 45.1885 303 l 1
 151.188 303 l 1
 196.127 411 l 1
 100.127 411 l 1
 122.367 494 l 1
 229.367 494 l 1
 314.564 700 l 1
 404.564 700 l 1
 319.367 494 l 1
 405.367 494 l 1
 489.564 700 l 1
 579.564 700 l 1
 495.367 494 l 1
 588.367 494 l 1
 566.127 411 l 1
 461.127 411 l 1
 417.188 303 l 1
 511.188 303 l 1
 488.949 220 l 1
 382.949 220 l 1
 292 0 l 1
 202 0 l 1
 292.949 220 l 1
 206.949 220 l 1
 116 0 l 1
 26 0 l 1
 116.949 220 l 1
286.127 411 m 1
 241.188 303 l 1
 326.188 303 l 1
 371.127 411 l 1
 286.127 411 l 1
EndSplineSet
EndChar

StartChar: dollar
Encoding: 36 36 3
Width: 574
VWidth: 1000
Flags: HW
VStem: 25 125<74.9675 187.582> 45 120<433 582.94> 261 58<-137 -14 -14 -14 44 261 451 645 645 645 700 801> 398 140<514.931 626.167> 424 125<148.5 176.5>
LayerCount: 2
Fore
SplineSet
358.022 433 m 1x70
 381.879 425 l 2
 514.089 381 557.208 318 528.537 211 c 0
 495.044 86 390.34 5 238.784 -12 c 1
 205.291 -137 l 1
 147.291 -137 l 1
 180.249 -14 l 1
 157.784 -12 144.053 -11 127.124 -7 c 0
 17.2871 16 -32.4395 73 -11.0039 153 c 0
 3.7334 208 50.1836 247 100.184 247 c 0
 146.184 247 172.877 216 161.623 174 c 0
 154.389 147 132.35 117 106.795 100 c 0
 100.455 95 97.9189 93 96.8477 89 c 0xa8
 90.9521 67 137.058 45 194.986 41 c 1
 258.758 279 l 1
 227.705 290 l 2
 111.155 329 71.4287 386 96.6152 480 c 0
 119.392 565 184.951 638 271.865 675 c 0
 301.349 688 321.688 693 371.297 699 c 1
 398.627 801 l 1
 456.627 801 l 1
 429.564 700 l 1
 561.153 691 631.416 636 610.248 557 c 0
 596.314 505 550.132 467 499.132 467 c 0
 456.132 467 431.438 498 442.156 538 c 0
 446.979 556 457.803 574 473.626 592 c 0
 480.502 599 482.306 602 483.646 607 c 0
 489.004 627 464.756 641 415.095 646 c 1
 358.022 433 l 1x70
304.845 451 m 1
 356.827 645 l 1
 289.88 634 249.573 603 235.104 549 c 0x60
 222.511 502 241.472 472 292.917 455 c 2
 304.845 451 l 1
311.935 261 m 1
 253.79 44 l 1
 274.325 46 286.13 49 299.47 54 c 0
 341.488 69 375.671 107 386.925 149 c 0x28
 401.662 204 380.771 238 321.131 258 c 2
 311.935 261 l 1
EndSplineSet
EndChar

StartChar: percent
Encoding: 37 37 4
Width: 833
VWidth: 1000
Flags: HW
HStem: 0 21G<186 283.468> 14 76.4004<593.588 689.096> 315 76.6<145.653 241.207> 325.6 81.4<670.222 751.133> 573 68<370 514.276> 688 20G<230.5 272.5> 702 20G<583 686>
VStem: 17 124.9<394.364 515.949> 309.1 60.9<471.007 572.878> 466 124.2<94.289 213.972> 759.8 61.2<172.835 318.899>
LayerCount: 2
Back
SplineSet
651 722 m 1
 237 0 l 1
 186 0 l 1
 535 612 l 1
 493 598 469 594 433 594 c 0
 408 594 393 596 367 603 c 1
 369 589 370 581 370 573 c 0
 370 515 342 443 299 392 c 0
 255 339 207 315 150 315 c 0
 73 315 17 369 17 443 c 0
 17 512 63 603 123 655 c 0
 163 689 209 708 252 708 c 0
 293 708 320 694 346 660 c 1
 373 647 401 641 438 641 c 0
 512 641 561 664 605 722 c 1
 651 722 l 1
266 658 m 1
 229 645 217 633 181 569 c 0
 137 492 121 451 121 416 c 0
 121 384 142 362 172 362 c 0
 248 362 330 476 330 581 c 0
 330 595 328 606 324 620 c 1
 298 629 283 639 266 658 c 1
699 407 m 0
 770 407 821 355 821 283 c 0
 821 223 791 147 745 89 c 0
 707 42 654 14 601 14 c 0
 523 14 466 67 466 140 c 0
 466 197 493 266 535 319 c 0
 582 376 639 407 699 407 c 0
724 355 m 0
 696 355 671 334 641 285 c 0
 590 202 569 151 569 114 c 0
 569 84 592 61 620 61 c 0
 697 61 781 175 781 279 c 0
 781 321 756 355 724 355 c 0
EndSplineSet
Fore
SplineSet
802.459 722 m 5x0be0
 195 0 l 5
 109 0 l 5
 594.323 579 l 5
 550.659 566 480.392 565 446.535 573 c 5
 430.994 515 383.701 443 327.036 392 c 4
 268.835 339 214.404 315 157.404 315 c 4
 80.4043 315 38.873 369 58.7012 443 c 4
 77.1904 512 147.573 603 221.507 655 c 4
 270.617 689 321.708 708 364.708 708 c 4xade0
 405.708 708 428.957 694 445.847 660 c 5
 469.363 647 495.756 641 532.756 641 c 4
 606.756 641 661.918 664 721.459 722 c 5
 802.459 722 l 5x0be0
349.279 628.4 m 5
 316.893 618 304.721 608.4 262.201 557.2 c 4
 210.496 495.6 188.907 462.8 181.404 434.8 c 4
 174.545 409.2 186.629 391.6 210.629 391.6 c 4
 271.429 391.6 361.466 482.8 383.974 566.8 c 4
 386.975 578 387.732 586.8 387.533 598 c 5
 368.663 605.2 358.807 613.2 349.279 628.4 c 5
731.056 407 m 4x59e0
 802.056 407 839.122 355 819.83 283 c 4
 803.753 223 753.389 147 691.848 89 c 4
 641.254 42 580.751 14 527.751 14 c 4
 449.751 14 406.952 67 426.513 140 c 4
 441.786 197 487.274 266 543.476 319 c 4
 605.749 376 671.056 407 731.056 407 c 4x59e0
724.444 325.6 m 4
 702.044 325.6 677.543 308.8 643.039 269.6 c 4
 584.447 203.2 556.715 162.4 548.783 132.8 c 4
 542.353 108.8 555.822 90.4004 578.223 90.4004 c 4
 639.822 90.4004 731.46 181.6 753.753 264.8 c 4
 762.756 298.4 750.044 325.6 724.444 325.6 c 4
EndSplineSet
EndChar

StartChar: ampersand
Encoding: 38 38 5
Width: 852
VWidth: 1000
Flags: HW
HStem: -16 83<243.625 407.011> -15 108<607.361 734.661> 685 52<392 434.5>
VStem: 39 170<164.967 274.752> 202 140<518.522 642.572> 490 110<572.5 616.5>
LayerCount: 2
Fore
SplineSet
829.323 408 m 1xac
 814.854 354 l 1
 743.318 352 716.031 336 656.667 260 c 1
 616.537 211 604.786 197 566.604 159 c 1
 588.546 114 614.919 93 650.919 93 c 0
 684.919 93 715.689 122 742.427 177 c 1
 789.479 166 l 1
 775.565 129 759.599 103 734.828 74 c 0
 679.947 11 626.98 -15 556.98 -15 c 0x6c
 494.98 -15 448.876 7 416.665 51 c 1
 341.607 6 267.713 -16 187.713 -16 c 0
 112.713 -16 56.6074 6 28.5938 47 c 0
 3.50781 84 -3.16699 130 9.96289 179 c 0xb4
 30.0596 254 89.4756 319 178.802 365 c 0
 207.82 380 230.5 390 273.056 407 c 1
 260.132 467 259.778 503 272.64 551 c 0
 285.77 600 322.435 651 367.277 684 c 0
 415.655 719 473.479 737 538.479 737 c 0
 647.479 737 704.938 679 682.162 594 c 0
 670.64 551 638.654 510 594.884 481 c 0
 556.185 456 527.434 442 459.734 417 c 1
 487.423 330 526.164 232 543.197 206 c 1
 588.184 247 610.222 277 617.725 305 c 0
 626.835 339 604.586 353 541.854 354 c 1
 556.323 408 l 1
 829.323 408 l 1xac
283.658 357 m 1
 240.495 334 212.652 301 201.131 258 c 0
 193.896 231 193.857 201 200.819 171 c 0
 216.331 102 254.952 67 314.952 67 c 0xb4
 339.952 67 358.292 72 386.848 89 c 1
 336.963 179 302.811 268 283.658 357 c 1
444.328 464 m 1
 454.4 468 456.668 469 462.204 471 c 0
 518.902 496 557.156 538 570.822 589 c 0
 585.56 644 563.545 685 518.545 685 c 0
 478.545 685 439.703 652 428.449 610 c 0x2c
 418.267 572 422.817 533 444.328 464 c 1
EndSplineSet
EndChar

StartChar: quotesingle
Encoding: 39 39 6
Width: 252
VWidth: 1000
Flags: HMW
LayerCount: 2
Fore
SplineSet
74.2852 378 m 1
 157.758 624.399 l 2
 160.582 632.1 164.471 638.7 168.361 645.3 c 0
 190.408 682.7 231.901 703.6 281.665 703.6 c 4
 333.145 703.6 350.645 683.8 327.948 645.3 c 0
 324.06 638.7 319.519 631 313.913 624.399 c 2
 106.888 378 l 1
 74.2852 378 l 1
EndSplineSet
EndChar

StartChar: parenleft
Encoding: 40 40 7
Width: 389
VWidth: 1000
Flags: HMW
HStem: 717 20<338 338>
VStem: 72 125<257 358>
LayerCount: 2
Fore
SplineSet
242.779 -68 m 1
 229.382 -118 l 1
 166.564 -80 131.479 -43 100.555 17 c 0
 57.0625 101 49.6621 204 78.0645 310 c 0
 108.61 424 178.817 533 277.396 621 c 0
 336.33 673 382.101 702 458.479 737 c 1
 445.081 687 l 1
 380.899 649 347.593 618 308.516 558 c 0
 265.099 493 229.056 407 202.796 309 c 0
 173.857 201 165.938 108 177.986 41 c 0
 188.124 -7 202.89 -34 242.779 -68 c 1
EndSplineSet
EndChar

StartChar: parenright
Encoding: 41 41 8
Width: 389
VWidth: 1000
Flags: HMW
HStem: 717 20<50 50>
VStem: 191 125<261 362>
LayerCount: 2
Fore
SplineSet
157.081 687 m 1
 170.479 737 l 1
 233.297 699 268.383 662 299.306 602 c 0
 342.798 518 350.199 415 321.796 309 c 0
 291.25 195 221.044 86 122.464 -2 c 0
 63.5303 -54 17.7598 -83 -58.6182 -118 c 1
 -45.2207 -68 l 1
 18.9619 -30 52.2676 1 91.3447 61 c 0
 134.762 126 170.806 212 197.064 310 c 0
 226.003 418 233.922 511 221.875 578 c 0
 211.736 626 196.971 653 157.081 687 c 1
EndSplineSet
EndChar

StartChar: asterisk
Encoding: 42 42 9
Width: 500
VWidth: 1000
Flags: HMW
HStem: 717 20<238 264.5>
VStem: 239 25<476 495 539 558>
LayerCount: 2
Fore
SplineSet
294.635 495 m 1
 275.955 485 l 2
 242.4 468 231.988 459 194.271 419 c 0
 173.107 396 150.893 384 128.893 384 c 0
 102.893 384 87.5195 405 94.2178 430 c 0
 99.8447 451 117.937 470 140.348 479 c 0
 154.688 484 157.955 485 197.491 487 c 0
 223.027 489 244.635 495 268.851 507 c 2
 287.529 517 l 1
 273.941 526 l 2
 247.496 543 240.032 545 189.836 548 c 0
 151.64 551 132.535 573 140.842 604 c 0
 147.54 629 174.167 650 201.167 650 c 0
 214.167 650 228.56 644 236.88 634 c 0
 242.736 626 242.736 626 254.697 596 c 0
 264.07 575 273.588 562 293.104 549 c 2
 306.425 539 l 1
 311.516 558 l 2
 320.09 590 319.966 597 309.363 647 c 0
 305.847 660 306.33 673 309.277 684 c 0
 317.048 713 345.479 737 371.479 737 c 0
 398.479 737 414.048 713 406.01 683 c 0
 402.258 669 400.187 665 370.469 625 c 0
 352.306 602 343.215 583 336.516 558 c 2
 331.425 539 l 1
 350.104 549 l 2
 384.927 567 392.535 573 431.789 615 c 0
 454.22 639 475.167 650 497.167 650 c 0
 523.167 650 538.808 630 531.842 604 c 0
 526.215 583 508.392 565 485.712 555 c 0
 472.372 550 469.372 550 428.3 546 c 0
 402.032 545 383.425 539 356.941 526 c 2
 338.529 517 l 1
 352.118 508 l 2
 378.563 491 387.027 489 435.224 486 c 0
 473.42 483 493.257 460 484.95 429 c 0
 478.252 404 453.16 385 428.16 385 c 0
 401.16 385 392.572 394 371.63 439 c 0
 362.988 459 350.74 473 332.955 485 c 2
 319.635 495 l 1
 314.544 476 l 2
 305.97 444 305.826 436 315.696 387 c 0
 319.213 374 318.729 361 316.05 351 c 0
 308.012 321 280.581 297 253.581 297 c 0
 227.581 297 212.012 321 219.782 350 c 0
 223.802 365 227.142 370 255.591 409 c 0
 273.754 432 282.577 450 289.544 476 c 2
 294.635 495 l 1
EndSplineSet
EndChar

StartChar: plus
Encoding: 43 43 10
Width: 606
VWidth: 1000
Flags: HMW
HStem: 0 20 195 115<51 246 361 555>
VStem: 246 115<0 195 310 505>
LayerCount: 2
Fore
SplineSet
221.25 195 m 1
 26.25 195 l 1
 57.0645 310 l 1
 252.064 310 l 1
 304.314 505 l 1
 419.314 505 l 1
 367.064 310 l 1
 561.064 310 l 1
 530.25 195 l 1
 336.25 195 l 1
 284 0 l 1
 169 0 l 1
 221.25 195 l 1
EndSplineSet
Substitution2: "MiscSAlt" uniFB29
EndChar

StartChar: comma
Encoding: 44 44 11
Width: 329
VWidth: 1000
Flags: HW
VStem: 99.0059 40.5<-152.225 -142.5>
LayerCount: 2
Back
SplineSet
67 -186 m 1
 40 -145 l 1
 102 -102 139 -54 139 -16 c 0
 139 -12 138 -10 135 -10 c 2
 131 -10 l 2
 129 -11 127 -11 123 -11 c 0
 75 -11 39 26 39 75 c 0
 39 130 81 173 135 173 c 0
 195 173 236 124 236 52 c 0
 236 -37 178 -119 67 -186 c 1
EndSplineSet
Fore
SplineSet
36.5977 91.5 m 2
 28.3242 106.506 30.6738 113.873 46.5117 128.5 c 2
 150.999 225 l 2
 168.604 241.261 174.442 241.728 183.591 225 c 2
 232.834 128.002 l 2
 239.857 114.168 238.565 106.519 226.364 92.3359 c 2
 24.3232 -142.5 l 2
 -0.390625 -171.225 -28.5498 -158.61 -11.7559 -126 c 2
 59.5732 12.5 l 2
 66.3379 25.9082 67.9785 34.6006 62.7959 44 c 2
 36.5977 91.5 l 2
EndSplineSet
EndChar

StartChar: hyphen
Encoding: 45 45 12
Width: 422
VWidth: 1000
Flags: HW
HStem: 224 149<60.994 355.444>
VStem: 35.457 345.576
LayerCount: 2
Back
SplineSet
42 310 m 5
 291 310 l 5
 291 180 l 5
 42 180 l 5
 42 310 l 5
42 310 m 1
 291 310 l 1
 291 180 l 1
 42 180 l 1
 42 310 l 1
EndSplineSet
Fore
SplineSet
398.619 353 m 6
 339.837 239 l 6
 334.454 228.95 331.395 224 316.804 224 c 6
 33.4062 224 l 2
 12.6729 224 15.9043 228.789 23.8369 244 c 2
 82.5615 358 l 2
 87.8574 368.156 90.8662 373 105.383 373 c 2
 389.331 373 l 6
 410.273 373 406.705 368.1 398.619 353 c 6
EndSplineSet
PairPos2: "'kern' Horizontal Kerning in Hebrew lookup 1 subtable" uniE804 dx=20 dy=0 dh=20 dv=0 dx=0 dy=0 dh=0 dv=0
PairPos2: "'kern' Horizontal Kerning in Hebrew lookup 1 subtable" uniE803 dx=5 dy=0 dh=5 dv=0 dx=0 dy=0 dh=0 dv=0
PairPos2: "'kern' Horizontal Kerning in Hebrew lookup 1 subtable" uniE802 dx=5 dy=0 dh=5 dv=0 dx=0 dy=0 dh=0 dv=0
PairPos2: "'kern' Horizontal Kerning in Hebrew lookup 1 subtable" uniE801 dx=40 dy=0 dh=40 dv=0 dx=0 dy=0 dh=0 dv=0
PairPos2: "'kern' Horizontal Kerning in Hebrew lookup 1 subtable" uniFB1D dx=20 dy=0 dh=20 dv=0 dx=0 dy=0 dh=0 dv=0
PairPos2: "'kern' Horizontal Kerning in Hebrew lookup 1 subtable" uniFB42 dx=-5 dy=0 dh=-5 dv=0 dx=0 dy=0 dh=0 dv=0
PairPos2: "'kern' Horizontal Kerning in Hebrew lookup 1 subtable" uniFB3D dx=25 dy=0 dh=25 dv=0 dx=0 dy=0 dh=0 dv=0
PairPos2: "'kern' Horizontal Kerning in Hebrew lookup 1 subtable" uniFB37 dx=20 dy=0 dh=20 dv=0 dx=0 dy=0 dh=0 dv=0
PairPos2: "'kern' Horizontal Kerning in Hebrew lookup 1 subtable" afii57718 dx=20 dy=0 dh=20 dv=0 dx=0 dy=0 dh=0 dv=0
PairPos2: "'kern' Horizontal Kerning in Hebrew lookup 1 subtable" afii57705 dx=20 dy=0 dh=20 dv=0 dx=0 dy=0 dh=0 dv=0
PairPos2: "'kern' Horizontal Kerning in Hebrew lookup 1 subtable" afii57717 dx=20 dy=0 dh=20 dv=0 dx=0 dy=0 dh=0 dv=0
PairPos2: "'kern' Horizontal Kerning in Hebrew lookup 1 subtable" afii57716 dx=40 dy=0 dh=40 dv=0 dx=0 dy=0 dh=0 dv=0
PairPos2: "'kern' Horizontal Kerning in Hebrew lookup 1 subtable" uniFB4A dx=45 dy=0 dh=45 dv=0 dx=0 dy=0 dh=0 dv=0
PairPos2: "'kern' Horizontal Kerning in Hebrew lookup 1 subtable" uniFB28 dx=45 dy=0 dh=45 dv=0 dx=0 dy=0 dh=0 dv=0
PairPos2: "'kern' Horizontal Kerning in Hebrew lookup 1 subtable" afii57690 dx=45 dy=0 dh=45 dv=0 dx=0 dy=0 dh=0 dv=0
PairPos2: "'kern' Horizontal Kerning in Hebrew lookup 1 subtable" uniFB48 dx=45 dy=0 dh=45 dv=0 dx=0 dy=0 dh=0 dv=0
PairPos2: "'kern' Horizontal Kerning in Hebrew lookup 1 subtable" afii57688 dx=45 dy=0 dh=45 dv=0 dx=0 dy=0 dh=0 dv=0
PairPos2: "'kern' Horizontal Kerning in Hebrew lookup 1 subtable" uniFB47 dx=40 dy=0 dh=40 dv=0 dx=0 dy=0 dh=0 dv=0
PairPos2: "'kern' Horizontal Kerning in Hebrew lookup 1 subtable" afii57687 dx=40 dy=0 dh=40 dv=0 dx=0 dy=0 dh=0 dv=0
PairPos2: "'kern' Horizontal Kerning in Hebrew lookup 1 subtable" uniFB46 dx=10 dy=0 dh=10 dv=0 dx=0 dy=0 dh=0 dv=0
PairPos2: "'kern' Horizontal Kerning in Hebrew lookup 1 subtable" afii57686 dx=10 dy=0 dh=10 dv=0 dx=0 dy=0 dh=0 dv=0
PairPos2: "'kern' Horizontal Kerning in Hebrew lookup 1 subtable" uniFB4E dx=45 dy=0 dh=45 dv=0 dx=0 dy=0 dh=0 dv=0
PairPos2: "'kern' Horizontal Kerning in Hebrew lookup 1 subtable" uniFB44 dx=45 dy=0 dh=45 dv=0 dx=0 dy=0 dh=0 dv=0
PairPos2: "'kern' Horizontal Kerning in Hebrew lookup 1 subtable" afii57684 dx=45 dy=0 dh=45 dv=0 dx=0 dy=0 dh=0 dv=0
PairPos2: "'kern' Horizontal Kerning in Hebrew lookup 1 subtable" uniFB43 dx=25 dy=0 dh=25 dv=0 dx=0 dy=0 dh=0 dv=0
PairPos2: "'kern' Horizontal Kerning in Hebrew lookup 1 subtable" afii57683 dx=25 dy=0 dh=25 dv=0 dx=0 dy=0 dh=0 dv=0
PairPos2: "'kern' Horizontal Kerning in Hebrew lookup 1 subtable" afii57682 dx=-5 dy=0 dh=-5 dv=0 dx=0 dy=0 dh=0 dv=0
PairPos2: "'kern' Horizontal Kerning in Hebrew lookup 1 subtable" uniFB41 dx=60 dy=0 dh=60 dv=0 dx=0 dy=0 dh=0 dv=0
PairPos2: "'kern' Horizontal Kerning in Hebrew lookup 1 subtable" afii57681 dx=60 dy=0 dh=60 dv=0 dx=0 dy=0 dh=0 dv=0
PairPos2: "'kern' Horizontal Kerning in Hebrew lookup 1 subtable" uniFB3E dx=45 dy=0 dh=45 dv=0 dx=0 dy=0 dh=0 dv=0
PairPos2: "'kern' Horizontal Kerning in Hebrew lookup 1 subtable" afii57678 dx=45 dy=0 dh=45 dv=0 dx=0 dy=0 dh=0 dv=0
PairPos2: "'kern' Horizontal Kerning in Hebrew lookup 1 subtable" uniFB26 dx=25 dy=0 dh=25 dv=0 dx=0 dy=0 dh=0 dv=0
PairPos2: "'kern' Horizontal Kerning in Hebrew lookup 1 subtable" afii57677 dx=25 dy=0 dh=25 dv=0 dx=0 dy=0 dh=0 dv=0
PairPos2: "'kern' Horizontal Kerning in Hebrew lookup 1 subtable" uniFB3C dx=35 dy=0 dh=35 dv=0 dx=0 dy=0 dh=0 dv=0
PairPos2: "'kern' Horizontal Kerning in Hebrew lookup 1 subtable" uniFB25 dx=35 dy=0 dh=35 dv=0 dx=0 dy=0 dh=0 dv=0
PairPos2: "'kern' Horizontal Kerning in Hebrew lookup 1 subtable" afii57676 dx=35 dy=0 dh=35 dv=0 dx=0 dy=0 dh=0 dv=0
PairPos2: "'kern' Horizontal Kerning in Hebrew lookup 1 subtable" uniFB4D dx=50 dy=0 dh=50 dv=0 dx=0 dy=0 dh=0 dv=0
PairPos2: "'kern' Horizontal Kerning in Hebrew lookup 1 subtable" uniFB3B dx=50 dy=0 dh=50 dv=0 dx=0 dy=0 dh=0 dv=0
PairPos2: "'kern' Horizontal Kerning in Hebrew lookup 1 subtable" uniFB24 dx=50 dy=0 dh=50 dv=0 dx=0 dy=0 dh=0 dv=0
PairPos2: "'kern' Horizontal Kerning in Hebrew lookup 1 subtable" afii57675 dx=50 dy=0 dh=50 dv=0 dx=0 dy=0 dh=0 dv=0
PairPos2: "'kern' Horizontal Kerning in Hebrew lookup 1 subtable" uniFB3A dx=5 dy=0 dh=5 dv=0 dx=0 dy=0 dh=0 dv=0
PairPos2: "'kern' Horizontal Kerning in Hebrew lookup 1 subtable" afii57674 dx=5 dy=0 dh=5 dv=0 dx=0 dy=0 dh=0 dv=0
PairPos2: "'kern' Horizontal Kerning in Hebrew lookup 1 subtable" uniFB39 dx=20 dy=0 dh=20 dv=0 dx=0 dy=0 dh=0 dv=0
PairPos2: "'kern' Horizontal Kerning in Hebrew lookup 1 subtable" afii57673 dx=20 dy=0 dh=20 dv=0 dx=0 dy=0 dh=0 dv=0
PairPos2: "'kern' Horizontal Kerning in Hebrew lookup 1 subtable" uniFB38 dx=60 dy=0 dh=60 dv=0 dx=0 dy=0 dh=0 dv=0
PairPos2: "'kern' Horizontal Kerning in Hebrew lookup 1 subtable" afii57672 dx=60 dy=0 dh=60 dv=0 dx=0 dy=0 dh=0 dv=0
PairPos2: "'kern' Horizontal Kerning in Hebrew lookup 1 subtable" afii57671 dx=20 dy=0 dh=20 dv=0 dx=0 dy=0 dh=0 dv=0
PairPos2: "'kern' Horizontal Kerning in Hebrew lookup 1 subtable" afii57723 dx=40 dy=0 dh=40 dv=0 dx=0 dy=0 dh=0 dv=0
PairPos2: "'kern' Horizontal Kerning in Hebrew lookup 1 subtable" afii57700 dx=40 dy=0 dh=40 dv=0 dx=0 dy=0 dh=0 dv=0
PairPos2: "'kern' Horizontal Kerning in Hebrew lookup 1 subtable" afii57669 dx=40 dy=0 dh=40 dv=0 dx=0 dy=0 dh=0 dv=0
PairPos2: "'kern' Horizontal Kerning in Hebrew lookup 1 subtable" uniFB34 dx=5 dy=0 dh=5 dv=0 dx=0 dy=0 dh=0 dv=0
PairPos2: "'kern' Horizontal Kerning in Hebrew lookup 1 subtable" uniFB23 dx=5 dy=0 dh=5 dv=0 dx=0 dy=0 dh=0 dv=0
PairPos2: "'kern' Horizontal Kerning in Hebrew lookup 1 subtable" afii57668 dx=5 dy=0 dh=5 dv=0 dx=0 dy=0 dh=0 dv=0
PairPos2: "'kern' Horizontal Kerning in Hebrew lookup 1 subtable" uniFB33 dx=15 dy=0 dh=15 dv=0 dx=0 dy=0 dh=0 dv=0
PairPos2: "'kern' Horizontal Kerning in Hebrew lookup 1 subtable" uniFB22 dx=15 dy=0 dh=15 dv=0 dx=0 dy=0 dh=0 dv=0
PairPos2: "'kern' Horizontal Kerning in Hebrew lookup 1 subtable" afii57667 dx=15 dy=0 dh=15 dv=0 dx=0 dy=0 dh=0 dv=0
PairPos2: "'kern' Horizontal Kerning in Hebrew lookup 1 subtable" uniFB32 dx=20 dy=0 dh=20 dv=0 dx=0 dy=0 dh=0 dv=0
PairPos2: "'kern' Horizontal Kerning in Hebrew lookup 1 subtable" afii57666 dx=20 dy=0 dh=20 dv=0 dx=0 dy=0 dh=0 dv=0
PairPos2: "'kern' Horizontal Kerning in Hebrew lookup 1 subtable" uniFB4C dx=20 dy=0 dh=20 dv=0 dx=0 dy=0 dh=0 dv=0
PairPos2: "'kern' Horizontal Kerning in Hebrew lookup 1 subtable" uniFB31 dx=20 dy=0 dh=20 dv=0 dx=0 dy=0 dh=0 dv=0
PairPos2: "'kern' Horizontal Kerning in Hebrew lookup 1 subtable" afii57665 dx=20 dy=0 dh=20 dv=0 dx=0 dy=0 dh=0 dv=0
EndChar

StartChar: period
Encoding: 46 46 13
Width: 332
VWidth: 1000
Flags: HMW
HStem: -15 20
LayerCount: 2
Back
SplineSet
139 173 m 0
 191 173 233 131 233 79 c 0
 233 27 191 -15 138 -15 c 0
 87 -15 45 28 45 79 c 0
 45 131 87 173 139 173 c 0
EndSplineSet
Fore
SplineSet
46.4961 128.5 m 2
 150.982 225 l 2
 168.589 241.261 174.427 241.728 183.574 225 c 2
 236.348 128.5 l 2
 243.739 114.986 241.355 105.281 226.434 91.5 c 2
 121.946 -5 l 2
 104.22 -21.3721 98.502 -21.7275 89.3545 -5 c 2
 36.582 91.5 l 2
 28.3574 106.539 30.6582 113.873 46.4961 128.5 c 2
EndSplineSet
EndChar

StartChar: slash
Encoding: 47 47 14
Width: 278
VWidth: 1000
Flags: HMW
HStem: -15 20 717 20<228 302 302 302>
LayerCount: 2
Fore
SplineSet
348.479 737 m 1
 422.479 737 l 1
 -30.0195 -15 l 1
 -104.02 -15 l 1
 348.479 737 l 1
EndSplineSet
EndChar

StartChar: zero
Encoding: 48 48 15
Width: 574
VWidth: 1000
Flags: HMW
HStem: -14 52<270.5 303> 656 52<268.5 301>
VStem: 27 172<288 398> 372 174<294 401>
LayerCount: 2
Fore
SplineSet
399.708 708 m 4
 466.708 708 517.67 678 549.396 621 c 0
 588.568 547 592.257 460 560.639 342 c 0
 506.245 139 353.249 -14 206.249 -14 c 0
 56.249 -14 -12.7549 139 42.9785 347 c 0
 98.7119 555 249.708 708 399.708 708 c 4
384.774 656 m 0
 349.774 656 320.147 635 298.43 595 c 0
 280.319 561 242.31 449 214.979 347 c 0
 183.36 229 163.422 121 166.579 88 c 0
 170.005 56 188.182 38 219.182 38 c 0
 253.182 38 282.809 59 304.527 99 c 0
 322.638 133 360.111 243 387.442 345 c 0
 419.597 465 440.535 573 436.377 606 c 0
 433.951 638 414.774 656 384.774 656 c 0
EndSplineSet
EndChar

StartChar: one
Encoding: 49 49 16
Width: 574
VWidth: 1000
Flags: HMW
HStem: 0 54<92 124 124 150.5 459 491> 688 20<336 371 371 371>
VStem: 214 157<144 499 499 540.5>
LayerCount: 2
Fore
SplineSet
483.708 708 m 5
 332.585 144 l 2
 315.704 81 314.632 77 319.488 69 c 0
 324.541 58 345.47 54 396.47 54 c 2
 428.47 54 l 1
 414 0 l 1
 15 0 l 1
 29.4697 54 l 1
 61.4697 54 l 2
 114.47 54 136.541 58 148.488 69 c 0
 157.632 77 158.972 82 175.585 144 c 2
 270.707 499 l 2
 292.946 582 292.946 582 204.215 583 c 2
 162.215 583 l 1
 177.22 639 l 1
 295.756 641 374.114 661 448.708 708 c 1
 483.708 708 l 5
EndSplineSet
EndChar

StartChar: two
Encoding: 50 50 17
Width: 574
VWidth: 1000
Flags: HW
HStem: -4 20 0 150<175 368> 651 57<223 283>
VStem: 358 170<496.5 571>
LayerCount: 2
Fore
SplineSet
471.274 266 m 1x70
 525.274 266 l 1
 429.928 -4 l 1xb0
 400.732 -1 387 0 370 0 c 2
 -6 0 l 2x70
 -20 0 -32.2676 -1 -59.0723 -4 c 1xb0
 -46.4785 43 l 1
 22.8145 115 74.1396 161 217.758 279 c 0
 354.036 392 401.845 451 424.085 534 c 0
 443.913 608 415.435 651 345.435 651 c 0
 295.435 651 232.324 617 223.75 585 c 0
 221.606 577 224.999 571 234.659 566 c 0
 274.765 544 287.065 519 275.544 476 c 0
 261.61 424 219.769 391 167.769 391 c 0
 107.769 391 80.8262 436 99.582 506 c 0
 130.129 620 258.708 708 394.708 708 c 4
 535.708 708 619.004 627 590.334 520 c 0
 577.74 473 543.539 420 497.48 375 c 0
 458.566 338 421.404 315 258.289 225 c 0
 212.322 199 181.23 180 138.192 150 c 1
 331.192 150 l 2
 394.46 151 396.46 151 408.336 158 c 0
 417.676 163 427.159 176 446.877 216 c 2
 471.274 266 l 1x70
EndSplineSet
EndChar

StartChar: three
Encoding: 51 51 18
Width: 574
VWidth: 1000
Flags: HW
HStem: -14 52<164.944 310.652> 332 71<162.584 262.804> 338 54<197.558 320.993> 656 52<179.78 315.735>
VStem: 24 130<74.3064 190.25> 49 125<517 620.262> 350 162<445.392 619.087> 356 174<92.7696 290.319>
LayerCount: 2
Fore
SplineSet
372.605 368 m 1xb6
 423.729 361 445.854 354 469.566 338 c 0
 508.332 311 521.595 256 504.714 193 c 0
 487.565 129 441.221 68 386.646 36 c 0
 332.072 4 258.249 -14 185.249 -14 c 0
 41.249 -14 -38.2627 55 -11.2002 156 c 0
 3.80566 212 51.2549 251 104.255 251 c 0
 154.255 251 181.609 215 169.016 168 c 0
 161.513 140 151.029 127 113.259 98 c 0
 104.651 92 100.044 86 98.4355 80 c 0
 92.8086 59 131.182 38 173.182 38 c 0
 247.182 38 304.723 96 331.518 196 c 0
 356.705 290 338.566 338 276.566 338 c 0xb9
 272.566 338 256.031 336 225.228 333 c 0
 218.959 332 212.959 332 208.959 332 c 0
 187.959 332 177.246 348 183.142 370 c 0
 188.769 391 204.983 403 227.983 403 c 0xd9
 239.983 403 245.716 402 267.376 397 c 0
 282.572 394 293.036 392 301.036 392 c 0
 348.036 392 392.505 446 415.549 532 c 0
 436.449 610 411.774 656 348.774 656 c 0
 310.774 656 267.684 637 262.593 618 c 0
 261.521 614 262.717 611 266.377 606 c 0
 288.143 579 293.516 558 286.281 531 c 0
 273.688 484 232.113 452 184.113 452 c 0
 132.113 452 103.563 491 117.496 543 c 0
 127.679 581 159.933 623 199.703 652 c 0
 251.617 689 316.708 708 388.708 708 c 4
 530.708 708 605.684 637 577.281 531 c 0
 556.648 454 495.18 400 400.48 375 c 0
 392.945 373 385.409 371 372.605 368 c 1xb6
EndSplineSet
EndChar

StartChar: four
Encoding: 52 52 19
Width: 574
VWidth: 1000
Flags: HMW
HStem: 0 54<195 206 206 228.5 525 536> 181 67<92 289 446 546> 688 20<383 452 452 452>
VStem: 289 157<144 181 248 498 498 498>
LayerCount: 2
Fore
SplineSet
435.451 248 m 1
 535.451 248 l 1
 517.499 181 l 1
 417.499 181 l 1
 407.585 144 l 2
 390.704 81 389.632 77 394.221 68 c 0
 399.809 59 421.47 54 462.469 54 c 2
 473.469 54 l 1
 459 0 l 1
 118 0 l 1
 132.47 54 l 1
 143.47 54 l 2
 188.47 54 212.541 58 223.221 68 c 0
 232.632 77 233.704 81 250.585 144 c 2
 260.499 181 l 1
 -9.50098 181 l 1
 10.3271 255 l 1
 495.708 708 l 5
 564.708 708 l 1
 540.88 634 523.875 578 517.979 556 c 2
 435.451 248 l 1
278.451 248 m 1
 345.438 498 l 1
 81.4512 248 l 1
 278.451 248 l 1
EndSplineSet
EndChar

StartChar: five
Encoding: 53 53 20
Width: 574
VWidth: 1000
Flags: HMW
HStem: -14 57<211.5 274> 392 68<262.5 281.5> 536 172<263.5 324.5>
VStem: 31 115<67.6329 159.577> 357 178<168.5 283>
LayerCount: 2
Fore
SplineSet
227.64 551 m 1
 178.074 422 l 1
 252.113 452 285.257 460 332.257 460 c 0
 476.257 460 555.533 364 520.7 234 c 0
 481.312 87 342.249 -14 178.249 -14 c 0
 40.249 -14 -32.335 51 -5.54004 151 c 0
 11.0732 213 59.791 253 117.791 253 c 0
 168.791 253 193.949 220 180.819 171 c 0
 171.709 137 151.618 118 107.527 99 c 0
 97.1875 94 93.3838 91 91.7754 85 c 0
 86.1484 64 123.521 43 168.521 43 c 0
 248.521 43 308.938 108 341.36 229 c 0
 370.299 337 347.036 392 272.036 392 c 0
 231.036 392 187.553 379 150.854 354 c 1
 150.246 348 149.639 342 148.566 338 c 0
 142.672 316 118.849 298 96.8486 298 c 0
 75.8486 298 64.1357 314 69.7627 335 c 0
 74.0498 351 79.9258 358 107.82 380 c 1
 167.176 553 193.272 628 218.708 708 c 5
 277.225 695 326.153 691 409.153 691 c 0
 487.153 691 558.761 697 593.904 705 c 0
 600.44 707 606.708 708 610.708 708 c 0
 615.708 708 617.368 703 615.761 697 c 0
 609.865 675 584.951 638 559.253 613 c 0
 508.123 564 432.621 536 349.621 536 c 0
 310.621 536 271.961 541 227.64 551 c 1
EndSplineSet
EndChar

StartChar: six
Encoding: 54 54 21
Width: 574
VWidth: 1000
Flags: HW
HStem: -14 47<266 319.5> 458 20<411 465.5> 656 52<300 346.5>
VStem: 29 179<148.821 478.972> 375 174<154.5 257> 377 153<537.284 645.44>
LayerCount: 2
Fore
SplineSet
221.729 361 m 1xf4
 276.591 409 321.414 427 385.414 427 c 0
 503.414 427 563.906 343 531.753 223 c 0xf8
 495.044 86 361.249 -14 214.249 -14 c 0
 132.249 -14 73.5547 17 40.6318 77 c 0
 9.17285 135 7.19727 206 33.9922 306 c 0
 65.8789 425 117.529 517 197.162 594 c 0
 275.794 671 359.708 708 454.708 708 c 4
 569.708 708 628.238 654 605.195 568 c 0
 590.458 513 545.08 478 488.08 478 c 0
 436.08 478 408.654 510 420.712 555 c 0
 426.07 575 438.966 597 456.521 614 c 0
 465.933 623 468.004 627 469.611 633 c 0
 473.363 647 457.774 656 432.774 656 c 0
 364.774 656 299.143 579 247.094 437 c 0
 240.003 418 224.945 373 221.729 361 c 1xf4
313.318 352 m 0
 275.854 354 237.619 327 215.098 284 c 0
 203.935 261 192.36 229 182.982 194 c 0
 155.384 91 170.843 33 224.843 33 c 0
 277.843 33 323.723 96 354.806 212 c 0
 378.921 302 364.782 350 313.318 352 c 0
EndSplineSet
EndChar

StartChar: seven
Encoding: 55 55 22
Width: 574
VWidth: 1000
Flags: HMW
HStem: -14 20 545 163<288 305>
LayerCount: 2
Fore
SplineSet
658.708 708 m 1
 647.454 666 l 1
 413.515 349 376.294 281 326.991 97 c 0
 307.699 25 261.249 -14 198.249 -14 c 0
 142.249 -14 116.699 25 132.508 84 c 0
 143.494 125 172.623 174 228.915 246 c 0
 236.595 256 296.548 323 409.773 447 c 1
 504.836 548 l 1
 420.3 546 376.032 545 372.032 545 c 0
 342.032 545 291.568 547 258.836 548 c 0
 252.104 549 246.104 549 241.104 549 c 0
 206.104 549 195.621 536 153.041 448 c 2
 130.983 403 l 1
 77.5908 409 l 1
 191.708 708 l 1
 287.761 697 334.957 694 426.957 694 c 0
 529.957 694 593.028 698 658.708 708 c 1
EndSplineSet
EndChar

StartChar: eight
Encoding: 56 56 23
Width: 574
VWidth: 1000
Flags: HW
HStem: -14 52<246.5 326> 656 52<256 320.5>
VStem: 27 130<126 192> 49 130<538 559.5> 396 125<530 577> 422 124<146.5 180.5>
LayerCount: 2
Fore
SplineSet
436.127 411 m 1xd8
 522.677 372 551.796 309 526.609 215 c 0
 489.9 78 356.249 -14 195.249 -14 c 0
 43.249 -14 -35.2627 55 -6.32422 163 c 0xe4
 9.2168 221 48.542 267 105.509 293 c 0
 124.921 302 138.992 306 172.672 316 c 1
 104.926 358 83.4668 416 104.635 495 c 0
 139.2 624 261.708 708 416.708 708 c 4
 545.708 708 616.827 645 592.176 553 c 0
 579.851 507 546.864 466 500.63 439 c 0
 483.95 429 467.074 422 436.127 411 c 1xd8
391.826 436 m 1
 394.361 438 l 2
 426.524 461 453.242 501 464.229 542 c 0
 482.985 612 452.774 656 385.774 656 c 0
 323.774 656 266.789 615 252.052 560 c 0xd8
 240.262 516 260.275 475 300.721 458 c 0
 317.845 451 347.434 442 385.754 432 c 1
 388.022 433 388.022 433 389.558 435 c 1
 391.826 436 l 1
219.438 289 m 1
 161.987 250 138.949 220 124.479 166 c 0
 103.044 86 139.182 38 220.182 38 c 0
 298.182 38 368.312 87 386.532 155 c 0xe4
 400.197 206 383.433 233 326.327 255 c 0
 303.471 263 258.222 277 219.438 289 c 1
EndSplineSet
EndChar

StartChar: nine
Encoding: 57 57 24
Width: 574
VWidth: 1000
Flags: HW
HStem: -14 52<221 272> 263 75<166 322.424> 656 52<255 296>
VStem: 25 173<466 537.5> 45 153<43.3203 158.023> 365 180<212.704 537.017>
LayerCount: 2
Fore
SplineSet
380.155 329 m 1xec
 325.562 282 278.471 263 216.471 263 c 0
 102.471 263 41.7822 350 73.4004 468 c 0xf4
 110.646 607 242.708 708 387.708 708 c 0
 471.708 708 534.794 671 567.573 603 c 0
 594.301 546 595.812 477 571.429 386 c 0
 542.222 277 490.499 181 420.671 107 c 0
 347.503 28 253.249 -14 150.249 -14 c 0
 37.249 -14 -22.3535 36 -1.4541 114 c 0
 14.0869 172 65.3408 214 120.341 214 c 0
 170.341 214 195.499 181 182.638 133 c 0
 176.742 111 173.135 105 147.364 76 c 0
 141.757 70 138.148 64 136.541 58 c 0
 133.325 46 143.182 38 165.182 38 c 0
 245.182 38 307.938 108 357.255 251 c 0
 365.686 275 368.365 285 380.155 329 c 1xec
381.774 656 m 0
 325.774 656 281.77 600 252.563 491 c 0
 239.166 441 235.52 405 240.089 381 c 0
 245.39 356 267.566 338 295.566 338 c 0
 346.566 338 393.572 394 417.151 482 c 0
 429.478 528 434.946 582 429.717 611 c 0
 425.487 640 407.774 656 381.774 656 c 0
EndSplineSet
EndChar

StartChar: colon
Encoding: 58 58 25
Width: 332
VWidth: 1000
Flags: HMW
HStem: -15 20
LayerCount: 2
Back
SplineSet
150 172 m 0
 202 172 244 130 244 79 c 0
 244 27 202 -15 149 -15 c 0
 99 -15 57 28 57 79 c 0
 57 130 99 172 150 172 c 0
150 481 m 0
 202 481 244 439 244 388 c 0
 244 336 202 294 149 294 c 0
 99 294 57 337 57 388 c 0
 57 439 99 481 150 481 c 0
EndSplineSet
Fore
SplineSet
136.795 465.5 m 2
 241.281 562 l 2
 258.888 578.261 264.726 578.729 273.873 562 c 2
 326.646 465.5 l 2
 334.038 451.986 331.655 442.281 316.732 428.5 c 2
 212.245 332 l 2
 194.519 315.628 188.801 315.272 179.653 332 c 2
 126.881 428.5 l 2
 118.656 443.539 120.958 450.873 136.795 465.5 c 2
46.4961 128.5 m 2
 150.982 225 l 2
 168.589 241.261 174.427 241.728 183.574 225 c 2
 236.348 128.5 l 2
 243.739 114.986 241.355 105.281 226.434 91.5 c 2
 121.946 -5 l 2
 104.22 -21.3721 98.502 -21.7275 89.3545 -5 c 2
 36.582 91.5 l 2
 28.3574 106.539 30.6582 113.873 46.4961 128.5 c 2
EndSplineSet
EndChar

StartChar: semicolon
Encoding: 59 59 26
Width: 332
VWidth: 1000
Flags: HW
VStem: 99.0059 40.5<-152.225 -142.5>
LayerCount: 2
Back
SplineSet
75 -185 m 1
 48 -145 l 1
 110 -101 147 -54 147 -16 c 0
 147 -12 146 -10 143 -10 c 2
 139 -10 l 2
 137 -11 135 -11 131 -11 c 0
 83 -11 47 26 47 75 c 0
 47 131 89 174 143 174 c 0
 203 174 244 125 244 53 c 0
 244 -36 186 -118 75 -185 c 1
145 481 m 0
 197 481 239 439 239 388 c 0
 239 336 197 294 144 294 c 0
 94 294 52 337 52 388 c 0
 52 439 94 481 145 481 c 0
EndSplineSet
Fore
SplineSet
36.5977 91.5 m 6
 28.3242 106.506 30.6738 113.873 46.5117 128.5 c 6
 150.999 225 l 6
 168.604 241.261 174.442 241.728 183.591 225 c 6
 232.834 128.002 l 6
 239.857 114.168 238.565 106.519 226.364 92.3359 c 6
 24.3232 -142.5 l 6
 -0.390625 -171.225 -28.5498 -158.61 -11.7559 -126 c 6
 59.5732 12.5 l 6
 66.3379 25.9082 67.9785 34.6006 62.7959 44 c 6
 36.5977 91.5 l 6
136.811 465.5 m 2
 241.298 562 l 2
 258.903 578.261 264.742 578.729 273.89 562 c 2
 326.662 465.5 l 2
 334.054 451.986 331.67 442.281 316.748 428.5 c 2
 212.261 332 l 2
 194.534 315.628 188.816 315.272 179.669 332 c 2
 126.896 428.5 l 2
 118.672 443.539 120.973 450.873 136.811 465.5 c 2
EndSplineSet
EndChar

StartChar: less
Encoding: 60 60 27
Width: 606
VWidth: 1000
Flags: HW
LayerCount: 2
Fore
SplineSet
589.252 404 m 1
 220.791 253 l 1
 507.795 100 l 1
 474.301 -25 l 1
 27.4658 207 l 1
 51.5811 297 l 1
 622.745 529 l 1
 589.252 404 l 1
EndSplineSet
EndChar

StartChar: equal
Encoding: 61 61 28
Width: 606
VWidth: 1000
Flags: HMW
HStem: 92 115<51 555> 298 115<51 555>
LayerCount: 2
Fore
SplineSet
-1.34863 92 m 1
 29.4658 207 l 1
 533.466 207 l 1
 502.651 92 l 1
 -1.34863 92 l 1
53.8486 298 m 1
 84.6631 413 l 1
 588.663 413 l 1
 557.849 298 l 1
 53.8486 298 l 1
EndSplineSet
EndChar

StartChar: greater
Encoding: 62 62 29
Width: 606
VWidth: 1000
Flags: HW
LayerCount: 2
Fore
SplineSet
79.252 404 m 1
 112.745 529 l 1
 559.581 297 l 1
 535.466 207 l 1
 -35.6992 -25 l 1
 -2.20508 100 l 1
 366.791 253 l 1
 79.252 404 l 1
EndSplineSet
EndChar

StartChar: question
Encoding: 63 63 30
Width: 525
VWidth: 1000
Flags: HW
HStem: 488 21G<97.5 150.5> 717 20G<189 325>
VStem: 30 181<515.943 657.948> 307 176<474.953 649.822>
LayerCount: 2
Back
SplineSet
254 228 m 1
 200 228 l 1
 198 244 197 260 197 270 c 0
 197 315 205 335 260 433 c 0
 285 478 300 529 300 570 c 0
 300 640 266 680 206 680 c 0
 175 680 153 669 153 655 c 0
 153 648 154 647 172 633 c 0
 193 617 204 595 204 568 c 0
 204 521 169 488 118 488 c 0
 63 488 23 527 23 581 c 0
 23 673 116 737 248 737 c 0
 388 737 476 668 476 559 c 0
 476 511 456 465 421 435 c 0
 414 429 405 422 328 363 c 0
 266 315 257 298 254 228 c 1
229 173 m 0
 281 173 323 131 323 79 c 0
 323 27 281 -15 228 -15 c 0
 177 -15 135 28 135 79 c 0
 135 131 177 173 229 173 c 0
EndSplineSet
Fore
SplineSet
114.968 129.055 m 6
 208.436 228.45 l 6
 224.185 245.198 229.17 245.68 236.139 228.45 c 6
 276.341 129.055 l 6
 281.972 115.136 279.479 105.14 266.13 90.9453 c 6
 172.662 -8.4502 l 6
 156.805 -25.3135 151.928 -25.6797 144.959 -8.4502 c 6
 104.757 90.9453 l 6
 98.4912 106.436 100.8 113.989 114.968 129.055 c 6
288.656 433.5 m 0
 341.18 478.408 368.396 516.5 382.731 570 c 0
 401.487 640 372.415 685.958 326.865 675 c 0
 289.454 666 303.88 634 286.195 568 c 0
 273.602 521 229.759 488 178.759 488 c 0
 123.759 488 94.209 527 108.679 581 c 0
 133.33 673 243.479 737 375.479 737 c 0
 515.479 737 584.99 668 555.783 559 c 0
 542.922 511 510.354 469.089 469.496 438.5 c 0
 395.317 382.967 317.342 362.465 254.044 296.5 c 0
 240.71 282.604 236.811 281.774 232.295 295 c 2
 219.321 333 l 2
 216.93 340.003 215.522 345.111 221.064 356.5 c 0
 232.896 380.808 258.668 407.861 288.656 433.5 c 0
EndSplineSet
EndChar

StartChar: at
Encoding: 64 64 31
Width: 747
VWidth: 1000
Flags: HW
HStem: -15 61<304 437.5> 145 52<294.5 317> 148 61<511 528.5> 521 52<390.5 407> 676 61<302 466.5>
VStem: 24 64<275.5 454.5> 160 103<252 284> 658 64<381 493.5>
LayerCount: 2
Fore
SplineSet
617.91 190 m 1xbf
 686.91 190 l 1
 661.996 153 638.833 130 598.259 98 c 0
 501.627 21 406.98 -15 305.98 -15 c 0
 103.98 -15 -12.2715 152 43.998 362 c 0
 99.7314 570 306.479 737 509.479 737 c 0
 694.479 737 805.502 599 759.146 426 c 0
 720.294 281 568.656 148 442.656 148 c 0xbf
 396.656 148 371.552 170 380.662 204 c 0
 381.466 207 384.073 213 386.949 220 c 1
 346.283 169 303.853 145 253.853 145 c 0xdf
 178.853 145 139.27 210 161.777 294 c 0
 178.658 357 224.486 431 281.759 488 c 0
 336.229 542 402.535 573 461.535 573 c 0
 505.535 573 525.783 559 540.869 522 c 1
 561.979 556 l 1
 665.979 556 l 1
 496.811 268 l 1
 488.791 253 482.308 240 479.896 231 c 0
 476.145 217 482.001 209 498.001 209 c 0
 517.001 209 542.949 220 570.04 239 c 0
 630.025 280 672.906 343 693.271 419 c 0
 733.195 568 649.134 676 492.134 676 c 0
 320.134 676 156.496 543 109.069 366 c 0
 60.5703 185 154.325 46 324.325 46 c 0
 431.325 46 535.991 97 617.91 190 c 1xbf
468.602 521 m 0
 437.602 521 403.171 497 363.041 448 c 0
 311.429 386 269.601 312 254.595 256 c 0
 244.413 218 255.786 197 284.786 197 c 0xdf
 316.786 197 353.557 226 391.025 280 c 0
 434.906 343 496.577 450 503.544 476 c 0
 509.975 500 494.602 521 468.602 521 c 0
EndSplineSet
EndChar

StartChar: A
Encoding: 65 65 32
Width: 741
VWidth: 1000
Flags: MW
HStem: 0 54<-68 -62 -62 -40 206 211 -75 -62 342 358 358 378.5 702 709> 220 54<217 404 217 417 185 404> 716 20<419 481 481 481>
LayerCount: 2
Fore
SplineSet
481 736 m 1
 612 114 l 2
 622 67 641 54 702 54 c 2
 716 54 l 1
 709 0 l 1
 335 0 l 1
 342 54 l 1
 358 54 l 2
 399 54 410 55 424 62 c 0
 434 66 441 76 441 85 c 0
 441 92 440 103 437 117 c 2
 417 220 l 1
 185 220 l 1
 139 139 l 2
 130 124 125 108 125 96 c 0
 125 67 150 54 206 54 c 2
 219 54 l 1
 211 0 l 1
 -75 0 l 1
 -68 54 l 1
 -62 54 l 2
 -18 54 33 93 71 157 c 2
 419 736 l 1
 481 736 l 1
404 274 m 1
 358 515 l 1
 217 274 l 1
 404 274 l 1
EndSplineSet
EndChar

StartChar: B
Encoding: 66 66 33
Width: 759
VWidth: 1000
Flags: W
HStem: 0 54<-43 -39 -39 -18 280 313 313 339 -50 -39> 343 54<294 339 308 339 339 344> 668 54<104 115 96 456 407 425 425 440>
VStem: 492 191<204 242 159.5 254.5> 537 183<537 580 501 599.5>
LayerCount: 2
Fore
SplineSet
104 722 m 1xe8
 456 722 l 2
 538 722 605 710 643 687 c 0
 692 658 720 609 720 551 c 0xe8
 720 451 637 385 489 368 c 1
 620 345 683 289 683 195 c 0xf0
 683 124 643 62 578 36 c 0
 523 13 446 0 368 0 c 2
 -50 0 l 1
 -43 54 l 1
 -39 54 l 2
 3 54 27 58 38 68 c 0
 46 76 46 76 64 144 c 2
 181 578 l 2
 190 611 194 632 194 641 c 0
 194 663 180 668 115 668 c 2
 96 668 l 1
 104 722 l 1xe8
308 397 m 1
 339 397 l 2
 410 397 438 403 468 423 c 0
 511 452 537 507 537 567 c 0
 537 632 502 668 440 668 c 2
 425 668 l 2
 389 668 378 657 365 608 c 2
 308 397 l 1
294 343 m 1
 235 122 l 2
 229 101 227 91 227 84 c 0
 227 63 244 54 280 54 c 2
 313 54 l 2
 365 54 408 67 436 91 c 0
 471 120 492 175 492 233 c 0xf0
 492 276 480 304 455 322 c 0
 430 339 411 343 344 343 c 2
 294 343 l 1
EndSplineSet
EndChar

StartChar: C
Encoding: 67 67 34
Width: 759
VWidth: 1000
Flags: MW
HStem: -15 63<344 413> 684 53<454 512.5 355.5 540.5>
VStem: 35 190<248 293.5 179.5 411.5>
LayerCount: 2
Fore
SplineSet
759 712 m 1
 701 426 l 1
 652 432 l 1
 647 603 594 684 487 684 c 0
 421 684 361 646 320 576 c 1
 261 479 225 349 225 238 c 0
 225 121 291 48 397 48 c 0
 488 48 579 116 616 212 c 1
 679 212 l 1
 663 161 633 112 591 70 c 0
 536 15 458 -15 368 -15 c 0
 274 -15 178 18 122 71 c 0
 67 123 35 204 35 292 c 0
 35 531 238 737 473 737 c 0
 552 737 611 711 657 655 c 1
 713 712 l 1
 759 712 l 1
EndSplineSet
EndChar

StartChar: D
Encoding: 68 68 35
Width: 833
VWidth: 1000
Flags: MW
HStem: 0 54<-49 -38 -42 -38 -38 -17 281 285> 668 54<105 116 98 463 416 439 439 461>
VStem: 610 186<444.5 488.5 371 555.5>
LayerCount: 2
Fore
SplineSet
-49 0 m 1
 -42 54 l 1
 -38 54 l 2
 4 54 28 58 39 68 c 0
 47 76 47 76 66 144 c 2
 182 578 l 2
 191 612 195 632 195 641 c 0
 195 663 181 668 116 668 c 2
 98 668 l 1
 105 722 l 1
 463 722 l 2
 572 722 633 707 691 666 c 0
 760 618 796 540 796 437 c 0
 796 305 740 180 645 100 c 0
 559 28 459 0 285 0 c 2
 -49 0 l 1
281 54 m 2
 310 54 l 2
 396 54 467 91 515 162 c 0
 570 244 610 388 610 501 c 0
 610 610 558 668 461 668 c 2
 439 668 l 2
 393 668 379 655 365 605 c 2
 237 127 l 1
 229 91 228 88 228 81 c 0
 228 61 243 54 281 54 c 2
EndSplineSet
EndChar

StartChar: E
Encoding: 69 69 36
Width: 741
VWidth: 1000
Flags: MW
HStem: 0 54<-34 -30 -30 4.5 289 325 325 365 -41 -30> 477 21<636 688 636 636> 668 54<113 124 105 728 419.5 440 440 478>
LayerCount: 2
Fore
SplineSet
728 722 m 1
 688 477 l 1
 636 477 l 1
 635 540 629 577 615 604 c 1
 595 646 548 668 478 668 c 2
 440 668 l 2
 399 668 388 659 377 620 c 2
 318 401 l 1
 339 401 l 2
 426 401 471 434 505 523 c 1
 558 516 l 1
 468 181 l 1
 415 188 l 1
 419 218 420 232 420 250 c 0
 420 315 389 347 326 347 c 2
 304 347 l 1
 241 111 l 2
 237 98 235 85 235 79 c 0
 235 61 251 54 289 54 c 2
 325 54 l 2
 405 54 463 79 528 141 c 0
 566 177 593 213 616 259 c 1
 668 248 l 1
 602 0 l 1
 -41 0 l 1
 -34 54 l 1
 -30 54 l 2
 39 54 51 60 62 102 c 2
 73 144 l 1
 190 578 l 2
 199 613 203 632 203 641 c 0
 203 663 189 668 124 668 c 2
 105 668 l 1
 113 722 l 1
 728 722 l 1
EndSplineSet
EndChar

StartChar: F
Encoding: 70 70 37
Width: 704
VWidth: 1000
Flags: MW
HStem: 0 54<-34 -30 -30 4.5 315 334 -41 -30> 477 21<634 686 634 634> 668 54<113 124 105 726 419.5 440 440 476>
LayerCount: 2
Fore
SplineSet
726 722 m 1
 686 477 l 1
 634 477 l 1
 633 540 627 577 613 604 c 1
 593 646 546 668 476 668 c 2
 440 668 l 2
 399 668 388 659 377 620 c 2
 318 401 l 1
 339 401 l 2
 426 401 471 434 505 523 c 1
 558 516 l 1
 468 181 l 1
 415 189 l 1
 419 218 420 232 420 250 c 0
 420 315 389 347 326 347 c 2
 304 347 l 1
 250 144 l 2
 240 108 236 90 236 81 c 0
 236 59 250 54 315 54 c 2
 342 54 l 1
 334 0 l 1
 -41 0 l 1
 -34 54 l 1
 -30 54 l 2
 39 54 51 60 62 102 c 2
 73 144 l 1
 190 578 l 2
 199 613 203 632 203 641 c 0
 203 663 189 668 124 668 c 2
 105 668 l 1
 113 722 l 1
 726 722 l 1
EndSplineSet
EndChar

StartChar: G
Encoding: 71 71 38
Width: 815
VWidth: 1000
Flags: MW
HStem: -15 52<339 392.5> -14 21<579 627 579 579> 282 54<430 451 423 802 750.5 785 785 795> 683 54<458.5 526.5 363 533.5>
VStem: 34 188<233 275.5 205 406.5>
LayerCount: 2
Fore
SplineSet
775 715 m 1xb8
 718 432 l 1
 667 439 l 1
 666 492 659 533 644 576 c 0
 619 646 569 683 498 683 c 0
 419 683 352 632 298 531 c 0
 253 447 222 322 222 229 c 0
 222 181 232 133 248 103 c 0
 269 64 315 37 363 37 c 0xb8
 426 37 480 81 504 152 c 0
 514 182 528 241 528 255 c 0
 528 278 516 282 451 282 c 2
 423 282 l 1
 430 336 l 1
 802 336 l 1
 795 282 l 1
 785 282 l 2
 716 282 704 276 694 234 c 0
 690 220 686 205 682 192 c 2
 627 -14 l 1
 579 -14 l 1x78
 560 81 l 1
 506 16 438 -15 347 -15 c 0
 277 -15 207 6 149 44 c 0
 77 92 34 182 34 284 c 0
 34 529 241 737 485 737 c 0
 568 737 616 716 670 657 c 1
 730 715 l 1
 775 715 l 1xb8
EndSplineSet
EndChar

StartChar: H
Encoding: 72 72 39
Width: 870
VWidth: 1000
Flags: MW
HStem: 0 54<-34 -30 -30 4.5 315 318 -41 -30 390 402 402 423 747 762> 340 61<318 558 302 574> 668 54<113 124 105 488 448 469 469 481 553 556 880 901 901 905>
LayerCount: 2
Fore
SplineSet
558 340 m 1
 302 340 l 1
 250 144 l 2
 240 110 236 89 236 81 c 0
 236 59 250 54 315 54 c 2
 326 54 l 1
 318 0 l 1
 -41 0 l 1
 -34 54 l 1
 -30 54 l 2
 39 54 51 60 62 102 c 0
 65 114 70 130 73 144 c 2
 190 578 l 2
 199 612 203 632 203 641 c 0
 203 663 189 668 124 668 c 2
 105 668 l 1
 113 722 l 1
 488 722 l 1
 481 668 l 1
 469 668 l 2
 427 668 403 664 393 654 c 1
 384 647 384 647 366 578 c 2
 318 401 l 1
 574 401 l 1
 621 578 l 2
 631 613 635 632 635 641 c 0
 635 663 621 668 556 668 c 2
 545 668 l 1
 553 722 l 1
 912 722 l 1
 905 668 l 1
 901 668 l 2
 859 668 835 664 824 654 c 0
 816 647 816 647 798 578 c 2
 681 144 l 2
 673 112 668 90 668 81 c 0
 668 59 682 54 747 54 c 2
 769 54 l 1
 762 0 l 1
 383 0 l 1
 390 54 l 1
 402 54 l 2
 444 54 468 58 478 68 c 0
 487 76 487 76 505 144 c 2
 558 340 l 1
EndSplineSet
EndChar

StartChar: I
Encoding: 73 73 40
Width: 444
VWidth: 1000
Flags: W
HStem: 0 54<-34 -27 -27 -6 318 332 -41 -27> 668 54<113 127 105 486 451 472 472 479>
LayerCount: 2
Fore
SplineSet
332 0 m 1
 -41 0 l 1
 -34 54 l 1
 -27 54 l 2
 15 54 39 58 49 68 c 0
 58 76 58 76 76 144 c 2
 192 578 l 2
 202 612 206 632 206 641 c 0
 206 663 192 668 127 668 c 2
 105 668 l 1
 113 722 l 1
 486 722 l 1
 479 668 l 1
 472 668 l 2
 430 668 406 664 396 654 c 1
 387 647 387 647 369 578 c 2
 253 144 l 2
 239 89 239 89 239 81 c 0
 239 59 253 54 318 54 c 2
 340 54 l 1
 332 0 l 1
EndSplineSet
EndChar

StartChar: J
Encoding: 74 74 41
Width: 667
VWidth: 1000
Flags: MW
HStem: -15 57<150.5 193.5 139 286> 138 190<136.5 156 85 168.5> 668 54<332 718 340 362 686 707 707 711>
VStem: -9 240<205 215.5>
LayerCount: 2
Fore
SplineSet
332 668 m 1
 340 722 l 1
 718 722 l 1
 711 668 l 1
 707 668 l 2
 665 668 641 664 630 654 c 0
 622 646 622 646 604 578 c 2
 522 274 l 2
 487 144 487 144 470 113 c 0
 421 24 346 -15 226 -15 c 0
 75 -15 -9 51 -9 169 c 0
 -9 262 46 328 124 328 c 0
 188 328 231 289 231 231 c 0
 231 179 193 138 144 138 c 0
 129 138 115 142 100 151 c 0
 85 159 82 160 77 160 c 0
 65 160 59 151 59 135 c 0
 59 83 108 42 170 42 c 0
 217 42 262 69 290 114 c 0
 312 150 315 158 342 260 c 2
 427 578 l 2
 437 614 441 632 441 641 c 0
 441 663 427 668 362 668 c 2
 332 668 l 1
EndSplineSet
EndChar

StartChar: K
Encoding: 75 75 42
Width: 778
VWidth: 1000
Flags: MW
HStem: 0 54<-34 -30 -30 -9 315 318 -41 -30 382 413 413 436 742 749> 668 54<113 124 105 488 448 469 469 481 533 561 113 526 825 825>
LayerCount: 2
Fore
SplineSet
305 353 m 1
 572 601 l 2
 593 621 602 633 602 643 c 0
 602 659 587 668 561 668 c 2
 526 668 l 1
 533 722 l 1
 832 722 l 1
 825 668 l 1
 755 664 712 644 653 587 c 1
 491 437 l 1
 634 129 l 2
 666 59 673 54 742 54 c 2
 757 54 l 1
 749 0 l 1
 375 0 l 1
 382 54 l 1
 413 54 l 2
 459 54 473 59 473 76 c 0
 473 84 473 84 462 107 c 2
 360 320 l 1
 276 243 l 1
 250 144 l 1
 240 110 236 90 236 81 c 0
 236 59 250 54 315 54 c 2
 326 54 l 1
 318 0 l 1
 -41 0 l 1
 -34 54 l 1
 -30 54 l 2
 12 54 36 59 47 68 c 1
 55 76 55 76 74 145 c 2
 189 578 l 2
 199 613 203 632 203 641 c 0
 203 663 189 668 124 668 c 2
 105 668 l 1
 113 722 l 1
 488 722 l 1
 481 668 l 1
 469 668 l 2
 427 668 403 664 393 654 c 0
 384 646 384 646 366 578 c 2
 305 353 l 1
EndSplineSet
EndChar

StartChar: L
Encoding: 76 76 43
Width: 704
VWidth: 1000
Flags: MW
HStem: 0 54<-34 -30 -30 -9 289 325 325 365 -41 -30> 668 54<113 124 105 495 448 469 469 487>
LayerCount: 2
Fore
SplineSet
618 266 m 1
 670 255 l 1
 602 0 l 1
 -41 0 l 1
 -34 54 l 1
 -30 54 l 2
 12 54 36 58 47 68 c 0
 55 76 55 76 73 144 c 2
 190 578 l 2
 199 613 203 632 203 641 c 0
 203 663 189 668 124 668 c 2
 105 668 l 1
 113 722 l 1
 495 722 l 1
 487 668 l 1
 469 668 l 2
 427 668 403 664 393 654 c 0
 384 646 384 646 366 578 c 2
 250 144 l 2
 240 109 236 89 236 80 c 0
 236 60 249 54 289 54 c 2
 325 54 l 2
 405 54 463 79 528 141 c 0
 570 180 596 217 618 266 c 1
EndSplineSet
EndChar

StartChar: M
Encoding: 77 77 44
Width: 944
VWidth: 1000
Flags: MW
HStem: 0 54<-17 -17 194.5 213 -24 -17 474 478 478 499 823 834> 668 54<113 125 106 406 956 977 977 981>
LayerCount: 2
Fore
SplineSet
406 722 m 1
 441 259 l 1
 719 722 l 1
 988 722 l 1
 981 668 l 1
 977 668 l 2
 935 668 911 664 900 654 c 0
 892 647 892 647 874 578 c 2
 757 144 l 2
 749 112 744 89 744 81 c 0
 744 59 758 54 823 54 c 2
 842 54 l 1
 834 0 l 1
 467 0 l 1
 474 54 l 1
 478 54 l 2
 520 54 544 58 554 68 c 0
 563 76 563 76 581 144 c 2
 693 562 l 1
 356 0 l 1
 293 0 l 1
 254 566 l 1
 160 216 l 1
 140 136 139 129 139 109 c 0
 139 74 168 54 221 54 c 1
 213 0 l 1
 -24 0 l 1
 -17 54 l 1
 38 58 58 89 93 216 c 2
 190 578 l 2
 201 619 204 632 204 641 c 0
 204 663 190 668 125 668 c 2
 106 668 l 1
 113 722 l 1
 406 722 l 1
EndSplineSet
EndChar

StartChar: N
Encoding: 78 78 45
Width: 852
VWidth: 1000
Flags: W
HStem: -14 21<544 624 544 544> 0 54<-50 -50 224 227 -57 -50> 668 54<96 145 89 350 635 658 888 905>
LayerCount: 2
Fore
SplineSet
350 722 m 1xa0
 618 215 l 1
 696 505 l 2
 717 585 718 591 718 613 c 0
 718 650 688 668 628 668 c 1
 635 722 l 1
 912 722 l 1
 905 668 l 1
 871 668 844 659 824 641 c 0
 796 614 794 611 763 505 c 1
 624 -14 l 1
 544 -14 l 1xa0
 248 552 l 1
 158 217 l 1
 138 137 137 130 137 109 c 0
 137 72 166 54 224 54 c 2
 235 54 l 1
 227 0 l 1
 -57 0 l 1
 -50 54 l 1x60
 -16 55 11 64 31 81 c 1
 59 107 61 113 91 217 c 1
 204 636 l 1
 192 659 176 668 145 668 c 2
 89 668 l 1
 96 722 l 1
 350 722 l 1xa0
EndSplineSet
EndChar

StartChar: O
Encoding: 79 79 46
Width: 833
VWidth: 1000
Flags: MW
HStem: -15 54<303 378.5 303 465.5> 683 54<449.5 506.5>
VStem: 36 179<195 240 145.5 346> 613 184<467.5 480.5 317 544>
LayerCount: 2
Fore
SplineSet
490 737 m 0
 582 737 655 708 714 646 c 1
 769 590 797 520 797 441 c 0
 797 193 589 -15 342 -15 c 0
 157 -15 36 104 36 286 c 0
 36 406 88 526 176 610 c 0
 267 696 368 737 490 737 c 0
487 683 m 0
 412 683 352 633 300 528 c 0
 251 428 215 287 215 193 c 0
 215 98 264 39 342 39 c 0
 415 39 477 90 533 196 c 1
 582 291 613 415 613 520 c 0
 613 568 605 603 586 631 c 0
 566 662 526 683 487 683 c 0
EndSplineSet
EndChar

StartChar: P
Encoding: 80 80 47
Width: 741
VWidth: 1000
Flags: MW
HStem: 0 54<-31 -27 -27 7.5 318 336 -38 -27> 311 54<297 360 311 360 360 377> 668 54<119 126 112 434 421 434 434 442 442 459>
VStem: 552 179<531 563 490.5 595>
LayerCount: 2
Fore
SplineSet
297 311 m 1
 252 144 l 2
 240 100 238 90 238 81 c 0
 238 59 252 54 318 54 c 2
 343 54 l 1
 336 0 l 1
 -38 0 l 1
 -31 54 l 1
 -27 54 l 2
 42 54 54 60 65 102 c 2
 76 144 l 1
 192 578 l 2
 204 623 206 632 206 641 c 0
 206 663 192 668 126 668 c 2
 112 668 l 1
 119 722 l 1
 434 722 l 2
 549 722 614 709 659 677 c 0
 706 644 731 593 731 533 c 0
 731 448 686 379 608 345 c 0
 555 321 487 311 377 311 c 2
 297 311 l 1
311 365 m 1
 360 365 l 2
 416 365 459 377 487 400 c 0
 525 431 552 499 552 563 c 0
 552 627 516 668 459 668 c 2
 442 668 l 2
 400 668 390 660 378 615 c 2
 311 365 l 1
EndSplineSet
EndChar

StartChar: Q
Encoding: 81 81 48
Width: 833
VWidth: 1000
Flags: MW
HStem: -15 53<319 339> 217 60<324 358.5> 685 52<445.5 505>
VStem: 35 181<237 248.5 201 405.5> 614 182<448.5 478.5 384 539.5>
LayerCount: 2
Fore
SplineSet
682 -30 m 1
 724 -52 l 1
 686 -140 621 -186 536 -186 c 0
 473 -186 422 -158 403 -113 c 0
 391 -85 388 -62 388 -12 c 1
 364 -14 345 -15 333 -15 c 0
 257 -15 178 14 126 61 c 0
 67 114 35 192 35 282 c 0
 35 529 240 737 484 737 c 0
 582 737 657 707 717 643 c 0
 770 587 796 520 796 437 c 0
 796 331 758 223 692 141 c 0
 656 97 619 69 560 41 c 1
 567 -33 571 -57 580 -76 c 0
 589 -95 599 -104 612 -104 c 0
 637 -104 662 -77 682 -30 c 1
525 180 m 1
 576 243 614 385 614 512 c 0
 614 567 604 611 585 638 c 0
 565 666 525 685 485 685 c 0
 406 685 340 625 288 506 c 0
 245 406 216 288 216 209 c 0
 216 193 217 179 219 154 c 1
 230 234 282 277 366 277 c 0
 442 277 494 245 525 180 c 1
397 54 m 1
 410 122 410 124 410 149 c 0
 410 188 379 217 338 217 c 0
 292 217 258 177 258 124 c 0
 258 71 292 38 346 38 c 0
 367 38 379 42 397 54 c 1
EndSplineSet
EndChar

StartChar: R
Encoding: 82 82 49
Width: 796
VWidth: 1000
Flags: W
HStem: 0 54<-34 -30 -30 -9 315 333 -41 -30> 668 54<112 124 105 459 416 434 434 459>
VStem: 424 179<114 137.5> 567 184<543.5 585 498 601.5>
LayerCount: 2
Fore
SplineSet
304 350 m 1xd0
 249 144 l 2
 241 112 236 90 236 81 c 0
 236 59 250 54 315 54 c 2
 341 54 l 1
 333 0 l 1
 -41 0 l 1
 -34 54 l 1
 -30 54 l 2
 12 54 36 58 46 68 c 0
 55 76 55 76 73 144 c 2
 189 578 l 2
 200 618 203 632 203 641 c 0
 203 663 189 668 124 668 c 2
 105 668 l 1
 112 722 l 1
 459 722 l 2
 557 722 623 712 671 690 c 0
 719 668 751 615 751 555 c 0xd0
 751 441 653 374 464 359 c 1
 515 345 538 331 564 304 c 1
 592 273 603 239 603 181 c 2
 603 147 l 2xe0
 603 81 603 81 610 72 c 0
 615 65 621 61 628 61 c 0
 646 61 668 82 682 114 c 0
 687 125 690 132 699 157 c 1
 742 136 l 1
 708 33 652 -15 567 -15 c 0xd0
 483 -15 424 44 424 127 c 0xe0
 424 148 427 179 431 211 c 0
 434 232 436 254 436 269 c 0
 436 324 403 350 334 350 c 2
 304 350 l 1xd0
319 404 m 1
 353 404 l 2
 443 404 469 409 502 435 c 1
 542 464 567 517 567 570 c 0
 567 633 529 668 459 668 c 2
 434 668 l 2
 398 668 388 661 380 630 c 2
 319 404 l 1
EndSplineSet
EndChar

StartChar: S
Encoding: 83 83 50
Width: 685
VWidth: 1000
Flags: MW
HStem: -15 54<275 364 252 406.5> 0 21<1 45 1 1> 683 54<337 407.5 292 416.5>
VStem: 474 138<153.5 181.5>
LayerCount: 2
Fore
SplineSet
666 715 m 1xb0
 622 452 l 1
 570 461 l 1
 568 517 561 551 545 584 c 0
 513 647 453 683 380 683 c 0
 294 683 237 640 237 575 c 0
 237 548 248 521 269 503 c 1
 282 490 308 478 349 464 c 0
 423 440 485 414 522 392 c 0
 580 359 612 299 612 224 c 0
 612 83 493 -15 320 -15 c 0xb0
 230 -15 169 8 103 65 c 1
 45 0 l 1
 1 0 l 1x70
 51 283 l 1
 103 275 l 1
 103 260 l 2
 103 126 187 39 317 39 c 0
 411 39 474 85 474 152 c 0
 474 211 438 239 303 285 c 0
 219 313 189 329 158 359 c 0
 121 394 102 441 102 495 c 0
 102 633 216 737 368 737 c 0
 447 737 507 714 568 661 c 1
 621 715 l 1
 666 715 l 1xb0
EndSplineSet
EndChar

StartChar: T
Encoding: 84 84 51
Width: 722
VWidth: 1000
Flags: MW
HStem: 0 54<73 100 100 121 445 463 66 100> 668 54<266.5 318 535.5 588>
LayerCount: 2
Fore
SplineSet
762 722 m 1
 718 439 l 1
 665 444 l 1
 667 467 668 492 668 504 c 0
 668 609 626 668 550 668 c 0
 521 668 519 666 507 623 c 2
 379 144 l 2
 367 100 365 90 365 81 c 0
 365 59 379 54 445 54 c 2
 470 54 l 1
 463 0 l 1
 66 0 l 1
 73 54 l 1
 100 54 l 2
 142 54 166 58 176 68 c 0
 185 76 185 76 203 144 c 2
 333 629 l 2
 336 639 337 648 337 653 c 0
 337 663 327 668 309 668 c 0
 224 668 163 603 94 439 c 1
 44 455 l 1
 115 722 l 1
 762 722 l 1
EndSplineSet
EndChar

StartChar: U
Encoding: 85 85 52
Width: 833
VWidth: 1000
Flags: MW
HStem: -15 62<361.5 436.5 361.5 454> 668 54<95 478 102 113 437 458 458 470 621 644.5 888 888>
VStem: 88 171<161.5 198 142 210>
LayerCount: 2
Fore
SplineSet
95 668 m 1
 102 722 l 1
 478 722 l 1
 470 668 l 1
 458 668 l 2
 416 668 392 664 382 654 c 0
 373 646 373 646 355 578 c 2
 274 274 l 2
 263 234 259 210 259 186 c 0
 259 98 314 47 409 47 c 0
 464 47 506 65 544 106 c 1
 578 140 594 175 615 254 c 2
 682 506 l 2
 703 585 704 592 704 613 c 0
 704 651 675 668 614 668 c 1
 621 722 l 1
 895 722 l 1
 888 668 l 1
 862 669 829 658 810 641 c 0
 782 616 779 609 749 506 c 1
 675 227 l 2
 630 58 537 -15 371 -15 c 0
 301 -15 243 -3 200 19 c 1
 135 54 88 127 88 196 c 0
 88 224 94 261 105 303 c 2
 179 578 l 2
 191 624 193 632 193 641 c 0
 193 663 179 668 113 668 c 2
 95 668 l 1
EndSplineSet
EndChar

StartChar: V
Encoding: 86 86 53
Width: 741
VWidth: 1000
Flags: MW
HStem: -14 21<258 324 258 258> 668 54<39 64 32 406 351.5 371 371 398 523 543 795 795>
LayerCount: 2
Fore
SplineSet
384 209 m 1
 591 572 l 2
 604 595 610 614 610 629 c 0
 610 656 589 668 543 668 c 2
 516 668 l 1
 523 722 l 1
 802 722 l 1
 795 668 l 1
 734 659 712 642 662 560 c 1
 324 -14 l 1
 258 -14 l 1
 138 593 l 2
 125 657 114 668 64 668 c 2
 32 668 l 1
 39 722 l 1
 406 722 l 1
 398 668 l 1
 371 668 l 2
 332 668 324 667 314 660 c 0
 308 655 304 648 304 641 c 0
 304 638 306 627 309 611 c 2
 384 209 l 1
EndSplineSet
EndChar

StartChar: W
Encoding: 87 87 54
Width: 944
VWidth: 1000
Flags: MW
HStem: -14 21<200 266 200 200 556 622 556 556> 668 54<47 55 40 350 310 328 328 343 47 389 396 405 661 678 678 700 759 770 987 987>
LayerCount: 2
Fore
SplineSet
682 276 m 1
 811 586 l 2
 820 607 824 622 824 632 c 0
 824 653 802 668 770 668 c 2
 752 668 l 1
 759 722 l 1
 994 722 l 1
 987 668 l 1
 925 658 899 630 855 524 c 1
 622 -14 l 1
 556 -14 l 1
 488 469 l 1
 266 -14 l 1
 200 -14 l 1
 114 630 l 2
 110 660 97 668 55 668 c 2
 40 668 l 1
 47 722 l 1
 350 722 l 1
 343 668 l 1
 328 668 l 2
 292 668 283 661 283 632 c 1
 284 616 l 1
 328 264 l 1
 476 593 l 1
 473 623 l 2
 469 657 453 668 405 668 c 2
 389 668 l 1
 396 722 l 1
 707 722 l 1
 700 668 l 1
 678 668 l 2
 644 668 631 660 632 640 c 0
 632 634 633 625 635 613 c 2
 682 276 l 1
EndSplineSet
EndChar

StartChar: X
Encoding: 88 88 55
Width: 741
VWidth: 1000
Flags: MW
HStem: 0 54<-65 -65 226 241 -72 -65 318 359 359 378 682 698> 668 54<71 100 63 445 384.5 405 405 438 507 516 804 804>
LayerCount: 2
Fore
SplineSet
453 404 m 1
 585 109 l 2
 605 65 624 54 682 54 c 2
 705 54 l 1
 698 0 l 1
 311 0 l 1
 318 54 l 1
 359 54 l 2
 397 54 409 59 409 76 c 0
 409 84 408 88 399 109 c 2
 326 279 l 1
 191 147 l 2
 170 127 160 109 160 94 c 0
 160 67 182 54 226 54 c 2
 248 54 l 1
 241 0 l 1
 -72 0 l 1
 -65 54 l 1
 -15 53 24 73 83 129 c 1
 300 342 l 1
 174 622 l 2
 156 661 145 668 100 668 c 2
 63 668 l 1
 71 722 l 1
 445 722 l 1
 438 668 l 1
 405 668 l 2
 364 668 351 663 351 648 c 0
 351 642 354 633 360 619 c 2
 429 468 l 1
 552 590 l 2
 568 605 576 621 576 636 c 0
 576 658 556 668 516 668 c 2
 500 668 l 1
 507 722 l 1
 811 722 l 1
 804 668 l 1
 732 663 710 651 633 577 c 2
 453 404 l 1
EndSplineSet
EndChar

StartChar: Y
Encoding: 89 89 56
Width: 704
VWidth: 1000
Flags: MW
HStem: 0 54<75 94 94 115 439 457 68 94> 668 54<22 38 15 388 321 338 338 381 485 513 770 770>
LayerCount: 2
Fore
SplineSet
394 379 m 1
 553 589 l 2
 564 603 570 619 570 632 c 0
 570 655 549 668 513 668 c 2
 477 668 l 1
 485 722 l 1
 777 722 l 1
 770 668 l 1
 707 666 675 644 616 567 c 2
 416 307 l 1
 373 144 l 2
 362 102 359 90 359 81 c 0
 359 59 373 54 439 54 c 2
 464 54 l 1
 457 0 l 1
 68 0 l 1
 75 54 l 1
 94 54 l 2
 136 54 160 58 170 68 c 0
 179 76 179 76 197 144 c 2
 240 307 l 1
 123 611 l 2
 106 656 87 668 38 668 c 2
 15 668 l 1
 22 722 l 1
 388 722 l 1
 381 668 l 1
 338 668 l 2
 304 668 294 663 294 644 c 0
 294 636 296 627 303 610 c 2
 394 379 l 1
EndSplineSet
EndChar

StartChar: Z
Encoding: 90 90 57
Width: 704
VWidth: 1000
Flags: MW
HStem: 0 54<-21 -21 197 288 288 360 -29 -21> 668 54<342.5 407 407 486 707 707>
LayerCount: 2
Fore
SplineSet
715 722 m 1
 707 668 l 1
 197 54 l 1
 288 54 l 2
 432 54 522 117 601 273 c 1
 652 260 l 1
 582 0 l 1
 -29 0 l 1
 -21 54 l 1
 486 668 l 1
 407 668 l 2
 278 668 196 612 117 468 c 1
 68 478 l 1
 134 722 l 1
 715 722 l 1
EndSplineSet
EndChar

StartChar: bracketleft
Encoding: 91 91 58
Width: 389
VWidth: 1000
Flags: HMW
HStem: -108 50<207 339> 672 50<207 339 207 207>
VStem: 84 123<-58 672>
LayerCount: 2
Fore
SplineSet
455.459 722 m 1
 442.062 672 l 1
 310.062 672 l 1
 114.459 -58 l 1
 246.459 -58 l 1
 233.062 -108 l 1
 -21.9385 -108 l 1
 200.459 722 l 1
 455.459 722 l 1
EndSplineSet
EndChar

StartChar: backslash
Encoding: 92 92 59
Width: 606
VWidth: 1000
Flags: HMW
HStem: 0 20 717 20<50 124 124 124>
LayerCount: 2
Fore
SplineSet
244.479 737 m 1
 478 0 l 1
 404 0 l 1
 170.479 737 l 1
 244.479 737 l 1
EndSplineSet
EndChar

StartChar: bracketright
Encoding: 93 93 60
Width: 389
VWidth: 1000
Flags: HMW
HStem: -108 50<31 163> 672 50<31 163>
VStem: 163 123<-58 672 672 672>
LayerCount: 2
Fore
SplineSet
-74.9385 -108 m 1
 -61.541 -58 l 1
 70.459 -58 l 1
 266.062 672 l 1
 134.062 672 l 1
 147.459 722 l 1
 402.459 722 l 1
 180.062 -108 l 1
 -74.9385 -108 l 1
EndSplineSet
EndChar

StartChar: asciicircum
Encoding: 94 94 61
Width: 606
VWidth: 1000
Flags: HMW
HStem: 702 20<261 346 346 346>
LayerCount: 2
Fore
SplineSet
562.208 318 m 1
 443.208 318 l 1
 379.195 568 l 1
 179.208 318 l 1
 60.208 318 l 1
 377.459 722 l 1
 462.459 722 l 1
 562.208 318 l 1
EndSplineSet
EndChar

StartChar: underscore
Encoding: 95 95 62
Width: 500
VWidth: 1000
Flags: HMW
HStem: -148 90<0 500>
LayerCount: 2
Fore
SplineSet
-92.541 -58 m 1
 407.459 -58 l 1
 383.344 -148 l 1
 -116.656 -148 l 1
 -92.541 -58 l 1
EndSplineSet
EndChar

StartChar: grave
Encoding: 96 96 63
Width: 333
VWidth: 1000
Flags: HMW
HStem: 714 20<43 67.5>
LayerCount: 2
Fore
SplineSet
318.032 545 m 1
 254.032 545 l 1
 130.344 632 l 2
 110.095 646 102.918 664 108.277 684 c 0
 115.78 712 146.675 734 178.675 734 c 0
 195.675 734 210.067 728 221.852 716 c 0
 226.78 712 226.78 712 242.01 683 c 2
 318.032 545 l 1
EndSplineSet
EndChar

StartChar: a
Encoding: 97 97 64
Width: 667
VWidth: 1000
Flags: W
HStem: -14 70<220.5 222.5> 424 55<312.5 330.5 227 351.5> 444 20<440 597 597 597>
VStem: 15 163<114 161.5 111 248>
LayerCount: 2
Fore
SplineSet
440 464 m 1xb0
 597 464 l 1xb0
 499 132 l 1
 489 93 489 93 489 86 c 0
 489 78 496 70 503 70 c 0
 520 70 570 124 607 182 c 1
 646 157 l 1
 629 128 607 97 580 66 c 0
 531 11 486 -15 436 -15 c 0
 396 -15 363 8 354 41 c 0
 351 49 351 51 351 73 c 1
 303 11 257 -14 188 -14 c 0
 87 -14 15 61 15 167 c 0
 15 329 153 479 301 479 c 0xd0
 360 479 402 458 426 416 c 1
 440 464 l 1xb0
333 424 m 0xd0
 292 424 258 393 227 328 c 0
 198 268 178 188 178 135 c 0
 178 87 202 56 239 56 c 0
 278 56 314 89 343 153 c 0
 373 217 395 301 395 351 c 0
 395 394 370 424 333 424 c 0xd0
EndSplineSet
EndChar

StartChar: b
Encoding: 98 98 65
Width: 611
VWidth: 1000
Flags: W
HStem: -15 43<217.5 256.5 217.5 273> 408 71<310.5 436.5>
VStem: 28 143<96.5 129 81.5 161> 394 163<311.5 354.5>
LayerCount: 2
Fore
SplineSet
351 736 m 1
 260 427 l 1
 305 465 341 479 389 479 c 0
 484 479 557 405 557 307 c 0
 557 223 515 133 446 69 c 0
 386 13 314 -15 232 -15 c 0
 109 -15 28 48 28 145 c 0
 28 177 29 180 50 252 c 2
 147 578 l 2
 160 622 163 634 163 644 c 0
 163 669 151 675 101 675 c 2
 77 675 l 1
 84 722 l 1
 351 736 l 1
330 408 m 0
 291 408 259 378 228 316 c 0
 197 253 171 154 171 104 c 0
 171 59 198 28 237 28 c 0
 276 28 314 67 347 141 c 0
 371 195 394 290 394 333 c 0
 394 376 367 408 330 408 c 0
EndSplineSet
EndChar

StartChar: c
Encoding: 99 99 66
Width: 537
VWidth: 1000
Flags: MW
HStem: -14 61<226 254> 431 47<310 343>
VStem: 3 165<114.5 172 113.5 254.5> 323 164<322 343>
LayerCount: 2
Fore
SplineSet
406 147 m 1
 442 116 l 1
 370 26 298 -14 210 -14 c 0
 84 -14 3 58 3 171 c 0
 3 338 146 478 316 478 c 0
 420 478 487 427 487 350 c 0
 487 294 453 257 401 257 c 0
 355 257 323 287 323 329 c 0
 323 357 333 373 361 390 c 0
 370 396 373 399 373 406 c 0
 373 421 355 431 331 431 c 0
 289 431 251 401 220 344 c 0
 190 289 168 203 168 141 c 0
 168 86 202 47 250 47 c 0
 298 47 347 78 406 147 c 1
EndSplineSet
EndChar

StartChar: d
Encoding: 100 100 67
Width: 667
VWidth: 1000
Flags: W
HStem: -14 70<205.5 206.5> 423 55<298.5 315.5 212 337>
VStem: 0 164<114 161.5 110.5 247.5>
LayerCount: 2
Fore
SplineSet
663 736 m 1
 484 132 l 1
 474 93 474 93 474 85 c 0
 474 77 481 69 488 69 c 0
 506 69 554 121 593 182 c 1
 632 157 l 1
 615 128 593 97 566 66 c 0
 517 11 472 -15 422 -15 c 0
 369 -15 337 15 336 64 c 1
 336 71 l 1
 281 8 239 -14 174 -14 c 0
 72 -14 0 61 0 167 c 0
 0 328 138 478 286 478 c 0
 345 478 386 458 411 416 c 1
 459 578 l 2
 470 615 474 634 474 644 c 0
 474 669 462 675 413 675 c 2
 381 675 l 1
 388 722 l 1
 663 736 l 1
319 423 m 0
 278 423 243 392 213 328 c 0
 184 267 164 188 164 135 c 0
 164 86 187 56 224 56 c 0
 263 56 299 89 329 153 c 0
 358 216 380 300 380 351 c 0
 380 393 355 423 319 423 c 0
EndSplineSet
EndChar

StartChar: e
Encoding: 101 101 68
Width: 519
VWidth: 1000
Flags: MW
HStem: -14 59<216.5 247.5> 432 47<281 325.5>
VStem: -2 159<111 143 108.5 253> 356 122<357.5 392.5 323 399.5>
LayerCount: 2
Fore
SplineSet
395 126 m 1
 430 91 l 1
 367 20 293 -14 202 -14 c 0
 70 -14 -2 51 -2 171 c 0
 -2 335 146 479 314 479 c 0
 408 479 478 427 478 358 c 0
 478 288 422 238 308 205 c 0
 261 191 218 184 159 181 c 1
 157 155 157 149 157 137 c 0
 157 80 190 45 243 45 c 0
 295 45 335 66 395 126 c 1
168 228 m 1
 201 233 218 237 238 244 c 0
 306 270 356 330 356 385 c 0
 356 414 339 432 312 432 c 0
 250 432 191 350 168 228 c 1
EndSplineSet
EndChar

StartChar: f
Encoding: 102 102 69
Width: 389
VWidth: 1000
Flags: MW
HStem: 403 61<51 133 34 149 295 406>
VStem: 404 146<604 624>
LayerCount: 2
Fore
SplineSet
422 464 m 1
 406 403 l 1
 281 403 l 1
 234 189 l 2
 204 48 168 -83 133 -179 c 1
 -48 -205 l 1
 -20 -161 21 -42 69 133 c 1
 133 403 l 1
 34 403 l 1
 51 464 l 1
 149 464 l 1
 176 561 201 614 241 658 c 0
 291 712 346 737 413 737 c 0
 493 737 550 691 550 627 c 0
 550 581 517 548 472 548 c 0
 433 548 404 576 404 614 c 0
 404 634 408 645 428 671 c 0
 431 674 433 678 433 680 c 0
 433 686 423 690 411 690 c 0
 363 690 341 651 305 505 c 2
 295 464 l 1
 422 464 l 1
EndSplineSet
EndChar

StartChar: g
Encoding: 103 103 70
Width: 611
VWidth: 1000
Flags: W
HStem: -202 47<137.5 226.5 137.5 262> 157 48<267 378> 408 125<537 551.5 508.5 564.5> 432 47<303 315.5 229 335>
VStem: -66 123<-108 -66> 69 153<284 296 254.5 355.5> 379 148<268.5 381.5>
LayerCount: 2
Fore
SplineSet
399 463 m 1xee
 448 512 487 533 530 533 c 0
 573 533 602 506 602 466 c 0
 602 432 580 408 549 408 c 0xee
 525 408 510 421 499 451 c 0
 494 463 489 468 482 468 c 0
 471 468 461 461 448 444 c 1
 499 414 527 368 527 314 c 0
 527 223 439 157 317 157 c 0
 298 157 235 162 200 167 c 0
 185 169 173 170 166 170 c 0
 139 170 119 156 119 139 c 0
 119 118 134 108 168 105 c 0
 258 96 322 88 346 83 c 0
 419 66 450 30 450 -35 c 0
 450 -143 352 -202 172 -202 c 0
 21 -202 -66 -161 -66 -91 c 0
 -66 -41 -26 -10 60 6 c 1
 15 30 0 51 0 86 c 0
 0 139 42 181 120 206 c 1
 84 236 69 264 69 304 c 0
 69 407 162 479 296 479 c 0xde
 335 479 363 475 399 463 c 1xee
317 432 m 0xde
 289 432 267 417 251 389 c 0
 233 357 222 315 222 277 c 0
 222 232 247 205 287 205 c 0
 315 205 338 221 353 253 c 0
 369 285 379 328 379 361 c 0
 379 402 353 432 317 432 c 0xde
141 -27 m 0
 85 -27 57 -46 57 -85 c 0
 57 -131 98 -155 177 -155 c 0
 276 -155 329 -131 329 -85 c 0
 329 -61 316 -48 285 -40 c 0
 261 -34 184 -27 141 -27 c 0
EndSplineSet
EndChar

StartChar: h
Encoding: 104 104 71
Width: 685
VWidth: 1000
Flags: W
HStem: 0 21<0 157 0 0>
VStem: 324 154<78 86 78 89> 415 151<364.5 375>
LayerCount: 2
Fore
SplineSet
376 736 m 1xc0
 266 366 l 1
 329 444 388 479 454 479 c 0
 519 479 566 436 566 376 c 0
 566 343 557 307 536 248 c 2
 489 120 l 2
 478 90 478 90 478 82 c 0
 478 74 485 66 492 66 c 0
 510 66 535 91 589 166 c 0
 592 169 595 173 598 177 c 1
 637 152 l 1
 559 32 499 -15 426 -15 c 0
 364 -15 324 20 324 76 c 0xc0
 324 102 327 114 345 163 c 2
 406 332 l 2
 412 348 415 361 415 368 c 0xa0
 415 382 400 395 386 395 c 0
 362 395 329 370 292 325 c 0
 249 273 223 221 195 127 c 2
 157 0 l 1
 0 0 l 1
 171 578 l 2
 184 619 187 634 187 644 c 0
 187 669 175 675 125 675 c 2
 101 675 l 1
 108 722 l 1
 376 736 l 1xc0
EndSplineSet
EndChar

StartChar: i
Encoding: 105 105 72
Width: 389
VWidth: 1000
Flags: W
HStem: 567 170<224.5 271>
LayerCount: 2
Fore
SplineSet
302 478 m 1
 197 122 l 2
 188 91 187 88 187 80 c 0
 187 71 194 64 203 64 c 0
 223 64 256 101 304 177 c 1
 343 149 l 1
 275 35 212 -15 136 -15 c 0
 76 -15 32 23 32 75 c 0
 32 94 34 105 47 149 c 2
 98 319 l 2
 109 356 113 375 113 386 c 0
 113 411 101 417 52 417 c 2
 28 417 l 1
 35 464 l 1
 302 478 l 1
248 737 m 0
 295 737 333 699 333 652 c 0
 333 605 295 567 247 567 c 0
 202 567 163 606 163 652 c 0
 163 699 201 737 248 737 c 0
EndSplineSet
EndChar

StartChar: j
Encoding: 106 106 73
Width: 370
VWidth: 1000
Flags: W
HStem: -202 49<-40 -15.5 -40 10.5> 567 170<272.5 319>
VStem: -170 152<-95 -65.5> 211 170<629 675.5>
LayerCount: 2
Fore
SplineSet
296 737 m 0
 343 737 381 699 381 652 c 0
 381 605 343 567 295 567 c 0
 250 567 211 606 211 652 c 0
 211 699 249 737 296 737 c 0
359 478 m 1
 240 75 l 2
 209 -28 193 -65 154 -112 c 1
 107 -171 45 -202 -24 -202 c 0
 -108 -202 -170 -155 -170 -90 c 0
 -170 -41 -138 -7 -92 -7 c 0
 -46 -7 -18 -36 -18 -82 c 0
 -18 -108 -23 -117 -46 -131 c 0
 -50 -133 -52 -137 -52 -141 c 0
 -52 -148 -45 -153 -35 -153 c 0
 4 -153 25 -119 60 0 c 2
 155 319 l 2
 166 357 170 375 170 386 c 0
 170 411 158 417 109 417 c 2
 77 417 l 1
 84 464 l 1
 359 478 l 1
EndSplineSet
EndChar

StartChar: k
Encoding: 107 107 74
Width: 648
VWidth: 1000
Flags: W
HStem: 0 21<-5 152 -5 -5> 197 60<273.5 286.5>
VStem: 444 137<357.5 364.5>
LayerCount: 2
Fore
SplineSet
371 736 m 1
 262 371 l 1
 340 452 391 479 463 479 c 0
 533 479 581 439 581 381 c 0
 581 334 549 291 489 258 c 0
 461 242 432 230 387 215 c 1
 433 189 443 167 450 84 c 0
 451 72 457 65 466 65 c 0
 489 65 517 100 541 158 c 1
 584 135 l 1
 533 30 479 -15 403 -15 c 0
 338 -15 301 24 301 93 c 0
 301 111 303 129 306 148 c 0
 309 162 310 173 310 181 c 0
 310 186 309 191 305 198 c 1
 297 197 289 197 284 197 c 0
 262 197 248 208 248 226 c 0
 248 244 263 257 284 257 c 0
 297 257 305 255 330 244 c 1
 406 269 444 305 444 351 c 0
 444 378 425 396 397 396 c 0
 361 396 326 372 280 316 c 0
 240 268 218 220 189 123 c 2
 152 0 l 1
 -5 0 l 1
 166 578 l 2
 178 619 182 634 182 644 c 0
 182 669 170 675 120 675 c 2
 97 675 l 1
 103 722 l 1
 371 736 l 1
EndSplineSet
EndChar

StartChar: l
Encoding: 108 108 75
Width: 389
VWidth: 1000
Flags: HW
LayerCount: 2
Fore
SplineSet
370 736 m 1
 188 122 l 1
 183 106 l 2
 180 96 178 85 178 80 c 0
 178 70 185 63 193 63 c 0
 215 63 260 110 300 176 c 1
 339 149 l 1
 318 111 288 74 253 41 c 0
 212 2 174 -15 128 -15 c 0
 67 -15 26 22 26 76 c 0
 26 99 31 125 49 182 c 1
 166 578 l 2
 177 615 181 633 181 644 c 0
 181 669 169 675 120 675 c 2
 96 675 l 1
 103 722 l 1
 370 736 l 1
EndSplineSet
EndChar

StartChar: m
Encoding: 109 109 76
Width: 944
VWidth: 1000
Flags: W
HStem: 0 21<9 165 9 9 298 456 298 298>
VStem: 399 161<368 374 368 377> 612 147<75.5 81.5 75.5 82> 699 147<364 377.5>
CounterMasks: 1 00
LayerCount: 2
Fore
SplineSet
289 478 m 1xd0
 260 356 l 1
 323 438 385 479 448 479 c 0
 485 479 520 462 542 435 c 1
 555 417 560 403 560 374 c 2
 560 368 l 1
 624 445 678 479 737 479 c 0
 802 479 846 437 846 375 c 0xd0
 846 345 839 311 824 269 c 2
 764 102 l 2
 761 93 759 84 759 79 c 0
 759 72 767 66 776 66 c 0
 795 66 810 82 876 170 c 1
 882 177 l 1
 920 150 l 1
 847 37 781 -14 709 -14 c 0
 655 -14 612 24 612 71 c 0xe0
 612 93 619 119 637 171 c 2
 686 311 l 2
 694 334 699 358 699 370 c 0
 699 385 689 394 673 394 c 0
 651 394 619 372 589 336 c 0
 551 290 524 230 489 111 c 2
 456 0 l 1
 298 0 l 1
 368 235 l 2
 388 303 399 350 399 370 c 0
 399 384 391 395 380 395 c 0
 360 395 330 370 296 326 c 1
 256 272 230 219 206 139 c 2
 165 0 l 1
 9 0 l 1
 104 319 l 2
 114 354 119 375 119 386 c 0
 119 411 107 417 58 417 c 2
 34 417 l 1
 41 464 l 1
 289 478 l 1xd0
EndSplineSet
EndChar

StartChar: n
Encoding: 110 110 77
Width: 685
VWidth: 1000
Flags: W
HStem: 0 21<3 160 3 3>
VStem: 329 154<78 86 78 89> 420 151<364.5 374.5>
LayerCount: 2
Fore
SplineSet
285 478 m 1xc0
 253 346 l 1
 328 442 385 479 458 479 c 0
 524 479 571 436 571 376 c 0
 571 343 563 309 540 248 c 2
 493 120 l 2
 483 90 483 90 483 82 c 0
 483 74 490 66 497 66 c 0
 515 66 541 92 594 166 c 1
 603 177 l 1
 642 152 l 1
 565 33 504 -15 431 -15 c 0
 369 -15 329 20 329 76 c 0xc0
 329 102 333 117 349 163 c 2
 411 332 l 2
 417 348 420 361 420 368 c 0xa0
 420 381 405 394 390 394 c 0
 366 394 333 370 295 325 c 0
 251 272 226 220 198 127 c 2
 160 0 l 1
 3 0 l 1
 98 319 l 2
 109 357 113 375 113 386 c 0
 113 411 101 417 52 417 c 2
 28 417 l 1
 35 464 l 1
 285 478 l 1xc0
EndSplineSet
EndChar

StartChar: o
Encoding: 111 111 78
Width: 574
VWidth: 1000
Flags: MW
HStem: -14 43<209 250.5 209 310.5> 432 47<298.5 339.5>
VStem: 10 155<83 266> 385 155<200.5 377.5>
LayerCount: 2
Fore
SplineSet
324 479 m 0
 385 479 445 459 484 425 c 0
 520 394 540 345 540 285 c 0
 540 116 401 -14 220 -14 c 0
 157 -14 105 4 70 37 c 0
 33 71 10 129 10 187 c 0
 10 345 154 479 324 479 c 0
320 432 m 0
 277 432 240 394 210 322 c 0
 184 259 165 168 165 108 c 0
 165 58 189 29 229 29 c 0
 272 29 308 64 335 134 c 0
 363 204 385 302 385 354 c 0
 385 401 359 432 320 432 c 0
EndSplineSet
EndChar

StartChar: p
Encoding: 112 112 79
Width: 648
VWidth: 1000
Flags: W
HStem: -15 58<273 294 256 378> 409 70<384 385>
VStem: 430 160<307.5 353 216 358>
LayerCount: 2
Fore
SplineSet
273 478 m 1
 257 399 l 1
 306 455 353 479 415 479 c 0
 522 479 590 408 590 298 c 0
 590 134 453 -15 303 -15 c 0
 243 -15 205 5 177 50 c 1
 143 -65 l 2
 127 -120 127 -120 127 -129 c 0
 127 -147 144 -155 184 -155 c 2
 199 -155 l 1
 192 -202 l 1
 -118 -202 l 1
 -111 -155 l 1
 -107 -155 l 2
 -80 -155 -52 -149 -44 -141 c 0
 -35 -133 -35 -133 -15 -65 c 2
 100 322 l 2
 110 355 115 375 115 386 c 0
 115 411 103 417 53 417 c 2
 29 417 l 1
 36 464 l 1
 273 478 l 1
366 409 m 0
 329 409 299 386 270 335 c 0
 239 280 206 169 206 117 c 0
 206 76 237 43 275 43 c 0
 313 43 344 68 372 122 c 0
 405 187 430 279 430 336 c 0
 430 380 404 409 366 409 c 0
EndSplineSet
EndChar

StartChar: q
Encoding: 113 113 80
Width: 630
VWidth: 1000
Flags: MW
HStem: -202 47<170 174 174 189 467 476 163 174> -15 70<115.5 240> 423 55<302.5 319.5 212.5 332.5>
VStem: 0 163<115 168>
LayerCount: 2
Fore
SplineSet
587 478 m 1
 426 -65 l 2
 416 -100 411 -120 411 -129 c 0
 411 -147 428 -155 467 -155 c 2
 482 -155 l 1
 476 -202 l 1
 163 -202 l 1
 170 -155 l 1
 174 -155 l 2
 204 -155 231 -149 240 -141 c 0
 248 -133 248 -133 269 -65 c 2
 302 46 l 1
 256 3 215 -15 165 -15 c 0
 66 -15 0 60 0 170 c 0
 0 331 138 478 287 478 c 0
 352 478 398 453 425 402 c 1
 513 478 l 1
 587 478 l 1
315 423 m 0
 290 423 263 407 243 381 c 0
 200 323 163 207 163 129 c 0
 163 86 188 55 223 55 c 0
 257 55 290 83 318 137 c 0
 349 198 376 300 376 356 c 0
 376 394 350 423 315 423 c 0
EndSplineSet
EndChar

StartChar: r
Encoding: 114 114 81
Width: 519
VWidth: 1000
Flags: W
HStem: 0 21<3 160 3 3> 308 171<433 459 398 470.5>
VStem: 379 145<380.5 392.5>
LayerCount: 2
Fore
SplineSet
285 478 m 1
 254 351 l 1
 316 444 365 479 431 479 c 0
 487 479 524 444 524 391 c 0
 524 344 492 308 449 308 c 0
 417 308 389 328 382 357 c 0
 380 365 379 373 379 388 c 0
 379 397 376 401 369 401 c 0
 361 401 344 390 329 375 c 0
 280 328 230 235 202 139 c 2
 160 0 l 1
 3 0 l 1
 98 319 l 2
 109 356 113 375 113 386 c 0
 113 411 101 417 52 417 c 2
 28 417 l 1
 35 464 l 1
 285 478 l 1
EndSplineSet
EndChar

StartChar: s
Encoding: 115 115 82
Width: 481
VWidth: 1000
Flags: W
HStem: -15 43<157 202 157 245.5> 432 47<241 281.5>
VStem: 2 141<99.5 122.5> 56 122<358 369> 270 129<100 110.5> 299 138<346.5 366>
LayerCount: 2
Fore
SplineSet
258 479 m 0xd4
 363 479 437 432 437 367 c 0
 437 326 409 297 368 297 c 0
 328 297 299 323 299 358 c 0
 299 374 301 379 317 399 c 0
 321 404 323 408 323 411 c 0
 323 422 296 432 267 432 c 0
 215 432 178 407 178 371 c 0xd4
 178 345 197 327 256 302 c 0
 297 284 310 278 331 264 c 0
 377 234 399 198 399 149 c 0
 399 51 311 -15 180 -15 c 0
 74 -15 2 32 2 101 c 0
 2 144 30 173 72 173 c 0
 112 173 143 146 143 109 c 0
 143 90 138 81 117 63 c 0
 114 60 112 57 112 54 c 0
 112 39 139 28 175 28 c 0
 229 28 270 57 270 97 c 0xe8
 270 124 254 141 212 158 c 0
 155 182 149 185 128 198 c 0
 78 228 56 266 56 320 c 0
 56 418 134 479 258 479 c 0xd4
EndSplineSet
EndChar

StartChar: t
Encoding: 116 116 83
Width: 407
VWidth: 1000
Flags: MW
HStem: 403 61<45 114 27 132 290 386>
LayerCount: 2
Fore
SplineSet
300 183 m 1
 337 156 l 1
 299 98 289 86 269 64 c 0
 220 12 170 -14 119 -14 c 0
 66 -14 24 23 24 69 c 0
 24 88 29 116 38 146 c 0
 41 155 45 168 49 183 c 2
 114 403 l 1
 27 403 l 1
 45 464 l 1
 132 464 l 1
 188 650 l 1
 345 650 l 1
 290 464 l 1
 404 464 l 1
 386 403 l 1
 272 403 l 1
 202 167 l 2
 190 126 181 91 181 84 c 0
 181 75 188 66 196 66 c 0
 216 66 262 117 300 183 c 1
EndSplineSet
EndChar

StartChar: u
Encoding: 117 117 84
Width: 685
VWidth: 1000
Flags: W
HStem: 444 20<46 46 439 597 597 597>
VStem: 38 150<88.5 96.5 88.5 108.5> 330 158<43 90.5>
LayerCount: 2
Fore
SplineSet
597 464 m 1
 504 152 l 2
 488 96 488 96 488 85 c 0
 488 78 495 71 502 71 c 0
 519 71 559 114 601 180 c 1
 639 152 l 1
 561 32 503 -14 427 -14 c 0
 363 -14 330 15 330 71 c 0
 330 79 330 87 331 97 c 1
 266 19 212 -14 148 -14 c 0
 82 -14 38 30 38 95 c 0
 38 122 42 142 59 198 c 2
 94 319 l 2
 106 358 110 376 110 386 c 0
 110 411 98 417 49 417 c 2
 39 417 l 1
 46 464 l 1
 299 478 l 1
 209 174 l 2
 206 166 202 150 197 133 c 0
 195 126 193 118 190 109 c 0
 189 103 188 98 188 95 c 0
 188 82 200 70 213 70 c 0
 239 70 287 109 323 159 c 0
 353 200 375 247 391 299 c 2
 439 464 l 1
 597 464 l 1
EndSplineSet
EndChar

StartChar: v
Encoding: 118 118 85
Width: 556
VWidth: 1000
Flags: MW
HStem: -15 71<250.5 255>
VStem: 58 151<110 123.5 98.5 145.5> 353 147<403 416.5 353.5 433.5>
LayerCount: 2
Fore
SplineSet
306 478 m 1
 233 230 l 1
 210 139 209 134 209 113 c 0
 209 84 236 56 265 56 c 0
 298 56 333 82 365 131 c 0
 404 190 426 250 426 294 c 0
 426 316 423 319 382 357 c 0
 361 377 353 392 353 414 c 0
 353 453 380 479 422 479 c 0
 469 479 500 443 500 390 c 0
 500 317 471 216 428 139 c 0
 372 39 297 -15 213 -15 c 0
 172 -15 131 0 101 26 c 0
 73 51 58 88 58 132 c 0
 58 159 62 185 70 211 c 2
 102 319 l 2
 116 366 118 376 118 386 c 0
 118 411 106 417 56 417 c 2
 32 417 l 1
 39 464 l 1
 306 478 l 1
EndSplineSet
EndChar

StartChar: w
Encoding: 119 119 86
Width: 833
VWidth: 1000
Flags: MW
HStem: -15 71<534 538> 444 20<29 29 430 587 587 587>
VStem: 22 157<98 109> 641 147<403 416.5 353.5 433.5>
LayerCount: 2
Fore
SplineSet
587 464 m 1
 518 230 l 1
 495 139 494 133 494 113 c 0
 494 84 520 56 548 56 c 0
 581 56 622 86 653 131 c 0
 691 188 714 250 714 296 c 0
 714 315 711 320 670 357 c 0
 649 376 641 392 641 414 c 0
 641 453 668 479 710 479 c 0
 757 479 788 443 788 390 c 0
 788 317 758 214 716 139 c 0
 659 39 581 -15 495 -15 c 0
 415 -15 362 27 345 103 c 1
 282 20 223 -15 143 -15 c 0
 65 -15 22 25 22 95 c 0
 22 123 26 142 42 198 c 2
 78 319 l 2
 90 360 94 376 94 386 c 0
 94 411 82 417 32 417 c 2
 22 417 l 1
 29 464 l 1
 283 478 l 1
 193 177 l 2
 184 144 179 122 179 108 c 0
 179 88 196 71 215 71 c 0
 251 71 288 98 318 145 c 0
 335 172 364 240 377 286 c 2
 430 464 l 1
 587 464 l 1
EndSplineSet
EndChar

StartChar: x
Encoding: 120 120 87
Width: 574
VWidth: 1000
Flags: MW
HStem: -14 143 338 141<487.5 514>
LayerCount: 2
Fore
SplineSet
212 134 m 1
 175 82 l 2
 133 22 79 -15 32 -15 c 0
 -15 -15 -49 16 -49 61 c 0
 -49 101 -22 129 18 129 c 0
 48 129 69 111 77 79 c 0
 79 71 82 68 86 68 c 0
 101 68 121 88 157 139 c 2
 198 196 l 1
 184 261 l 2
 162 363 155 379 136 379 c 0
 118 379 106 366 66 296 c 0
 65 295 63 291 60 286 c 1
 20 306 l 1
 36 339 52 366 75 395 c 0
 119 453 160 479 207 479 c 0
 266 479 297 441 317 344 c 1
 339 373 l 2
 400 454 435 479 490 479 c 0
 538 479 571 450 571 407 c 0
 571 367 543 338 506 338 c 0
 469 338 447 358 447 393 c 1
 446 401 444 405 438 405 c 0
 420 405 391 372 330 282 c 1
 346 200 l 1
 365 108 373 88 394 88 c 0
 416 88 443 124 469 189 c 1
 508 169 l 1
 495 133 476 97 451 62 c 0
 415 10 376 -15 329 -15 c 0
 298 -15 271 -2 252 22 c 0
 235 42 227 64 215 120 c 2
 212 134 l 1
EndSplineSet
EndChar

StartChar: y
Encoding: 121 121 88
Width: 519
VWidth: 1000
Flags: MW
HStem: -202 164<8 25 -16 67>
VStem: -66 140<-106 -89.5> 353 139<403.5 432>
LayerCount: 2
Fore
SplineSet
270 333 m 2
 326 143 l 1
 376 227 393 267 393 301 c 0
 393 320 390 328 374 354 c 1
 359 376 353 394 353 413 c 0
 353 451 383 479 424 479 c 0
 466 479 492 455 492 417 c 0
 492 360 433 226 345 83 c 0
 285 -16 231 -89 181 -139 c 0
 140 -181 94 -202 40 -202 c 0
 -24 -202 -66 -166 -66 -111 c 0
 -66 -68 -37 -38 5 -38 c 0
 45 -38 74 -65 74 -102 c 0
 74 -110 73 -117 68 -130 c 0
 67 -132 67 -135 67 -136 c 0
 67 -141 73 -146 80 -146 c 0
 107 -146 155 -107 190 -58 c 2
 219 -18 l 1
 119 320 l 2
 108 357 103 365 90 365 c 0
 72 365 64 348 36 258 c 1
 -7 271 l 1
 26 412 78 479 155 479 c 0
 189 479 218 461 233 432 c 0
 244 411 261 365 270 333 c 2
EndSplineSet
EndChar

StartChar: z
Encoding: 122 122 89
Width: 519
VWidth: 1000
Flags: MW
HStem: -15 151<188 306.5> 328 151<169 283>
LayerCount: 2
Fore
SplineSet
416 169 m 1
 460 153 l 1
 426 45 354 -15 259 -15 c 0
 206 -15 178 -5 86 49 c 0
 75 55 70 57 65 57 c 0
 56 57 51 48 51 28 c 0
 50 2 36 -15 13 -15 c 0
 -5 -15 -19 0 -19 19 c 0
 -19 44 2 79 47 131 c 0
 104 195 148 230 224 271 c 0
 272 296 304 312 307 314 c 0
 313 318 331 329 350 342 c 1
 320 332 298 328 268 328 c 0
 245 328 235 329 178 338 c 0
 148 343 134 345 122 345 c 0
 90 345 81 337 58 286 c 1
 16 301 l 1
 57 419 124 479 214 479 c 0
 254 479 288 468 348 436 c 0
 372 423 385 418 392 418 c 0
 402 418 407 426 413 450 c 0
 419 470 427 479 441 479 c 0
 457 479 471 464 471 446 c 0
 471 410 428 347 358 280 c 0
 311 236 292 224 174 163 c 0
 146 149 135 142 110 126 c 1
 156 134 176 136 200 136 c 0
 231 136 260 131 295 121 c 0
 342 107 342 107 350 107 c 0
 376 107 396 126 416 169 c 1
EndSplineSet
EndChar

StartChar: braceleft
Encoding: 123 123 90
Width: 389
VWidth: 1000
Flags: HMW
HStem: 676 46<343 343>
VStem: 160 123<42 64 64 152 152 182 462 550 550 572 572 605>
LayerCount: 2
Fore
SplineSet
83.3652 285 m 1
 95.1553 329 l 1
 139.835 339 157.515 349 175.48 375 c 0
 187.036 392 190.716 402 206.793 462 c 2
 236.267 572 l 2
 253.951 638 273.598 674 305.225 695 c 0
 327.512 711 370.459 722 407.459 722 c 2
 459.459 722 l 1
 447.134 676 l 1
 401.062 672 380.971 653 368.377 606 c 2
 353.372 550 l 1
 321.754 432 l 2
 301.122 355 270.619 327 186.261 307 c 1
 259.901 287 275.398 259 254.767 182 c 2
 223.148 64 l 2
 200.105 -22 200.105 -22 205.086 -37 c 0
 210.799 -53 222.191 -59 249.387 -62 c 1
 237.062 -108 l 1
 185.062 -108 l 2
 148.062 -108 111.009 -97 97.2959 -81 c 0
 76.9229 -60 76.5693 -24 94.2539 42 c 2
 123.729 152 l 2
 141.413 218 143.093 228 137.184 247 c 0
 130.542 267 118.686 275 83.3652 285 c 1
EndSplineSet
EndChar

StartChar: bar
Encoding: 124 124 91
Width: 606
VWidth: 1000
Flags: HMW
HStem: 0 20 702 20<243 362 362 362>
VStem: 243 119<0 722>
LayerCount: 2
Fore
SplineSet
478.459 722 m 1
 285 0 l 1
 166 0 l 1
 359.459 722 l 1
 478.459 722 l 1
EndSplineSet
EndChar

StartChar: braceright
Encoding: 125 125 92
Width: 389
VWidth: 1000
Flags: HMW
HStem: 676 46<31 31>
VStem: 93 123<64 152 432 462 462 550 550 572>
LayerCount: 2
Fore
SplineSet
301.155 329 m 1
 289.365 285 l 1
 245.686 275 228.007 265 211.04 239 c 0
 199.217 221 195.806 212 179.729 152 c 2
 150.254 42 l 2
 132.569 -24 112.923 -60 81.2959 -81 c 0
 59.0088 -97 16.0615 -108 -20.9385 -108 c 2
 -74.9385 -108 l 1
 -62.6133 -62 l 1
 -32.8086 -59 -18.2012 -53 -3.91406 -37 c 0
 10.1055 -22 10.1055 -22 33.1484 64 c 2
 64.7666 182 l 2
 85.3984 259 115.901 287 200.261 307 c 1
 126.619 327 111.122 355 131.754 432 c 2
 163.372 550 l 1
 178.377 606 l 2
 190.971 653 180.062 672 135.134 676 c 1
 147.459 722 l 1
 201.459 722 l 2
 238.459 722 275.512 711 289.225 695 c 0
 309.598 674 309.951 638 292.267 572 c 2
 262.793 462 l 2
 245.376 397 243.429 386 249.337 367 c 0
 254.979 347 266.566 338 301.155 329 c 1
EndSplineSet
EndChar

StartChar: asciitilde
Encoding: 126 126 93
Width: 606
VWidth: 1000
Flags: HW
HStem: 160 114<399.5 415.5> 221 114<190.5 206.5>
LayerCount: 2
Fore
SplineSet
103.283 169 m 1x40
 33.4844 222 l 1
 93.5811 297 152.763 335 207.763 335 c 0x40
 230.763 335 251.155 329 291.601 312 c 2
 339.509 293 l 2
 377.954 276 385.418 274 400.418 274 c 0
 423.418 274 442.634 286 481.352 326 c 1
 551.15 273 l 1
 490.054 198 431.872 160 376.872 160 c 0x80
 353.872 160 333.212 165 293.035 183 c 1
 245.126 202 l 2
 206.681 219 199.217 221 184.217 221 c 0
 161.217 221 142.001 209 103.283 169 c 1x40
EndSplineSet
EndChar

StartChar: sterling
Encoding: 163 163 94
Width: 574
VWidth: 1000
Flags: HW
HStem: -15 100<358 380> 307 65<34 108 251 459> 651 53<317 343>
VStem: 85 151<496 526> 369 174<526 548>
LayerCount: 2
Back
SplineSet
459 378 m 1
 459 318 l 1
 313 318 l 1
 316 295 317 284 317 273 c 0
 317 230 306 191 280 139 c 1
 319 125 354 119 392 119 c 0
 455 119 490 143 510 200 c 1
 561 186 l 1
 537 57 474 -14 384 -14 c 0
 331 -14 283 6 231 50 c 1
 200 5 165 -14 117 -14 c 0
 59 -14 19 23 19 77 c 0
 19 132 65 174 126 174 c 0
 148 174 166 171 196 161 c 1
 197 171 197 179 197 184 c 0
 197 220 179 283 158 318 c 1
 34 318 l 1
 34 378 l 1
 136 378 l 1
 118 431 112 462 112 500 c 0
 112 620 211 708 345 708 c 0
 460 708 543 641 543 548 c 4
 543 491 503 449 448 449 c 4
 403 449 369 482 369 526 c 4
 369 554 381 573 409 588 c 4
 429 599 433 603 433 612 c 4
 433 636 398 656 357 656 c 0
 303 656 265 619 265 566 c 0
 265 528 277 472 304 378 c 1
 459 378 l 1
182 92 m 1
 156 115 140 122 116 122 c 0
 88 122 69 104 69 79 c 0
 69 55 88 38 113 38 c 0
 146 38 166 54 182 92 c 1
EndSplineSet
Fore
SplineSet
519.985 612 m 4
 526.684 637 499.435 651 438.435 651 c 4
 379.435 651 316.877 593.984 295.118 508 c 0
 281.041 452.367 279.158 415.824 274.181 372 c 1
 481.677 372 l 1
 464.261 307 l 1
 264.322 307 l 1
 246.067 215.669 210.189 132.866 122.024 71 c 1
 211.579 88 253.49 85.7051 304.775 85 c 0
 377.508 84 439.102 131 488.59 200 c 1
 533.57 185 l 1
 473.201 53 390.98 -15 296.98 -15 c 0
 246.98 -15 116.02 15 -30.1436 -8 c 1
 -18.3154 66 l 1
 67.4453 118.718 102.022 216.839 113.792 307 c 1
 39.2607 307 l 1
 56.6768 372 l 1
 119.814 372 l 1
 124.529 419.304 132.83 465.874 143.582 506 c 0
 175.2 624 290.495 704 428.948 704 c 4
 567.637 704 640.703 652 612.836 548 c 4
 597.563 491 546.31 449 491.31 449 c 4
 446.31 449 421.151 482 432.941 526 c 4
 440.443 554 457.535 573 489.554 588 c 4
 512.502 599 517.573 603 519.985 612 c 4
EndSplineSet
EndChar

StartChar: uni0591
Encoding: 1425 1425 95
Width: 0
VWidth: 1000
Flags: HW
VStem: -35.2939 70.5888<-137 -60>
LayerCount: 2
Back
SplineSet
91.7646 -140.992 m 1
 91.7646 -60 l 1
 148.235 -60 l 1
 148.235 -140.992 l 1
 200.865 -153.7 240 -201.132 240 -257.647 c 1
 183.529 -257.647 l 1
 183.529 -222.579 155.068 -194.118 120 -194.118 c 0
 84.9316 -194.118 56.4707 -222.579 56.4707 -257.647 c 1
 0 -257.647 l 1
 0 -201.132 39.1348 -153.7 91.7646 -140.992 c 1
EndSplineSet
Fore
SplineSet
-148.617 -135.562 m 5
 -128.371 -60 l 5
 -57.7822 -60 l 5
 -78.0293 -135.562 l 5
 -29.1475 -150.867 -3.46582 -199.756 -18.9775 -257.647 c 4
 -89.5654 -257.647 l 4
 -81.2129 -226.476 -99.7334 -201.177 -130.904 -201.177 c 4
 -162.077 -201.177 -194.154 -226.476 -202.507 -257.647 c 4
 -273.096 -257.647 l 5
 -257.583 -199.756 -205.702 -150.867 -148.617 -135.562 c 5
EndSplineSet
EndChar

StartChar: uni0592
Encoding: 1426 1426 96
Width: 0
VWidth: 1070
Flags: HW
LayerCount: 2
Back
SplineSet
99.999 780 m 0
 77.9189 780 59.999 797.919 59.999 819.998 c 0
 59.999 842.079 77.9189 859.998 99.999 859.998 c 0
 122.082 859.998 140 842.079 140 819.998 c 0
 140 797.919 122.082 780 99.999 780 c 0
40.002 660 m 0
 17.9199 660 0 677.92 0 700 c 0
 0 722.078 17.9199 740 40.002 740 c 0
 62.0811 740 80.001 722.078 80.001 700 c 0
 80.001 677.92 62.0811 660 40.002 660 c 0
159.999 660 m 0
 137.919 660 119.999 677.92 119.999 700 c 0
 119.999 722.078 137.919 740 159.999 740 c 0
 182.081 740 200 722.078 200 700 c 0
 200 677.92 182.081 660 159.999 660 c 0
EndSplineSet
Fore
SplineSet
126.873 771.843 m 0
 102.542 771.843 88.0859 791.59 94.6064 815.922 c 0
 101.126 840.253 126.164 860 150.495 860 c 0
 174.826 860 189.282 840.253 182.763 815.922 c 0
 176.242 791.59 151.204 771.843 126.873 771.843 c 0
43.9639 660 m 0
 19.5898 660 5.1084 679.782 11.6396 704.157 c 0
 18.1699 728.531 43.2529 748.312 67.627 748.312 c 0
 92.002 748.312 106.483 728.531 99.9531 704.157 c 0
 93.4219 679.782 68.3389 660 43.9639 660 c 0
155.729 660 m 0
 131.354 660 116.873 679.782 123.404 704.157 c 0
 129.935 728.531 155.018 748.312 179.392 748.312 c 0
 203.767 748.312 218.248 728.531 211.717 704.157 c 0
 205.186 679.782 180.104 660 155.729 660 c 0
EndSplineSet
EndChar

StartChar: uni0593
Encoding: 1427 1427 97
Width: 0
VWidth: 1000
Flags: HW
LayerCount: 2
Back
SplineSet
98.8242 914.117 m 1
 183.529 871.765 l 1
 98.8242 829.411 l 1
 183.529 787.059 l 1
 98.8242 744.705 l 1
 183.529 702.353 l 1
 98.8242 660 l 1
 49.4121 684.705 l 1
 84.7051 702.353 l 1
 0 744.705 l 1
 84.7051 787.059 l 1
 0 829.411 l 1
 84.7051 871.765 l 1
 49.4121 889.411 l 1
 98.8242 914.117 l 1
EndSplineSet
Fore
SplineSet
175.185 914.823 m 1
 247.312 867.882 l 1
 165.944 827.646 l 1
 225.751 787.412 l 1
 144.382 747.177 l 1
 204.188 706.941 l 1
 106.905 660 l 1
 62.0508 690.177 l 1
 91.2471 706.941 l 1
 31.4404 747.177 l 1
 112.81 787.412 l 1
 53.0029 827.646 l 1
 134.371 867.882 l 1
 114.158 884.646 l 1
 175.185 914.823 l 1
EndSplineSet
EndChar

StartChar: uni0594
Encoding: 1428 1428 98
Width: 0
VWidth: 1000
Flags: HW
LayerCount: 2
Back
SplineSet
40 740 m 4
 62.0781 740 80.001 722.08 80.001 700.002 c 4
 80.001 677.923 62.0781 660 40 660 c 4
 17.9229 660 -0 677.923 -0 700.002 c 4
 -0 722.08 17.9229 740 40 740 c 4
40 859.998 m 4
 62.0781 859.998 80.001 842.078 80.001 819.998 c 4
 80.001 797.92 62.0781 779.998 40 779.998 c 4
 17.9229 779.998 -0 797.92 -0 819.998 c 4
 -0 842.078 17.9229 859.998 40 859.998 c 4
EndSplineSet
Fore
SplineSet
123.469 748.157 m 0
 147.8 748.157 162.255 728.41 155.735 704.078 c 0
 149.216 679.747 124.179 660 99.8477 660 c 0
 75.5156 660 61.0596 679.747 67.5791 704.078 c 0
 74.0986 728.41 99.1367 748.157 123.469 748.157 c 0
153.438 860 m 0
 177.812 860 192.292 840.218 185.761 815.843 c 0
 179.229 791.469 154.148 771.688 129.774 771.688 c 0
 105.399 771.688 90.917 791.469 97.4482 815.843 c 0
 103.979 840.218 129.062 860 153.438 860 c 0
EndSplineSet
EndChar

StartChar: uni0595
Encoding: 1429 1429 99
Width: 0
VWidth: 1000
Flags: HW
VStem: -105.077 69.9999<660 864>
LayerCount: 2
Back
SplineSet
44.1572 -171.843 m 4
 68.4883 -171.843 88.2344 -191.59 88.2344 -215.922 c 4
 88.2344 -240.253 68.4883 -260 44.1572 -260 c 4
 19.8252 -260 0.078125 -240.253 0.078125 -215.922 c 4
 0.078125 -191.59 19.8252 -171.843 44.1572 -171.843 c 4
44.1572 -60 m 4
 68.5312 -60 88.3125 -79.7822 88.3125 -104.157 c 4
 88.3125 -128.531 68.5312 -148.313 44.1572 -148.313 c 4
 19.7822 -148.313 0 -128.531 0 -104.157 c 4
 0 -79.7822 19.7822 -60 44.1572 -60 c 4
0 864 m 1
 60.002 863.934 l 1
 60.002 660 l 1
 0 660.067 l 1
 0 864 l 1
148.002 740 m 0
 170.08 740 188.003 722.08 188.003 700.002 c 0
 188.003 677.923 170.08 660 148.002 660 c 0
 125.925 660 108.002 677.923 108.002 700.002 c 0
 108.002 722.08 125.925 740 148.002 740 c 0
148.002 859.998 m 0
 170.08 859.998 188.003 842.078 188.003 819.998 c 0
 188.003 797.92 170.08 779.998 148.002 779.998 c 0
 125.925 779.998 108.002 797.92 108.002 819.998 c 0
 108.002 842.078 125.925 859.998 148.002 859.998 c 0
EndSplineSet
Fore
SplineSet
49.4307 864 m 1
 119.431 864 l 257
 64.7695 660 l 1
 -5.23047 660 l 1
 49.4307 864 l 1
184.391 748.157 m 0
 208.722 748.157 223.176 728.41 216.656 704.078 c 0
 210.137 679.747 185.101 660 160.77 660 c 0
 136.438 660 121.981 679.747 128.501 704.078 c 0
 135.021 728.41 160.059 748.157 184.391 748.157 c 0
214.359 860 m 0
 238.733 860 253.213 840.218 246.682 815.843 c 0
 240.15 791.469 215.07 771.688 190.696 771.688 c 0
 166.321 771.688 151.839 791.469 158.37 815.843 c 0
 164.901 840.218 189.984 860 214.359 860 c 0
EndSplineSet
EndChar

StartChar: uni0596
Encoding: 1430 1430 100
Width: 0
VWidth: 1000
Flags: HW
LayerCount: 2
Back
SplineSet
127.256 -236.471 m 1
 99.0205 -271.766 l 1
 34.3252 -221.751 0 -151.827 0 -70.0537 c 0
 0 -66.5195 0.0585938 -63.5312 0.198242 -60 c 1
 56.668 -60 l 1
 59.2207 -128.072 82.1592 -185.417 127.256 -236.471 c 1
EndSplineSet
Fore
SplineSet
-121.485 -271.766 m 1
 -172.779 -221.751 -188.369 -151.827 -166.458 -70.0537 c 0
 -165.512 -66.5195 -164.652 -63.5312 -163.566 -60 c 0
 -92.9785 -60 l 1
 -108.665 -128.072 -101.093 -185.417 -69.6748 -236.471 c 1
 -121.485 -271.766 l 1
EndSplineSet
EndChar

StartChar: uni0597
Encoding: 1431 1431 101
Width: 0
VWidth: 1000
Flags: HW
LayerCount: 2
Back
SplineSet
0 754.117 m 1
 70.5889 848.235 l 5
 141.177 754.117 l 1
 70.5889 660 l 1
 0 754.117 l 1
EndSplineSet
Fore
SplineSet
30.9482 754.117 m 5
 150.284 848.235 l 5
 219.183 754.117 l 5
 99.8467 660 l 5
 30.9482 754.117 l 5
EndSplineSet
EndChar

StartChar: uni0598
Encoding: 1432 1432 102
Width: 0
VWidth: 1000
Flags: HW
HStem: 654.177 58.823<65 73> 754.177 58.823<-73 -66>
VStem: -167.566 58.824<702.213 719> 108.742 58.824<749 756>
LayerCount: 2
Back
SplineSet
260.5 800 m 1
 310.033 800 l 1
 312.31 795 322.235 777.591 322.235 753.742 c 0
 322.235 701.996 280.239 660 228.494 660 c 0
 186.41 660 150.775 687.778 138.935 725.985 c 0
 132.985 745.409 115.01 759.601 93.7402 759.601 c 0
 67.8682 759.601 46.8701 738.603 46.8701 712.729 c 0
 46.8701 697.227 58 675 66 664 c 1
 13.6592 664 l 1
 7.05797 677 0 690.206 0 712.729 c 0
 0 764.475 41.9961 806.471 93.7402 806.471 c 0
 136.724 806.471 173.137 777.908 184.183 738.436 c 0
 190.531 720.071 207.98 706.871 228.494 706.871 c 0
 254.366 706.871 275.364 727.869 275.364 753.742 c 0
 275.364 768.766 269 787.679 260.5 800 c 1
EndSplineSet
Fore
SplineSet
13.1631 660 m 9
 -52.5205 660 l 17
 -58.0322 675.369 -58.7334 693.538 -53.5186 713 c 0
 -38.7275 768.2 18.0771 813 73.2764 813 c 0
 118.576 813 148.846 783.08 150.052 741.75 c 0
 150.861 725.088 163.214 713 181.614 713 c 0
 204.344 713 227.732 731.447 233.823 754.177 c 0
 239.913 776.906 233.265 791 227.516 805 c 9
 292.391 805 l 17
 297.215 790.104 297.618 772.729 292.647 754.177 c 0
 277.856 698.977 221.052 654.177 165.853 654.177 c 0
 120.893 654.177 90.7949 683.896 89.168 724.75 c 0
 88.5996 741.761 76.1611 754.177 57.5146 754.177 c 0
 34.7861 754.177 11.3965 735.729 5.30566 713 c 128
 -0.78418 690.271 8.04785 674.5 13.1631 660 c 9
EndSplineSet
EndChar

StartChar: uni0599
Encoding: 1433 1433 103
Width: 0
VWidth: 1000
Flags: HW
LayerCount: 2
Fore
SplineSet
128.255 871.766 m 1
 179.549 821.751 195.139 751.827 173.228 670.054 c 0
 172.281 666.52 171.422 663.531 170.336 660 c 0
 99.748 660 l 1
 115.435 728.072 107.862 785.417 76.4443 836.471 c 1
 128.255 871.766 l 1
EndSplineSet
EndChar

StartChar: uni059A
Encoding: 1434 1434 104
Width: 0
VWidth: 1000
Flags: HW
DStem2: -127.411 -158.824 6.70605 -158.824 0.884917 0.465749<118.682 212.183> 6.70605 -158.824 -127.411 -158.824 0.884919 -0.465745<0 93.5>
LayerCount: 2
Back
SplineSet
197.646 -60 m 5
 254.117 -88.2354 l 5
 112.941 -158.823 l 5
 254.117 -229.412 l 5
 197.646 -257.647 l 5
 0 -158.823 l 5
 197.646 -60 l 5
EndSplineSet
Fore
SplineSet
-32.7236 -60 m 1
 24.877 -95.2949 l 1
 -112.851 -158.824 l 1
 -9.16895 -222.354 l 1
 -85.6826 -257.647 l 1
 -246.968 -158.824 l 1
 -32.7236 -60 l 1
EndSplineSet
EndChar

StartChar: uni059B
Encoding: 1435 1435 105
Width: 0
VWidth: 1000
Flags: HW
LayerCount: 2
Back
SplineSet
40 -60 m 0
 62.0781 -60 80.001 -77.9199 80.001 -100 c 0
 80.001 -122.078 62.0781 -140.001 40 -140.001 c 0
 17.9229 -140.001 0 -122.078 0 -100 c 0
 0 -77.9199 17.9229 -60 40 -60 c 0
70.4121 -236.471 m 1
 115.509 -185.417 138.447 -128.072 141 -60 c 1
 197.47 -60 l 1
 197.609 -63.5312 197.668 -66.5195 197.668 -70.0537 c 0
 197.668 -151.827 163.343 -221.751 98.6475 -271.766 c 1
 70.4121 -236.471 l 1
EndSplineSet
Fore
SplineSet
-150.812 -60 m 0
 -126.438 -60 -111.958 -79.7822 -118.489 -104.157 c 0
 -125.02 -128.531 -150.102 -148.313 -174.476 -148.313 c 0
 -198.851 -148.313 -213.333 -128.531 -206.802 -104.157 c 0
 -200.271 -79.7822 -175.188 -60 -150.812 -60 c 0
-146.947 -271.766 m 1
 -179.844 -236.471 l 1
 -121.066 -185.417 -82.7627 -128.072 -61.9697 -60 c 1
 8.61816 -60 l 0
 7.81152 -63.5312 7.06934 -66.5195 6.12207 -70.0537 c 0
 -15.7891 -151.827 -68.8506 -221.751 -146.947 -271.766 c 1
EndSplineSet
EndChar

StartChar: uni059C
Encoding: 1436 1436 106
Width: 0
VWidth: 1000
Flags: HW
LayerCount: 2
Fore
SplineSet
184.923 871.766 m 1
 217.819 836.471 l 1
 159.042 785.417 120.737 728.072 99.9453 660 c 1
 29.3574 660 l 0
 30.1641 663.531 30.9062 666.52 31.8525 670.054 c 0
 53.7637 751.827 106.826 821.751 184.923 871.766 c 1
EndSplineSet
EndChar

StartChar: uni059D
Encoding: 1437 1437 107
Width: 0
VWidth: 1000
Flags: HW
LayerCount: 2
Fore
SplineSet
184.923 871.766 m 1
 217.819 836.471 l 1
 159.042 785.417 120.737 728.072 99.9453 660 c 1
 29.3574 660 l 0
 30.1641 663.531 30.9062 666.52 31.8525 670.054 c 0
 53.7637 751.827 106.826 821.751 184.923 871.766 c 1
EndSplineSet
EndChar

StartChar: uni059E
Encoding: 1438 1438 108
Width: 0
VWidth: 1000
Flags: HW
LayerCount: 2
Back
SplineSet
250.588 836.471 m 5
 205.491 785.417 182.553 728.072 180 660 c 5
 123.53 660 l 5
 123.391 663.531 123.332 666.52 123.332 670.054 c 4
 123.332 751.827 157.657 821.751 222.353 871.766 c 5
 250.588 836.471 l 5
127.256 836.471 m 1
 82.1592 785.417 59.2207 728.072 56.668 660 c 1
 0.198242 660 l 1
 0.0585938 663.531 0 666.52 0 670.054 c 0
 0 751.827 34.3252 821.751 99.0205 871.766 c 1
 127.256 836.471 l 1
EndSplineSet
Fore
SplineSet
252.923 871.766 m 1
 285.819 836.471 l 1
 227.042 785.417 188.737 728.072 167.945 660 c 1
 97.3574 660 l 0
 98.1641 663.531 98.9062 666.52 99.8525 670.054 c 0
 121.764 751.827 174.826 821.751 252.923 871.766 c 1
116.923 871.766 m 1
 149.819 836.471 l 1
 91.042 785.417 52.7373 728.072 31.9453 660 c 1
 -38.6426 660 l 0
 -37.8359 663.531 -37.0947 666.52 -36.1475 670.054 c 0
 -14.2363 751.827 38.8262 821.751 116.923 871.766 c 1
EndSplineSet
EndChar

StartChar: uni059F
Encoding: 1439 1439 109
Width: 0
VWidth: 1000
Flags: HW
HStem: 695.294 49.412<-137 -133 132 140> 801.177 49.412<-137 -133 132 140>
VStem: -212.044 49.412<770 774> -106.161 49.411<770 774> 56.75 49.411<770 774> 162.632 49.412<770 774>
DStem2: -64.751 738.59 -100.045 703.295 0.707106 -0.707108<0.000810623 61.2292> 21.4551 695.294 56.75 660 0.707106 0.707108<0.000558853 61.2289>
LayerCount: 2
Back
SplineSet
346.412 815.294 m 0
 323.033 815.294 304.06 796.32 304.06 772.941 c 0
 304.06 749.562 323.033 730.588 346.412 730.588 c 0
 369.791 730.588 388.766 749.562 388.766 772.941 c 0
 388.766 796.32 369.791 815.294 346.412 815.294 c 0
307.469 705.763 m 1
 261.706 660 l 1
 233.471 688.235 l 1
 279.233 733.997 l 1
 272.578 745.447 268.766 758.752 268.766 772.941 c 0
 268.766 815.803 303.551 850.588 346.412 850.588 c 0
 389.273 850.588 424.061 815.803 424.061 772.941 c 0
 424.061 730.08 389.273 695.294 346.412 695.294 c 0
 332.223 695.294 318.92 699.106 307.469 705.763 c 1
77.6475 815.294 m 0
 54.2686 815.294 35.2939 796.32 35.2939 772.941 c 0
 35.2939 749.562 54.2686 730.588 77.6475 730.588 c 0
 101.026 730.588 120 749.562 120 772.941 c 0
 120 796.32 101.026 815.294 77.6475 815.294 c 0
116.591 705.763 m 1
 105.141 699.106 91.8369 695.294 77.6475 695.294 c 0
 34.7861 695.294 0 730.08 0 772.941 c 0
 0 815.803 34.7861 850.588 77.6475 850.588 c 0
 120.509 850.588 155.294 815.803 155.294 772.941 c 0
 155.294 758.752 151.481 745.447 144.826 733.997 c 1
 190.589 688.235 l 1
 162.354 660 l 1
 116.591 705.763 l 1
EndSplineSet
Fore
SplineSet
272.07 801.177 m 0
 256.484 801.177 240.446 788.527 236.27 772.941 c 128
 232.094 757.355 241.354 744.706 256.939 744.706 c 128
 272.525 744.706 288.564 757.355 292.741 772.941 c 128
 296.917 788.527 287.656 801.177 272.07 801.177 c 0
211.492 703.295 m 1
 156.597 660 l 1
 130.759 695.294 l 1
 185.655 738.59 l 1
 183.309 748.948 183.555 760.61 186.859 772.941 c 0
 198.344 815.803 242.45 850.589 285.311 850.589 c 0
 328.173 850.589 353.638 815.803 342.153 772.941 c 0
 330.668 730.08 286.562 695.294 243.699 695.294 c 0
 231.368 695.294 220.478 698.173 211.492 703.295 c 1
3.27832 801.177 m 0
 -12.3076 801.177 -28.3467 788.527 -32.5234 772.941 c 128
 -36.6992 757.355 -27.4385 744.706 -11.8525 744.706 c 0
 3.73242 744.706 19.7715 757.355 23.9482 772.941 c 128
 28.124 788.527 18.8633 801.177 3.27832 801.177 c 0
11.4023 703.295 m 1
 -0.328125 698.173 -12.7617 695.294 -25.0928 695.294 c 0
 -67.9541 695.294 -93.4199 730.08 -81.9355 772.941 c 0
 -70.4502 815.803 -26.3438 850.589 16.5186 850.589 c 0
 59.3799 850.589 84.8438 815.803 73.3594 772.941 c 0
 70.0547 760.61 64.0508 748.948 56.1533 738.59 c 1
 87.8486 695.294 l 1
 43.0967 660 l 1
 11.4023 703.295 l 1
EndSplineSet
EndChar

StartChar: uni05A0
Encoding: 1440 1440 110
Width: 0
VWidth: 1000
Flags: HW
HStem: 695.294 49.412<15 19> 801.177 49.412<15 19>
VStem: -60 49.4111<770 774> 45.8828 49.4121<770 774>
DStem2: -95.2949 695.294 -60 660 0.707106 0.707108<0.000558853 61.2289>
LayerCount: 2
Fore
SplineSet
155.321 801.177 m 0
 139.735 801.177 123.696 788.527 119.52 772.941 c 128
 115.344 757.355 124.604 744.706 140.189 744.706 c 0
 155.775 744.706 171.815 757.355 175.992 772.941 c 128
 180.168 788.527 170.907 801.177 155.321 801.177 c 0
94.7422 703.295 m 1
 39.8467 660 l 1
 14.0088 695.294 l 1
 68.9053 738.59 l 1
 66.5586 748.948 66.8047 760.61 70.1094 772.941 c 0
 81.5938 815.803 125.7 850.589 168.562 850.589 c 0
 211.424 850.589 236.889 815.803 225.404 772.941 c 0
 213.919 730.08 169.812 695.294 126.95 695.294 c 0
 114.619 695.294 103.729 698.173 94.7422 703.295 c 1
EndSplineSet
EndChar

StartChar: uni05A1
Encoding: 1441 1441 111
Width: 0
VWidth: 1000
Flags: HW
HStem: 709.078 59.422<-23 -12>
VStem: -92.8242 69.8242<660 710 767 827> 34 58.8242<819 827>
LayerCount: 2
Back
SplineSet
56.4707 707.059 m 9
 56.4727 660 l 1
 0.00195312 660 l 1
 0 826.765 l 1
 56.4707 826.765 l 1
 56.5 764 l 17
 91.5684 764 120 791.99 120 827.059 c 1
 176.471 827.059 l 1
 176.471 760.818 122.711 707.059 56.4707 707.059 c 9
EndSplineSet
Fore
SplineSet
89.9971 709.078 m 1
 76.8467 660 l 1
 7.02246 660 l 1
 51.7695 827 l 1
 121.594 827 l 1
 105.896 768.5 l 1
 108.922 767.807 112.157 767.441 115.576 767.441 c 0
 141.553 767.441 171.482 801.117 178.594 827 c 0
 237.418 827 l 0
 221.758 768.553 158.262 708.617 99.8145 708.617 c 0
 96.4619 708.617 93.1885 708.773 89.9971 709.078 c 1
EndSplineSet
EndChar

StartChar: uni05A3
Encoding: 1443 1443 112
Width: 0
VWidth: 1070
Flags: HW
HStem: -260 70<-117 47>
VStem: 47 69.999<-190 -60>
LayerCount: 2
Fore
SplineSet
-263.667 -260 m 1
 -244.91 -190 l 1
 -80.9082 -189.993 l 1
 -46.0771 -60 l 1
 23.9209 -60.0068 l 1
 -29.668 -260 l 1
 -263.667 -260 l 1
EndSplineSet
EndChar

StartChar: uni05A4
Encoding: 1444 1444 113
Width: 0
VWidth: 1000
Flags: HW
DStem2: -127.411 -158.824 6.70605 -158.824 0.884917 0.465749<118.682 212.183> 6.70605 -158.824 -127.411 -158.824 0.884919 -0.465745<0 93.5>
LayerCount: 2
Fore
SplineSet
-32.7236 -60 m 1
 24.877 -95.2949 l 1
 -112.851 -158.824 l 1
 -9.16895 -222.354 l 1
 -85.6826 -257.647 l 1
 -246.968 -158.824 l 1
 -32.7236 -60 l 1
EndSplineSet
EndChar

StartChar: uni05A5
Encoding: 1445 1445 114
Width: 0
VWidth: 1000
Flags: HW
LayerCount: 2
Fore
SplineSet
-178.153 -271.766 m 1
 -211.05 -236.471 l 1
 -152.272 -185.417 -113.968 -128.072 -93.1758 -60 c 1
 -22.5879 -60 l 0
 -23.3945 -63.5312 -24.1367 -66.5195 -25.083 -70.0537 c 0
 -46.9941 -151.827 -100.057 -221.751 -178.153 -271.766 c 1
EndSplineSet
EndChar

StartChar: uni05A6
Encoding: 1446 1446 115
Width: 0
VWidth: 1000
Flags: HW
LayerCount: 2
Back
SplineSet
0 -236.471 m 5
 45.0967 -185.417 68.0352 -128.072 70.5879 -60 c 5
 127.058 -60 l 5
 127.197 -63.5312 127.256 -66.5195 127.256 -70.0537 c 4
 127.256 -151.827 92.9307 -221.751 28.2354 -271.766 c 5
 0 -236.471 l 5
123.332 -236.471 m 5
 168.429 -185.417 191.367 -128.072 193.92 -60 c 5
 250.39 -60 l 5
 250.529 -63.5312 250.588 -66.5195 250.588 -70.0537 c 4
 250.588 -151.827 216.263 -221.751 151.567 -271.766 c 5
 123.332 -236.471 l 5
EndSplineSet
Fore
SplineSet
-246.153 -271.766 m 5
 -279.05 -236.471 l 5
 -220.272 -185.417 -181.968 -128.072 -161.176 -60 c 5
 -90.5879 -60 l 4
 -91.3945 -63.5312 -92.1367 -66.5195 -93.083 -70.0537 c 4
 -114.994 -151.827 -168.057 -221.751 -246.153 -271.766 c 5
-110.153 -271.766 m 5
 -143.05 -236.471 l 5
 -84.2725 -185.417 -45.9678 -128.072 -25.1758 -60 c 5
 45.4121 -60 l 4
 44.6055 -63.5312 43.8643 -66.5195 42.917 -70.0537 c 4
 21.0059 -151.827 -32.0566 -221.751 -110.153 -271.766 c 5
EndSplineSet
EndChar

StartChar: uni05A7
Encoding: 1447 1447 116
Width: 0
VWidth: 1000
Flags: HW
LayerCount: 2
Back
SplineSet
183.529 -60 m 5
 211.765 -116.471 l 5
 98.8232 -116.471 l 5
 197.646 -201.177 l 5
 169.411 -257.647 l 5
 28.2354 -257.647 l 5
 0 -201.177 l 5
 112.94 -201.177 l 5
 14.1172 -116.471 l 5
 42.3525 -60 l 5
 183.529 -60 l 5
EndSplineSet
Fore
SplineSet
-15.4297 -60 m 5
 0.950195 -130.589 l 5
 -90.8145 -130.589 l 5
 -39.1406 -201.177 l 5
 -82.5068 -257.647 l 5
 -223.684 -257.647 l 5
 -240.063 -187.06 l 5
 -148.3 -187.06 l 5
 -199.973 -116.471 l 5
 -156.606 -60 l 5
 -15.4297 -60 l 5
EndSplineSet
EndChar

StartChar: uni05A8
Encoding: 1448 1448 117
Width: 0
VWidth: 1000
Flags: HW
LayerCount: 2
Fore
SplineSet
128.255 871.766 m 1
 179.549 821.751 195.139 751.827 173.228 670.054 c 0
 172.281 666.52 171.422 663.531 170.336 660 c 0
 99.748 660 l 1
 115.435 728.072 107.862 785.417 76.4443 836.471 c 1
 128.255 871.766 l 1
EndSplineSet
EndChar

StartChar: uni05A9
Encoding: 1449 1449 118
Width: 0
VWidth: 1000
Flags: HW
HStem: 695.294 49.412<-20 -16> 801.177 49.412<-20 -16>
VStem: -95.2949 49.4121<770 774> 10.5889 49.4101<770 774>
DStem2: 51.998 738.59 16.7041 703.295 0.707114 -0.7071<0.000303268 61.2286>
LayerCount: 2
Fore
SplineSet
120.027 801.177 m 0
 104.441 801.177 88.4023 788.527 84.2266 772.941 c 128
 80.0498 757.355 89.3096 744.706 104.896 744.706 c 0
 120.481 744.706 136.521 757.355 140.698 772.941 c 128
 144.874 788.527 135.613 801.177 120.027 801.177 c 0
128.151 703.295 m 1
 116.422 698.173 103.987 695.294 91.6562 695.294 c 0
 48.7949 695.294 23.3291 730.08 34.8145 772.941 c 0
 46.2988 815.803 90.4062 850.589 133.268 850.589 c 0
 176.13 850.589 201.593 815.803 190.107 772.941 c 0
 186.804 760.61 180.8 748.948 172.902 738.59 c 1
 204.599 695.294 l 1
 159.846 660 l 1
 128.151 703.295 l 1
EndSplineSet
EndChar

StartChar: uni05AA
Encoding: 1450 1450 119
Width: 0
VWidth: 1000
Flags: HW
VStem: -127.059 70.5883<-67 -60> 56.4707 70.5883<-67 -60>
LayerCount: 2
Back
SplineSet
-35.2939 -182.086 m 5
 -88.2773 -166.78 -127.059 -117.892 -127.059 -60 c 1
 -56.4707 -60 l 0
 -56.4707 -91.1719 -31.1719 -116.471 0.000976562 -116.471 c 0
 31.1719 -116.471 56.4707 -91.1719 56.4707 -60 c 0
 127.059 -60 l 0
 127.059 -117.892 88.2773 -166.78 35.2949 -182.086 c 1
EndSplineSet
Fore
SplineSet
33.9824 -60 m 1
 -36.6064 -60 l 0
 -44.959 -91.1719 -77.0361 -116.471 -108.207 -116.471 c 0
 -139.38 -116.471 -157.9 -91.1719 -149.548 -60 c 0
 -220.136 -60 l 1
 -238.214 -127.467 -200.193 -187.323 -127.193 -187.323 c 0
 -55.1934 -187.323 15.9111 -127.442 33.9824 -60 c 1
EndSplineSet
EndChar

StartChar: uni05AB
Encoding: 1451 1451 120
Width: 0
VWidth: 1000
Flags: HW
DStem2: -127.411 758.823 6.70605 758.823 0.884919 0.465745<118.683 212.183> 6.70605 758.823 -127.411 758.823 0.884919 -0.465745<0 93.5>
LayerCount: 2
Back
SplineSet
197.646 857.647 m 5
 254.117 829.412 l 5
 112.941 758.824 l 5
 254.117 688.235 l 5
 197.646 660 l 5
 0 758.824 l 5
 197.646 857.647 l 5
EndSplineSet
Fore
SplineSet
213.159 857.646 m 1
 270.76 822.354 l 1
 133.032 758.823 l 1
 236.715 695.294 l 1
 160.2 660 l 1
 -1.08496 758.823 l 1
 213.159 857.646 l 1
EndSplineSet
EndChar

StartChar: uni05AC
Encoding: 1452 1452 121
Width: 0
VWidth: 1070
Flags: HW
HStem: 660 70<-117 47>
VStem: 47 69.999<730 860>
LayerCount: 2
Back
SplineSet
0 660 m 5
 0 720.001 l 5
 173.998 720.001 l 5
 173.998 859.993 l 5
 234 859.993 l 5
 233.999 660 l 5
 0 660 l 5
EndSplineSet
Fore
SplineSet
-17.1533 660 m 1
 1.60254 730 l 1
 165.604 730.007 l 1
 200.437 860 l 1
 270.435 859.993 l 1
 216.846 660 l 1
 -17.1533 660 l 1
EndSplineSet
EndChar

StartChar: uni05AD
Encoding: 1453 1453 122
Width: 0
VWidth: 1000
Flags: HW
LayerCount: 2
Fore
SplineSet
-121.485 -271.766 m 1
 -172.779 -221.751 -188.369 -151.827 -166.458 -70.0537 c 0
 -165.512 -66.5195 -164.652 -63.5312 -163.566 -60 c 0
 -92.9785 -60 l 1
 -108.665 -128.072 -101.093 -185.417 -69.6748 -236.471 c 1
 -121.485 -271.766 l 1
EndSplineSet
EndChar

StartChar: uni05AE
Encoding: 1454 1454 123
Width: 0
VWidth: 1000
Flags: HW
HStem: 654.177 58.823<65 73> 754.177 58.823<-73 -66>
VStem: -167.566 58.824<702.213 719> 108.742 58.824<749 756>
LayerCount: 2
Fore
SplineSet
13.1631 660 m 9
 -52.5205 660 l 17
 -58.0322 675.369 -58.7334 693.538 -53.5186 713 c 0
 -38.7275 768.2 18.0771 813 73.2764 813 c 0
 118.576 813 148.846 783.08 150.052 741.75 c 0
 150.861 725.088 163.214 713 181.614 713 c 0
 204.344 713 227.732 731.447 233.823 754.177 c 0
 239.913 776.906 233.265 791 227.516 805 c 9
 292.391 805 l 17
 297.215 790.104 297.618 772.729 292.647 754.177 c 0
 277.856 698.977 221.052 654.177 165.853 654.177 c 0
 120.893 654.177 90.7949 683.896 89.168 724.75 c 0
 88.5996 741.761 76.1611 754.177 57.5146 754.177 c 0
 34.7861 754.177 11.3965 735.729 5.30566 713 c 128
 -0.78418 690.271 8.04785 674.5 13.1631 660 c 9
EndSplineSet
EndChar

StartChar: uni05AF
Encoding: 1455 1455 124
Width: 0
VWidth: 1000
Flags: HW
HStem: 660 63.529<-4 2> 794.117 63.529<-4 2>
VStem: -98.8232 63.5293<755 761> 35.2939 63.5293<755 761>
LayerCount: 2
Back
SplineSet
98.8242 801.177 m 0
 75.4453 801.177 56.4707 782.203 56.4707 758.824 c 0
 56.4707 735.445 75.4453 716.471 98.8242 716.471 c 0
 122.203 716.471 141.177 735.445 141.177 758.824 c 0
 141.177 782.203 122.203 801.177 98.8242 801.177 c 0
98.8242 857.647 m 0
 153.375 857.647 197.647 813.374 197.647 758.824 c 0
 197.647 704.273 153.375 660 98.8242 660 c 0
 44.2734 660 0 704.273 0 758.824 c 0
 0 813.374 44.2734 857.647 98.8242 857.647 c 0
EndSplineSet
Fore
SplineSet
135.783 794.117 m 0
 116.301 794.117 96.2529 778.306 91.0322 758.823 c 0
 85.8115 739.341 97.3867 723.529 116.869 723.529 c 0
 136.353 723.529 156.399 739.341 161.62 758.823 c 0
 166.841 778.306 155.267 794.117 135.783 794.117 c 0
152.806 857.646 m 0
 207.356 857.646 239.766 813.374 225.149 758.823 c 0
 210.532 704.273 154.397 660 99.8467 660 c 128
 45.2959 660 12.8857 704.273 27.5029 758.823 c 0
 42.1201 813.374 98.2549 857.646 152.806 857.646 c 0
EndSplineSet
EndChar

StartChar: afii57799
Encoding: 1456 1456 125
Width: 0
VWidth: 1000
Flags: HMW
AnchorPoint: "DiaToBase1" -77 0 mark 0
LayerCount: 2
Fore
SplineSet
-123.044 -171.843 m 4
 -98.7129 -171.843 -84.2578 -191.59 -90.7783 -215.922 c 4
 -97.2979 -240.253 -122.335 -260 -146.666 -260 c 4
 -170.998 -260 -185.454 -240.253 -178.935 -215.922 c 4
 -172.414 -191.59 -147.376 -171.843 -123.044 -171.843 c 4
-93.0762 -60 m 4
 -68.7021 -60 -54.2217 -79.7822 -60.7529 -104.157 c 4
 -67.2832 -128.531 -92.3652 -148.313 -116.739 -148.313 c 4
 -141.114 -148.313 -155.596 -128.531 -149.065 -104.157 c 4
 -142.534 -79.7822 -117.451 -60 -93.0762 -60 c 4
EndSplineSet
EndChar

StartChar: afii57801
Encoding: 1457 1457 126
Width: 0
VWidth: 1070
Flags: HMW
AnchorPoint: "DiaToBase3" -77 0 mark 0
LayerCount: 2
Fore
SplineSet
-189.075 -171.843 m 4
 -164.743 -171.843 -150.287 -191.59 -156.808 -215.922 c 4
 -163.327 -240.253 -188.365 -260 -212.697 -260 c 4
 -237.028 -260 -251.483 -240.253 -244.964 -215.922 c 4
 -238.444 -191.59 -213.406 -171.843 -189.075 -171.843 c 4
-217.049 -60 m 4
 -192.674 -60 -178.192 -79.7822 -184.724 -104.157 c 4
 -191.254 -128.531 -216.337 -148.313 -240.712 -148.313 c 4
 -265.086 -148.313 -279.567 -128.531 -273.037 -104.157 c 4
 -266.506 -79.7822 -241.423 -60 -217.049 -60 c 4
-95.2832 -60 m 4
 -70.9082 -60 -56.4277 -79.7822 -62.959 -104.157 c 4
 -69.4893 -128.531 -94.5713 -148.313 -118.946 -148.313 c 4
 -143.32 -148.313 -157.802 -128.531 -151.271 -104.157 c 4
 -144.74 -79.7822 -119.657 -60 -95.2832 -60 c 4
0.925781 -171.843 m 0
 25.2568 -171.843 39.7129 -191.59 33.1934 -215.922 c 0
 26.6738 -240.253 1.63477 -260 -22.6953 -260 c 0
 -47.0273 -260 -61.4834 -240.253 -54.9639 -215.922 c 0
 -48.4434 -191.59 -23.4053 -171.843 0.925781 -171.843 c 0
30.8945 -60 m 0
 55.2695 -60 69.75 -79.7822 63.2188 -104.157 c 0
 56.6885 -128.531 31.6055 -148.313 7.23047 -148.313 c 0
 -17.1445 -148.313 -31.627 -128.531 -25.0967 -104.157 c 0
 -18.5654 -79.7822 6.51855 -60 30.8945 -60 c 0
EndSplineSet
EndChar

StartChar: afii57800
Encoding: 1458 1458 127
Width: 0
VWidth: 1070
Flags: HMW
AnchorPoint: "DiaToBase3" -77 0 mark 0
LayerCount: 2
Fore
SplineSet
-259.646 -69.0781 m 1
 -59.6465 -69.0781 l 1
 -78.5605 -139.667 l 1
 -278.561 -139.667 l 1
 -259.646 -69.0781 l 1
-3.06641 -171.843 m 0
 21.2656 -171.843 35.7217 -191.59 29.2021 -215.922 c 0
 22.6826 -240.253 -2.35547 -260 -26.6875 -260 c 128
 -51.0186 -260 -65.4736 -240.253 -58.9541 -215.922 c 0
 -52.4346 -191.59 -27.3965 -171.843 -3.06641 -171.843 c 0
26.9023 -60 m 0
 51.2773 -60 65.7598 -79.7822 59.2285 -104.157 c 0
 52.6973 -128.531 27.6133 -148.313 3.23828 -148.313 c 0
 -21.1357 -148.313 -35.6162 -128.531 -29.0859 -104.157 c 0
 -22.5547 -79.7822 2.52734 -60 26.9023 -60 c 0
EndSplineSet
EndChar

StartChar: afii57802
Encoding: 1459 1459 128
Width: 0
VWidth: 1070
Flags: HMW
AnchorPoint: "DiaToBase3" -77 0 mark 0
LayerCount: 2
Fore
SplineSet
-278.561 -139.667 m 257
 -259.646 -69.0781 l 257
 -59.6465 -69.0781 l 257
 -78.5605 -139.667 l 257
 -143.267 -139.667 l 257
 -173.098 -251 l 257
 -243.687 -251 l 257
 -213.855 -139.667 l 257
 -278.561 -139.667 l 257
-3.06641 -171.843 m 0
 21.2656 -171.843 35.7217 -191.59 29.2021 -215.922 c 0
 22.6826 -240.253 -2.35547 -260 -26.6875 -260 c 128
 -51.0186 -260 -65.4736 -240.253 -58.9541 -215.922 c 0
 -52.4346 -191.59 -27.3965 -171.843 -3.06641 -171.843 c 0
26.9023 -60 m 0
 51.2773 -60 65.7598 -79.7822 59.2285 -104.157 c 0
 52.6973 -128.531 27.6133 -148.313 3.23828 -148.313 c 0
 -21.1357 -148.313 -35.6162 -128.531 -29.0859 -104.157 c 0
 -22.5547 -79.7822 2.52734 -60 26.9023 -60 c 0
EndSplineSet
EndChar

StartChar: afii57793
Encoding: 1460 1460 129
Width: 0
VWidth: 1000
Flags: HMW
AnchorPoint: "DiaToBase1" -77 0 mark 0
LayerCount: 2
Fore
SplineSet
-93.0762 -60 m 0
 -68.7021 -60 -54.2217 -79.7822 -60.7529 -104.157 c 0
 -67.2832 -128.531 -92.3652 -148.313 -116.739 -148.313 c 0
 -141.114 -148.313 -155.596 -128.531 -149.065 -104.157 c 0
 -142.534 -79.7822 -117.451 -60 -93.0762 -60 c 0
EndSplineSet
EndChar

StartChar: afii57794
Encoding: 1461 1461 130
Width: 0
VWidth: 1070
Flags: HMW
AnchorPoint: "DiaToBase2" -77 0 mark 0
LayerCount: 2
Fore
SplineSet
-156.52 -60.0781 m 4
 -132.188 -60.0781 -117.732 -79.8252 -124.253 -104.157 c 4
 -130.772 -128.488 -155.811 -148.235 -180.142 -148.235 c 4
 -204.473 -148.235 -218.929 -128.488 -212.409 -104.157 c 4
 -205.889 -79.8252 -180.851 -60.0781 -156.52 -60.0781 c 4
-29.7344 -60 m 0
 -5.35938 -60 9.12207 -79.7822 2.59082 -104.157 c 0
 -3.93945 -128.531 -29.0225 -148.313 -53.3975 -148.313 c 0
 -77.7725 -148.313 -92.2539 -128.531 -85.7236 -104.157 c 0
 -79.1924 -79.7822 -54.1094 -60 -29.7344 -60 c 0
EndSplineSet
EndChar

StartChar: afii57795
Encoding: 1462 1462 131
Width: 0
VWidth: 1070
Flags: HMW
AnchorPoint: "DiaToBase2" -77 0 mark 0
LayerCount: 2
Fore
SplineSet
-125.986 -171.843 m 0
 -101.655 -171.843 -87.1992 -191.59 -93.7197 -215.922 c 0
 -100.239 -240.253 -125.277 -260 -149.608 -260 c 0
 -173.939 -260 -188.396 -240.253 -181.876 -215.922 c 0
 -175.355 -191.59 -150.317 -171.843 -125.986 -171.843 c 0
-156.46 -60 m 0
 -132.085 -60 -117.604 -79.7822 -124.135 -104.157 c 0
 -130.665 -128.531 -155.748 -148.313 -180.123 -148.313 c 0
 -204.497 -148.313 -218.979 -128.531 -212.448 -104.157 c 0
 -205.917 -79.7822 -180.834 -60 -156.46 -60 c 0
-29.6953 -60 m 0
 -5.32031 -60 9.16113 -79.7822 2.62988 -104.157 c 0
 -3.90039 -128.531 -28.9834 -148.313 -53.3584 -148.313 c 0
 -77.7324 -148.313 -92.2139 -128.531 -85.6836 -104.157 c 0
 -79.1523 -79.7822 -54.0693 -60 -29.6953 -60 c 0
EndSplineSet
EndChar

StartChar: afii57798
Encoding: 1463 1463 132
Width: 0
VWidth: 1070
Flags: HMW
AnchorPoint: "DiaToBase2" -77 0 mark 0
LayerCount: 2
Fore
SplineSet
-195.51 -69.0781 m 5
 4.49023 -69.0781 l 1
 -14.4238 -139.667 l 1
 -214.424 -139.667 l 1
 -195.51 -69.0781 l 5
EndSplineSet
EndChar

StartChar: afii57797
Encoding: 1464 1464 133
Width: 0
VWidth: 1070
Flags: HMW
AnchorPoint: "DiaToBase2" -77 0 mark 0
LayerCount: 2
Fore
SplineSet
-214.424 -139.667 m 257
 -195.51 -69.0781 l 257
 4.49023 -69.0781 l 257
 -14.4238 -139.667 l 257
 -79.1299 -139.667 l 257
 -104.406 -234 l 257
 -174.995 -234 l 257
 -149.719 -139.667 l 257
 -214.424 -139.667 l 257
EndSplineSet
EndChar

StartChar: afii57806
Encoding: 1465 1465 134
Width: 0
VWidth: 1000
Flags: HMW
AnchorPoint: "DiaToBaseO" -77 0 mark 0
LayerCount: 2
Fore
SplineSet
121.819 742 m 4
 146.193 742 160.674 722.218 154.143 697.843 c 4
 147.611 673.469 122.53 653.688 98.1562 653.688 c 4
 73.7812 653.688 59.2988 673.469 65.8301 697.843 c 4
 72.3613 722.218 97.4443 742 121.819 742 c 4
EndSplineSet
EndChar

StartChar: afii57796
Encoding: 1467 1467 135
Width: 0
VWidth: 1070
Flags: HMW
AnchorPoint: "DiaToBaseU" -77 0 mark 0
LayerCount: 2
Fore
SplineSet
-107.244 -113.021 m 4
 -82.9131 -113.021 -68.457 -132.768 -74.9766 -157.099 c 132
 -81.4961 -181.43 -106.534 -201.177 -130.865 -201.177 c 4
 -155.196 -201.177 -169.652 -181.43 -163.133 -157.099 c 132
 -156.613 -132.768 -131.575 -113.021 -107.244 -113.021 c 4
-11.2412 -171.844 m 4
 13.0898 -171.844 27.5449 -191.591 21.0254 -215.922 c 4
 14.5068 -240.253 -10.5322 -260 -34.8633 -260 c 4
 -59.1943 -260 -73.6504 -240.253 -67.1309 -215.922 c 4
 -60.6113 -191.591 -35.5732 -171.844 -11.2412 -171.844 c 4
-204.802 -60 m 4
 -180.427 -60 -165.945 -79.7832 -172.477 -104.157 c 4
 -179.008 -128.532 -204.09 -148.314 -228.466 -148.314 c 4
 -252.841 -148.314 -267.322 -128.532 -260.791 -104.157 c 4
 -254.26 -79.7832 -229.177 -60 -204.802 -60 c 4
EndSplineSet
EndChar

StartChar: afii57807
Encoding: 1468 1468 136
Width: 0
VWidth: 1000
Flags: HMW
AnchorPoint: "DiaToBaseD" -77 0 mark 0
LayerCount: 2
Fore
SplineSet
15.7109 346 m 0
 40.085 346 54.5664 326.218 48.0352 301.843 c 0
 41.5039 277.469 16.4219 257.688 -7.95215 257.688 c 0
 -32.3271 257.688 -46.8086 277.469 -40.2773 301.843 c 4
 -33.7461 326.218 -8.66406 346 15.7109 346 c 0
EndSplineSet
EndChar

StartChar: afii57839
Encoding: 1469 1469 137
Width: 0
VWidth: 1070
Flags: HMW
LayerCount: 2
Fore
SplineSet
-128.077 -60 m 1
 -58.0771 -60 l 5
 -106.292 -239.941 l 5
 -176.292 -239.941 l 1
 -128.077 -60 l 1
EndSplineSet
EndChar

StartChar: afii57645
Encoding: 1470 1470 138
Width: 424
VWidth: 1000
Flags: HW
HStem: 399.999 200<59.9082 102.643 321.304 364.038>
LayerCount: 2
Back
SplineSet
348.728 575.5 m 2
 325.416 430 l 2
 323.034 415.132 317.418 410 297.337 410 c 2
 54.7275 410 l 2
 34.7646 410 33.3516 416.392 36.0146 434.5 c 2
 57.4131 580 l 2
 59.5 594.193 63.7402 600 83.2275 600 c 2
 327.837 600 l 2
 346.515 600 351.773 594.512 348.728 575.5 c 2
EndSplineSet
Fore
SplineSet
411.554 449.999 m 2
 438.343 549.999 l 2
 447.703 584.938 432.073 599.999 405.073 599.999 c 2
 186.407 599.999 l 2
 159.407 599.999 135.702 584.938 126.343 549.999 c 2
 99.5527 449.999 l 2
 90.1924 415.061 105.822 399.999 132.822 399.999 c 2
 351.489 399.999 l 2
 378.489 399.999 402.194 415.061 411.554 449.999 c 2
EndSplineSet
PairPos2: "'kern' Horizontal Kerning in Hebrew lookup 1 subtable" uniE804 dx=5 dy=0 dh=5 dv=0 dx=0 dy=0 dh=0 dv=0
PairPos2: "'kern' Horizontal Kerning in Hebrew lookup 1 subtable" uniFB1D dx=5 dy=0 dh=5 dv=0 dx=0 dy=0 dh=0 dv=0
PairPos2: "'kern' Horizontal Kerning in Hebrew lookup 1 subtable" uniFB2D dx=5 dy=0 dh=5 dv=0 dx=0 dy=0 dh=0 dv=0
PairPos2: "'kern' Horizontal Kerning in Hebrew lookup 1 subtable" uniFB2C dx=5 dy=0 dh=5 dv=0 dx=0 dy=0 dh=0 dv=0
PairPos2: "'kern' Horizontal Kerning in Hebrew lookup 1 subtable" uniFB45 dx=5 dy=0 dh=5 dv=0 dx=0 dy=0 dh=0 dv=0
PairPos2: "'kern' Horizontal Kerning in Hebrew lookup 1 subtable" uniFB42 dx=15 dy=0 dh=15 dv=0 dx=0 dy=0 dh=0 dv=0
PairPos2: "'kern' Horizontal Kerning in Hebrew lookup 1 subtable" uniFB3F dx=10 dy=0 dh=10 dv=0 dx=0 dy=0 dh=0 dv=0
PairPos2: "'kern' Horizontal Kerning in Hebrew lookup 1 subtable" uniFB37 dx=5 dy=0 dh=5 dv=0 dx=0 dy=0 dh=0 dv=0
PairPos2: "'kern' Horizontal Kerning in Hebrew lookup 1 subtable" afii57718 dx=5 dy=0 dh=5 dv=0 dx=0 dy=0 dh=0 dv=0
PairPos2: "'kern' Horizontal Kerning in Hebrew lookup 1 subtable" afii57705 dx=5 dy=0 dh=5 dv=0 dx=0 dy=0 dh=0 dv=0
PairPos2: "'kern' Horizontal Kerning in Hebrew lookup 1 subtable" afii57717 dx=5 dy=0 dh=5 dv=0 dx=0 dy=0 dh=0 dv=0
PairPos2: "'kern' Horizontal Kerning in Hebrew lookup 1 subtable" uniFB4A dx=5 dy=0 dh=5 dv=0 dx=0 dy=0 dh=0 dv=0
PairPos2: "'kern' Horizontal Kerning in Hebrew lookup 1 subtable" uniFB28 dx=5 dy=0 dh=5 dv=0 dx=0 dy=0 dh=0 dv=0
PairPos2: "'kern' Horizontal Kerning in Hebrew lookup 1 subtable" afii57690 dx=5 dy=0 dh=5 dv=0 dx=0 dy=0 dh=0 dv=0
PairPos2: "'kern' Horizontal Kerning in Hebrew lookup 1 subtable" uniFB49 dx=5 dy=0 dh=5 dv=0 dx=0 dy=0 dh=0 dv=0
PairPos2: "'kern' Horizontal Kerning in Hebrew lookup 1 subtable" afii57695 dx=5 dy=0 dh=5 dv=0 dx=0 dy=0 dh=0 dv=0
PairPos2: "'kern' Horizontal Kerning in Hebrew lookup 1 subtable" afii57694 dx=5 dy=0 dh=5 dv=0 dx=0 dy=0 dh=0 dv=0
PairPos2: "'kern' Horizontal Kerning in Hebrew lookup 1 subtable" afii57689 dx=5 dy=0 dh=5 dv=0 dx=0 dy=0 dh=0 dv=0
PairPos2: "'kern' Horizontal Kerning in Hebrew lookup 1 subtable" uniFB48 dx=10 dy=0 dh=10 dv=0 dx=0 dy=0 dh=0 dv=0
PairPos2: "'kern' Horizontal Kerning in Hebrew lookup 1 subtable" afii57688 dx=10 dy=0 dh=10 dv=0 dx=0 dy=0 dh=0 dv=0
PairPos2: "'kern' Horizontal Kerning in Hebrew lookup 1 subtable" uniFB47 dx=15 dy=0 dh=15 dv=0 dx=0 dy=0 dh=0 dv=0
PairPos2: "'kern' Horizontal Kerning in Hebrew lookup 1 subtable" afii57687 dx=15 dy=0 dh=15 dv=0 dx=0 dy=0 dh=0 dv=0
PairPos2: "'kern' Horizontal Kerning in Hebrew lookup 1 subtable" afii57685 dx=5 dy=0 dh=5 dv=0 dx=0 dy=0 dh=0 dv=0
PairPos2: "'kern' Horizontal Kerning in Hebrew lookup 1 subtable" uniFB4E dx=-10 dy=0 dh=-10 dv=0 dx=0 dy=0 dh=0 dv=0
PairPos2: "'kern' Horizontal Kerning in Hebrew lookup 1 subtable" uniFB44 dx=-10 dy=0 dh=-10 dv=0 dx=0 dy=0 dh=0 dv=0
PairPos2: "'kern' Horizontal Kerning in Hebrew lookup 1 subtable" afii57684 dx=-10 dy=0 dh=-10 dv=0 dx=0 dy=0 dh=0 dv=0
PairPos2: "'kern' Horizontal Kerning in Hebrew lookup 1 subtable" uniFB43 dx=-10 dy=0 dh=-10 dv=0 dx=0 dy=0 dh=0 dv=0
PairPos2: "'kern' Horizontal Kerning in Hebrew lookup 1 subtable" afii57683 dx=-10 dy=0 dh=-10 dv=0 dx=0 dy=0 dh=0 dv=0
PairPos2: "'kern' Horizontal Kerning in Hebrew lookup 1 subtable" uniFB20 dx=5 dy=0 dh=5 dv=0 dx=0 dy=0 dh=0 dv=0
PairPos2: "'kern' Horizontal Kerning in Hebrew lookup 1 subtable" afii57682 dx=15 dy=0 dh=15 dv=0 dx=0 dy=0 dh=0 dv=0
PairPos2: "'kern' Horizontal Kerning in Hebrew lookup 1 subtable" uniFB41 dx=10 dy=0 dh=10 dv=0 dx=0 dy=0 dh=0 dv=0
PairPos2: "'kern' Horizontal Kerning in Hebrew lookup 1 subtable" afii57681 dx=10 dy=0 dh=10 dv=0 dx=0 dy=0 dh=0 dv=0
PairPos2: "'kern' Horizontal Kerning in Hebrew lookup 1 subtable" uniFB40 dx=-10 dy=0 dh=-10 dv=0 dx=0 dy=0 dh=0 dv=0
PairPos2: "'kern' Horizontal Kerning in Hebrew lookup 1 subtable" afii57680 dx=-10 dy=0 dh=-10 dv=0 dx=0 dy=0 dh=0 dv=0
PairPos2: "'kern' Horizontal Kerning in Hebrew lookup 1 subtable" afii57679 dx=10 dy=0 dh=10 dv=0 dx=0 dy=0 dh=0 dv=0
PairPos2: "'kern' Horizontal Kerning in Hebrew lookup 1 subtable" uniFB3C dx=15 dy=0 dh=15 dv=0 dx=0 dy=0 dh=0 dv=0
PairPos2: "'kern' Horizontal Kerning in Hebrew lookup 1 subtable" uniFB25 dx=15 dy=0 dh=15 dv=0 dx=0 dy=0 dh=0 dv=0
PairPos2: "'kern' Horizontal Kerning in Hebrew lookup 1 subtable" afii57676 dx=15 dy=0 dh=15 dv=0 dx=0 dy=0 dh=0 dv=0
PairPos2: "'kern' Horizontal Kerning in Hebrew lookup 1 subtable" uniFB4D dx=-5 dy=0 dh=-5 dv=0 dx=0 dy=0 dh=0 dv=0
PairPos2: "'kern' Horizontal Kerning in Hebrew lookup 1 subtable" uniFB3B dx=-5 dy=0 dh=-5 dv=0 dx=0 dy=0 dh=0 dv=0
PairPos2: "'kern' Horizontal Kerning in Hebrew lookup 1 subtable" uniFB24 dx=-5 dy=0 dh=-5 dv=0 dx=0 dy=0 dh=0 dv=0
PairPos2: "'kern' Horizontal Kerning in Hebrew lookup 1 subtable" afii57675 dx=-5 dy=0 dh=-5 dv=0 dx=0 dy=0 dh=0 dv=0
PairPos2: "'kern' Horizontal Kerning in Hebrew lookup 1 subtable" uniFB39 dx=5 dy=0 dh=5 dv=0 dx=0 dy=0 dh=0 dv=0
PairPos2: "'kern' Horizontal Kerning in Hebrew lookup 1 subtable" afii57673 dx=5 dy=0 dh=5 dv=0 dx=0 dy=0 dh=0 dv=0
PairPos2: "'kern' Horizontal Kerning in Hebrew lookup 1 subtable" afii57671 dx=5 dy=0 dh=5 dv=0 dx=0 dy=0 dh=0 dv=0
PairPos2: "'kern' Horizontal Kerning in Hebrew lookup 1 subtable" uniFB36 dx=15 dy=0 dh=15 dv=0 dx=0 dy=0 dh=0 dv=0
PairPos2: "'kern' Horizontal Kerning in Hebrew lookup 1 subtable" afii57670 dx=15 dy=0 dh=15 dv=0 dx=0 dy=0 dh=0 dv=0
PairPos2: "'kern' Horizontal Kerning in Hebrew lookup 1 subtable" afii57723 dx=5 dy=0 dh=5 dv=0 dx=0 dy=0 dh=0 dv=0
PairPos2: "'kern' Horizontal Kerning in Hebrew lookup 1 subtable" uniFB33 dx=10 dy=0 dh=10 dv=0 dx=0 dy=0 dh=0 dv=0
PairPos2: "'kern' Horizontal Kerning in Hebrew lookup 1 subtable" uniFB22 dx=10 dy=0 dh=10 dv=0 dx=0 dy=0 dh=0 dv=0
PairPos2: "'kern' Horizontal Kerning in Hebrew lookup 1 subtable" afii57667 dx=10 dy=0 dh=10 dv=0 dx=0 dy=0 dh=0 dv=0
PairPos2: "'kern' Horizontal Kerning in Hebrew lookup 1 subtable" uniFB32 dx=-50 dy=0 dh=-50 dv=0 dx=0 dy=0 dh=0 dv=0
PairPos2: "'kern' Horizontal Kerning in Hebrew lookup 1 subtable" afii57666 dx=-50 dy=0 dh=-50 dv=0 dx=0 dy=0 dh=0 dv=0
PairPos2: "'kern' Horizontal Kerning in Hebrew lookup 1 subtable" uniFB4C dx=-20 dy=0 dh=-20 dv=0 dx=0 dy=0 dh=0 dv=0
PairPos2: "'kern' Horizontal Kerning in Hebrew lookup 1 subtable" uniFB31 dx=-20 dy=0 dh=-20 dv=0 dx=0 dy=0 dh=0 dv=0
PairPos2: "'kern' Horizontal Kerning in Hebrew lookup 1 subtable" afii57665 dx=-20 dy=0 dh=-20 dv=0 dx=0 dy=0 dh=0 dv=0
PairPos2: "'kern' Horizontal Kerning in Hebrew lookup 1 subtable" uniFB30 dx=-5 dy=0 dh=-5 dv=0 dx=0 dy=0 dh=0 dv=0
PairPos2: "'kern' Horizontal Kerning in Hebrew lookup 1 subtable" uniFB2F dx=-5 dy=0 dh=-5 dv=0 dx=0 dy=0 dh=0 dv=0
PairPos2: "'kern' Horizontal Kerning in Hebrew lookup 1 subtable" uniFB2E dx=-5 dy=0 dh=-5 dv=0 dx=0 dy=0 dh=0 dv=0
PairPos2: "'kern' Horizontal Kerning in Hebrew lookup 1 subtable" uniFB21 dx=-5 dy=0 dh=-5 dv=0 dx=0 dy=0 dh=0 dv=0
PairPos2: "'kern' Horizontal Kerning in Hebrew lookup 1 subtable" afii57664 dx=-5 dy=0 dh=-5 dv=0 dx=0 dy=0 dh=0 dv=0
EndChar

StartChar: afii57841
Encoding: 1471 1471 139
Width: 0
VWidth: 1070
Flags: HMW
HStem: 679 70<-100 100>
VStem: -100 200<679 749>
LayerCount: 2
Fore
SplineSet
22.3545 744 m 5
 222.354 744 l 5
 203.598 674 l 5
 3.59766 674 l 5
 22.3545 744 l 5
EndSplineSet
EndChar

StartChar: afii57842
Encoding: 1472 1472 140
Width: 201
VWidth: 1070
Flags: HW
VStem: 40 121.669<-51.6699 626>
LayerCount: 2
Fore
SplineSet
130.736 626 m 1
 263.747 668.33 l 257
 70.8242 -51.6699 l 1
 -62.1875 -94 l 1
 130.736 626 l 1
EndSplineSet
EndChar

StartChar: afii57804
Encoding: 1473 1473 141
Width: 0
VWidth: 1000
Flags: HW
HStem: 629.844 88.3135<694 699>
VStem: 651.688 88.3125<664.578 677>
LayerCount: 2
Fore
SplineSet
811.274 718.157 m 4
 835.648 718.157 850.129 698.375 843.598 674 c 4
 837.066 649.626 811.985 629.844 787.611 629.844 c 4
 763.236 629.844 748.755 649.626 755.286 674 c 4
 761.817 698.375 786.899 718.157 811.274 718.157 c 4
EndSplineSet
EndChar

StartChar: afii57803
Encoding: 1474 1474 142
Width: 0
VWidth: 1000
Flags: HW
HStem: 629.844 88.3135<167 172>
VStem: 124 88.3125<664.578 677>
LayerCount: 2
Fore
SplineSet
283.587 718.157 m 0
 307.961 718.157 322.441 698.375 315.91 674 c 0
 309.379 649.626 284.297 629.844 259.923 629.844 c 0
 235.548 629.844 221.066 649.626 227.598 674 c 0
 234.129 698.375 259.212 718.157 283.587 718.157 c 0
EndSplineSet
EndChar

StartChar: uni05C4
Encoding: 1476 1476 144
Width: 0
VWidth: 1000
Flags: HW
HStem: 660 180<-63.6276 63.6299>
VStem: -90.001 180.005<686.371 813.629>
LayerCount: 2
Back
SplineSet
0.000976562 718.157 m 0
 24.375 718.157 44.1562 698.375 44.1562 674 c 0
 44.1562 649.626 24.375 629.844 0.000976562 629.844 c 0
 -24.374 629.844 -44.1562 649.626 -44.1562 674 c 0
 -44.1562 698.375 -24.374 718.157 0.000976562 718.157 c 0
EndSplineSet
Fore
SplineSet
148.076 840 m 4
 197.752 840 227.276 799.676 213.966 750 c 4
 200.655 700.324 149.521 660 99.8457 660 c 4
 50.1748 660 20.6504 700.324 33.9609 750 c 4
 47.2715 799.676 98.4053 840 148.076 840 c 4
EndSplineSet
EndChar

StartChar: afii57664
Encoding: 1488 1488 145
Width: 620
VWidth: 1000
Flags: HMW
HStem: 0 21G<42 257.113> 580 20
AnchorPoint: "DiaToBaseD" 204.999 -209 basechar 0
AnchorPoint: "DiaToBaseO" -62 0 basechar 0
AnchorPoint: "DiaToBaseU" 223 0 basechar 0
AnchorPoint: "DiaToBase3" 233 0 basechar 0
AnchorPoint: "DiaToBase2" 233 0 basechar 0
AnchorPoint: "DiaToBase1" 233 0 basechar 0
LayerCount: 2
Back
SplineSet
181.047 569.859 m 10
 402.5 339.5 l 1
 405.205 364.42 407.997 386.33 420 407 c 1
 384.36 427.322 354.992 473.944 354.45 535 c 0
 354.119 572.271 367.206 627.219 391.27 643 c 8
 399.05 648.104 409.5 644 412.87 632.875 c 0
 415.268 624.96 412.794 605.82 436.87 600 c 2
 493 589.001 l 2
 595.515 568.912 585.948 457.974 568.531 385.001 c 0
 558.27 342.011 538 378.76 503.5 378.76 c 0
 485.245 378.76 472.178 364.924 465.27 349 c 0
 449 311.5 458.477 277.802 471.189 264.252 c 2
 528.233 203.452 l 2
 600.088 126.975 569.771 30.6729 520.405 0.195312 c 0
 505.065 -9.27441 492.112 -10.4736 479.136 -6.81445 c 0
 469.227 -4.02051 468.057 26.0547 441 55 c 2
 197.5 315.5 l 1
 175.5 308 158.326 291.821 155.77 267 c 0
 146.5 177 293.481 187.678 292.286 52 c 0
 291.908 9.03223 285.035 0 262.113 0 c 2
 62 0 l 2
 33.4004 0 25 28 39.3701 54 c 0
 48.3438 70.2363 77.8701 60 83.3701 70 c 0
 102.198 104.235 55.1172 147.243 60 227 c 0
 63.7266 287.875 92 338.5 151.03 363.733 c 1
 94.9473 417.213 l 2
 40.8945 472.523 59.4619 584.051 100.5 619.5 c 0
 113.073 630.362 134.676 637.588 144.33 628.177 c 0
 154.975 617.799 157.723 594.506 181.047 569.859 c 10
EndSplineSet
Fore
SplineSet
256.74 569.859 m 10
 416.469 339.5 l 1
 425.851 364.42 434.514 386.33 452.056 407 c 1
 421.86 427.322 404.985 473.944 420.803 535 c 0
 430.459 572.271 458.269 627.219 486.562 643 c 8
 495.708 648.102 505.06 644 505.448 632.875 c 0
 505.726 624.96 498.123 605.82 520.64 600 c 2
 573.822 589.001 l 2
 670.954 568.912 631.662 457.974 594.691 385.001 c 0
 572.912 342.011 562.488 378.76 527.988 378.76 c 0
 509.733 378.76 492.959 364.924 481.784 349 c 0
 455.466 311.5 455.914 277.802 464.995 264.252 c 2
 505.748 203.452 l 2
 557.111 126.975 500.99 30.6729 443.457 0.195312 c 0
 425.58 -9.27441 412.306 -10.4736 400.311 -6.81445 c 0
 391.149 -4.02051 398.038 26.0547 378.737 55 c 2
 205.038 315.5 l 1
 181.028 308 159.52 291.821 150.312 267 c 0
 116.927 177 266.77 187.678 229.22 52 c 0
 217.328 9.03223 208.035 0 185.113 0 c 2
 -15 0 l 2
 -43.5996 0 -44.4971 28 -23.1602 54 c 0
 -9.83691 70.2363 16.9473 60 25.127 70 c 0
 53.1279 104.235 17.5713 147.243 43.8242 227 c 0
 63.8623 287.875 105.701 338.5 171.492 363.733 c 1
 142.752 404 l 2
 133.388 417.119 125.366 431.03 119.675 448.5 c 0
 104.037 496.5 137.41 580 189.494 619.5 c 0
 204.599 630.955 228.518 637.588 235.649 628.177 c 0
 243.514 617.799 240.021 594.506 256.74 569.859 c 10
EndSplineSet
PairPos2: "'kern' Horizontal Kerning in Hebrew lookup 1 subtable" uniE804 dx=-20 dy=0 dh=-20 dv=0 dx=0 dy=0 dh=0 dv=0
PairPos2: "'kern' Horizontal Kerning in Hebrew lookup 1 subtable" uniE803 dx=-20 dy=0 dh=-20 dv=0 dx=0 dy=0 dh=0 dv=0
PairPos2: "'kern' Horizontal Kerning in Hebrew lookup 1 subtable" uniE802 dx=-20 dy=0 dh=-20 dv=0 dx=0 dy=0 dh=0 dv=0
PairPos2: "'kern' Horizontal Kerning in Hebrew lookup 1 subtable" quotesingle dx=-25 dy=0 dh=-25 dv=0 dx=0 dy=0 dh=0 dv=0
PairPos2: "'kern' Horizontal Kerning in Hebrew lookup 1 subtable" quoteright dx=-25 dy=0 dh=-25 dv=0 dx=0 dy=0 dh=0 dv=0
PairPos2: "'kern' Horizontal Kerning in Hebrew lookup 1 subtable" quotedblright dx=-25 dy=0 dh=-25 dv=0 dx=0 dy=0 dh=0 dv=0
PairPos2: "'kern' Horizontal Kerning in Hebrew lookup 1 subtable" quotedbl dx=-25 dy=0 dh=-25 dv=0 dx=0 dy=0 dh=0 dv=0
PairPos2: "'kern' Horizontal Kerning in Hebrew lookup 1 subtable" question dx=-5 dy=0 dh=-5 dv=0 dx=0 dy=0 dh=0 dv=0
PairPos2: "'kern' Horizontal Kerning in Hebrew lookup 1 subtable" uniFB1D dx=-20 dy=0 dh=-20 dv=0 dx=0 dy=0 dh=0 dv=0
PairPos2: "'kern' Horizontal Kerning in Hebrew lookup 1 subtable" uniFB2D dx=-20 dy=0 dh=-20 dv=0 dx=0 dy=0 dh=0 dv=0
PairPos2: "'kern' Horizontal Kerning in Hebrew lookup 1 subtable" uniFB2C dx=-20 dy=0 dh=-20 dv=0 dx=0 dy=0 dh=0 dv=0
PairPos2: "'kern' Horizontal Kerning in Hebrew lookup 1 subtable" uniFB45 dx=-20 dy=0 dh=-20 dv=0 dx=0 dy=0 dh=0 dv=0
PairPos2: "'kern' Horizontal Kerning in Hebrew lookup 1 subtable" uniFB42 dx=-15 dy=0 dh=-15 dv=0 dx=0 dy=0 dh=0 dv=0
PairPos2: "'kern' Horizontal Kerning in Hebrew lookup 1 subtable" uniFB3F dx=-10 dy=0 dh=-10 dv=0 dx=0 dy=0 dh=0 dv=0
PairPos2: "'kern' Horizontal Kerning in Hebrew lookup 1 subtable" uniFB37 dx=-10 dy=0 dh=-10 dv=0 dx=0 dy=0 dh=0 dv=0
PairPos2: "'kern' Horizontal Kerning in Hebrew lookup 1 subtable" uni05F4 dx=-25 dy=0 dh=-25 dv=0 dx=0 dy=0 dh=0 dv=0
PairPos2: "'kern' Horizontal Kerning in Hebrew lookup 1 subtable" uni05F3 dx=-25 dy=0 dh=-25 dv=0 dx=0 dy=0 dh=0 dv=0
PairPos2: "'kern' Horizontal Kerning in Hebrew lookup 1 subtable" afii57718 dx=-20 dy=0 dh=-20 dv=0 dx=0 dy=0 dh=0 dv=0
PairPos2: "'kern' Horizontal Kerning in Hebrew lookup 1 subtable" afii57705 dx=-20 dy=0 dh=-20 dv=0 dx=0 dy=0 dh=0 dv=0
PairPos2: "'kern' Horizontal Kerning in Hebrew lookup 1 subtable" afii57717 dx=-20 dy=0 dh=-20 dv=0 dx=0 dy=0 dh=0 dv=0
PairPos2: "'kern' Horizontal Kerning in Hebrew lookup 1 subtable" uniFB49 dx=-20 dy=0 dh=-20 dv=0 dx=0 dy=0 dh=0 dv=0
PairPos2: "'kern' Horizontal Kerning in Hebrew lookup 1 subtable" afii57695 dx=-20 dy=0 dh=-20 dv=0 dx=0 dy=0 dh=0 dv=0
PairPos2: "'kern' Horizontal Kerning in Hebrew lookup 1 subtable" afii57694 dx=-20 dy=0 dh=-20 dv=0 dx=0 dy=0 dh=0 dv=0
PairPos2: "'kern' Horizontal Kerning in Hebrew lookup 1 subtable" afii57689 dx=-20 dy=0 dh=-20 dv=0 dx=0 dy=0 dh=0 dv=0
PairPos2: "'kern' Horizontal Kerning in Hebrew lookup 1 subtable" uniFB47 dx=-10 dy=0 dh=-10 dv=0 dx=0 dy=0 dh=0 dv=0
PairPos2: "'kern' Horizontal Kerning in Hebrew lookup 1 subtable" afii57687 dx=-10 dy=0 dh=-10 dv=0 dx=0 dy=0 dh=0 dv=0
PairPos2: "'kern' Horizontal Kerning in Hebrew lookup 1 subtable" afii57685 dx=-20 dy=0 dh=-20 dv=0 dx=0 dy=0 dh=0 dv=0
PairPos2: "'kern' Horizontal Kerning in Hebrew lookup 1 subtable" afii57682 dx=-15 dy=0 dh=-15 dv=0 dx=0 dy=0 dh=0 dv=0
PairPos2: "'kern' Horizontal Kerning in Hebrew lookup 1 subtable" uniFB41 dx=10 dy=0 dh=10 dv=0 dx=0 dy=0 dh=0 dv=0
PairPos2: "'kern' Horizontal Kerning in Hebrew lookup 1 subtable" afii57681 dx=10 dy=0 dh=10 dv=0 dx=0 dy=0 dh=0 dv=0
PairPos2: "'kern' Horizontal Kerning in Hebrew lookup 1 subtable" afii57679 dx=-10 dy=0 dh=-10 dv=0 dx=0 dy=0 dh=0 dv=0
PairPos2: "'kern' Horizontal Kerning in Hebrew lookup 1 subtable" uniFB3C dx=-10 dy=0 dh=-10 dv=0 dx=0 dy=0 dh=0 dv=0
PairPos2: "'kern' Horizontal Kerning in Hebrew lookup 1 subtable" uniFB25 dx=-10 dy=0 dh=-10 dv=0 dx=0 dy=0 dh=0 dv=0
PairPos2: "'kern' Horizontal Kerning in Hebrew lookup 1 subtable" afii57676 dx=-10 dy=0 dh=-10 dv=0 dx=0 dy=0 dh=0 dv=0
PairPos2: "'kern' Horizontal Kerning in Hebrew lookup 1 subtable" uniFB4D dx=10 dy=0 dh=10 dv=0 dx=0 dy=0 dh=0 dv=0
PairPos2: "'kern' Horizontal Kerning in Hebrew lookup 1 subtable" uniFB3B dx=10 dy=0 dh=10 dv=0 dx=0 dy=0 dh=0 dv=0
PairPos2: "'kern' Horizontal Kerning in Hebrew lookup 1 subtable" uniFB24 dx=10 dy=0 dh=10 dv=0 dx=0 dy=0 dh=0 dv=0
PairPos2: "'kern' Horizontal Kerning in Hebrew lookup 1 subtable" afii57675 dx=10 dy=0 dh=10 dv=0 dx=0 dy=0 dh=0 dv=0
PairPos2: "'kern' Horizontal Kerning in Hebrew lookup 1 subtable" uniFB3A dx=-20 dy=0 dh=-20 dv=0 dx=0 dy=0 dh=0 dv=0
PairPos2: "'kern' Horizontal Kerning in Hebrew lookup 1 subtable" afii57674 dx=-20 dy=0 dh=-20 dv=0 dx=0 dy=0 dh=0 dv=0
PairPos2: "'kern' Horizontal Kerning in Hebrew lookup 1 subtable" uniFB39 dx=-20 dy=0 dh=-20 dv=0 dx=0 dy=0 dh=0 dv=0
PairPos2: "'kern' Horizontal Kerning in Hebrew lookup 1 subtable" afii57673 dx=-20 dy=0 dh=-20 dv=0 dx=0 dy=0 dh=0 dv=0
PairPos2: "'kern' Horizontal Kerning in Hebrew lookup 1 subtable" afii57671 dx=-10 dy=0 dh=-10 dv=0 dx=0 dy=0 dh=0 dv=0
PairPos2: "'kern' Horizontal Kerning in Hebrew lookup 1 subtable" uniFB36 dx=-10 dy=0 dh=-10 dv=0 dx=0 dy=0 dh=0 dv=0
PairPos2: "'kern' Horizontal Kerning in Hebrew lookup 1 subtable" afii57670 dx=-10 dy=0 dh=-10 dv=0 dx=0 dy=0 dh=0 dv=0
PairPos2: "'kern' Horizontal Kerning in Hebrew lookup 1 subtable" uniFB33 dx=-10 dy=0 dh=-10 dv=0 dx=0 dy=0 dh=0 dv=0
PairPos2: "'kern' Horizontal Kerning in Hebrew lookup 1 subtable" uniFB22 dx=-10 dy=0 dh=-10 dv=0 dx=0 dy=0 dh=0 dv=0
PairPos2: "'kern' Horizontal Kerning in Hebrew lookup 1 subtable" afii57667 dx=-10 dy=0 dh=-10 dv=0 dx=0 dy=0 dh=0 dv=0
PairPos2: "'kern' Horizontal Kerning in Hebrew lookup 1 subtable" uniFB4C dx=10 dy=0 dh=10 dv=0 dx=0 dy=0 dh=0 dv=0
PairPos2: "'kern' Horizontal Kerning in Hebrew lookup 1 subtable" uniFB31 dx=10 dy=0 dh=10 dv=0 dx=0 dy=0 dh=0 dv=0
PairPos2: "'kern' Horizontal Kerning in Hebrew lookup 1 subtable" afii57665 dx=10 dy=0 dh=10 dv=0 dx=0 dy=0 dh=0 dv=0
PairPos2: "'kern' Horizontal Kerning in Hebrew lookup 1 subtable" afii57645 dx=-25 dy=0 dh=-25 dv=0 dx=0 dy=0 dh=0 dv=0
Substitution2: "WideLetters" uniFB21
Comment: "%DiaToBase1+AD0A-310+AAoA%DiaToBase2+AD0A-310+AAoA%DiaToBase3+AD0A-310+AAoA%DiaToBaseU+AD0A-300+AAoA%DiaToBaseO+AD0A-15+AAoA" 
EndChar

StartChar: afii57665
Encoding: 1489 1489 146
Width: 524
VWidth: 1000
Flags: HW
HStem: 0 190<72.3674 372.507 426.078 468.348> 400 200<124.879 374.746> 625.92 20G<100 123.125>
VStem: 57.7959 67<600 624.113> 393.682 79.9336<248.577 447.5>
AnchorPoint: "DiaToBaseD" 187 0 basechar 0
AnchorPoint: "DiaToBaseO" -62 0 basechar 0
AnchorPoint: "DiaToBaseU" 183 0 basechar 0
AnchorPoint: "DiaToBase3" 183 0 basechar 0
AnchorPoint: "DiaToBase2" 183 0 basechar 0
AnchorPoint: "DiaToBase1" 183 0 basechar 0
LayerCount: 2
Back
SplineSet
484.042 200 m 18
 506.104 200 505.831 191.295 501.75 176 c 2
 460.125 20 l 2
 456.36 5.8877 451.949 0 431.642 0 c 10
 47.6729 0 l 18
 25.2764 0 26.1738 9.20605 30.1426 25 c 2
 70.8525 187 l 2
 73.5967 197.921 78.2627 200 92.0166 200 c 10
 315.682 200 l 10
 331.197 200 348.182 200.315 355.182 204.732 c 0
 373.149 216.066 382.682 254 382.682 308.387 c 0
 382.682 346 375.809 367.363 356.5 383.463 c 0
 336.667 400 310.946 400 280.682 400 c 18
 124.796 400 l 10
 67.8291 400 40.7959 430 40.7959 519.5 c 0
 40.7959 588.5 68.5 645.92 97.5 645.92 c 4
 114.75 645.92 105.484 633.644 107.796 619 c 8
 109.451 608.512 119.296 600 127.296 600 c 2
 349 600 l 2
 444.901 600 457.115 505 457.115 394 c 0
 457.115 322 437 257 411.68 211 c 8
 409.445 206.939 411.545 200 416.18 200 c 18
 484.042 200 l 18
EndSplineSet
Fore
SplineSet
462.452 190 m 18
 484.515 190 481.909 181.295 473.729 166 c 2
 395.484 20 l 2
 387.924 5.8916 381.949 0 361.642 0 c 10
 -22.3271 0 l 18
 -44.7236 0 -41.3613 9.20605 -33.1582 25 c 2
 45.7793 177 l 2
 51.4502 187.921 56.6729 190 70.4268 190 c 10
 289.093 190 l 10
 304.607 190 321.677 190.315 329.86 194.732 c 0
 350.864 206.066 383.669 250 398.242 304.387 c 0
 408.32 342 409.243 367.363 394.249 383.463 c 0
 378.847 400 353.126 400 322.861 400 c 18
 171.976 400 l 10
 115.009 400 96.0137 430 119.995 519.5 c 0
 138.484 588.5 181.574 645.92 210.574 645.92 c 0
 227.824 645.92 215.269 633.644 213.656 619 c 8
 212.502 608.512 220.065 600 228.065 600 c 2
 449.77 600 l 2
 545.671 600 531.394 503 501.651 392 c 0
 482.358 320 440.684 247 403.038 201 c 8
 399.714 196.939 399.955 190 404.59 190 c 18
 462.452 190 l 18
EndSplineSet
PairPos2: "'kern' Horizontal Kerning in Hebrew lookup 1 subtable" uniE804 dx=-10 dy=0 dh=-10 dv=0 dx=0 dy=0 dh=0 dv=0
PairPos2: "'kern' Horizontal Kerning in Hebrew lookup 1 subtable" uniE803 dx=-10 dy=0 dh=-10 dv=0 dx=0 dy=0 dh=0 dv=0
PairPos2: "'kern' Horizontal Kerning in Hebrew lookup 1 subtable" uniE802 dx=-10 dy=0 dh=-10 dv=0 dx=0 dy=0 dh=0 dv=0
PairPos2: "'kern' Horizontal Kerning in Hebrew lookup 1 subtable" quotesingle dx=-20 dy=0 dh=-20 dv=0 dx=0 dy=0 dh=0 dv=0
PairPos2: "'kern' Horizontal Kerning in Hebrew lookup 1 subtable" quoteright dx=-20 dy=0 dh=-20 dv=0 dx=0 dy=0 dh=0 dv=0
PairPos2: "'kern' Horizontal Kerning in Hebrew lookup 1 subtable" quotedblright dx=-20 dy=0 dh=-20 dv=0 dx=0 dy=0 dh=0 dv=0
PairPos2: "'kern' Horizontal Kerning in Hebrew lookup 1 subtable" quotedbl dx=-20 dy=0 dh=-20 dv=0 dx=0 dy=0 dh=0 dv=0
PairPos2: "'kern' Horizontal Kerning in Hebrew lookup 1 subtable" question dx=-5 dy=0 dh=-5 dv=0 dx=0 dy=0 dh=0 dv=0
PairPos2: "'kern' Horizontal Kerning in Hebrew lookup 1 subtable" uniFB1D dx=-10 dy=0 dh=-10 dv=0 dx=0 dy=0 dh=0 dv=0
PairPos2: "'kern' Horizontal Kerning in Hebrew lookup 1 subtable" uniFB2D dx=-15 dy=0 dh=-15 dv=0 dx=0 dy=0 dh=0 dv=0
PairPos2: "'kern' Horizontal Kerning in Hebrew lookup 1 subtable" uniFB2C dx=-15 dy=0 dh=-15 dv=0 dx=0 dy=0 dh=0 dv=0
PairPos2: "'kern' Horizontal Kerning in Hebrew lookup 1 subtable" uniFB45 dx=-20 dy=0 dh=-20 dv=0 dx=0 dy=0 dh=0 dv=0
PairPos2: "'kern' Horizontal Kerning in Hebrew lookup 1 subtable" uniFB3D dx=-10 dy=0 dh=-10 dv=0 dx=0 dy=0 dh=0 dv=0
PairPos2: "'kern' Horizontal Kerning in Hebrew lookup 1 subtable" uniFB37 dx=-5 dy=0 dh=-5 dv=0 dx=0 dy=0 dh=0 dv=0
PairPos2: "'kern' Horizontal Kerning in Hebrew lookup 1 subtable" uni05F4 dx=-20 dy=0 dh=-20 dv=0 dx=0 dy=0 dh=0 dv=0
PairPos2: "'kern' Horizontal Kerning in Hebrew lookup 1 subtable" uni05F3 dx=-20 dy=0 dh=-20 dv=0 dx=0 dy=0 dh=0 dv=0
PairPos2: "'kern' Horizontal Kerning in Hebrew lookup 1 subtable" afii57718 dx=-10 dy=0 dh=-10 dv=0 dx=0 dy=0 dh=0 dv=0
PairPos2: "'kern' Horizontal Kerning in Hebrew lookup 1 subtable" afii57705 dx=-10 dy=0 dh=-10 dv=0 dx=0 dy=0 dh=0 dv=0
PairPos2: "'kern' Horizontal Kerning in Hebrew lookup 1 subtable" afii57717 dx=-10 dy=0 dh=-10 dv=0 dx=0 dy=0 dh=0 dv=0
PairPos2: "'kern' Horizontal Kerning in Hebrew lookup 1 subtable" uniFB4A dx=5 dy=0 dh=5 dv=0 dx=0 dy=0 dh=0 dv=0
PairPos2: "'kern' Horizontal Kerning in Hebrew lookup 1 subtable" uniFB28 dx=5 dy=0 dh=5 dv=0 dx=0 dy=0 dh=0 dv=0
PairPos2: "'kern' Horizontal Kerning in Hebrew lookup 1 subtable" afii57690 dx=5 dy=0 dh=5 dv=0 dx=0 dy=0 dh=0 dv=0
PairPos2: "'kern' Horizontal Kerning in Hebrew lookup 1 subtable" uniFB49 dx=-15 dy=0 dh=-15 dv=0 dx=0 dy=0 dh=0 dv=0
PairPos2: "'kern' Horizontal Kerning in Hebrew lookup 1 subtable" afii57695 dx=-15 dy=0 dh=-15 dv=0 dx=0 dy=0 dh=0 dv=0
PairPos2: "'kern' Horizontal Kerning in Hebrew lookup 1 subtable" afii57694 dx=-15 dy=0 dh=-15 dv=0 dx=0 dy=0 dh=0 dv=0
PairPos2: "'kern' Horizontal Kerning in Hebrew lookup 1 subtable" afii57689 dx=-15 dy=0 dh=-15 dv=0 dx=0 dy=0 dh=0 dv=0
PairPos2: "'kern' Horizontal Kerning in Hebrew lookup 1 subtable" uniFB48 dx=10 dy=0 dh=10 dv=0 dx=0 dy=0 dh=0 dv=0
PairPos2: "'kern' Horizontal Kerning in Hebrew lookup 1 subtable" afii57688 dx=10 dy=0 dh=10 dv=0 dx=0 dy=0 dh=0 dv=0
PairPos2: "'kern' Horizontal Kerning in Hebrew lookup 1 subtable" uniFB47 dx=-10 dy=0 dh=-10 dv=0 dx=0 dy=0 dh=0 dv=0
PairPos2: "'kern' Horizontal Kerning in Hebrew lookup 1 subtable" afii57687 dx=-10 dy=0 dh=-10 dv=0 dx=0 dy=0 dh=0 dv=0
PairPos2: "'kern' Horizontal Kerning in Hebrew lookup 1 subtable" uniFB46 dx=-10 dy=0 dh=-10 dv=0 dx=0 dy=0 dh=0 dv=0
PairPos2: "'kern' Horizontal Kerning in Hebrew lookup 1 subtable" afii57686 dx=-10 dy=0 dh=-10 dv=0 dx=0 dy=0 dh=0 dv=0
PairPos2: "'kern' Horizontal Kerning in Hebrew lookup 1 subtable" afii57685 dx=-20 dy=0 dh=-20 dv=0 dx=0 dy=0 dh=0 dv=0
PairPos2: "'kern' Horizontal Kerning in Hebrew lookup 1 subtable" uniFB4E dx=-10 dy=0 dh=-10 dv=0 dx=0 dy=0 dh=0 dv=0
PairPos2: "'kern' Horizontal Kerning in Hebrew lookup 1 subtable" uniFB44 dx=-10 dy=0 dh=-10 dv=0 dx=0 dy=0 dh=0 dv=0
PairPos2: "'kern' Horizontal Kerning in Hebrew lookup 1 subtable" afii57684 dx=-10 dy=0 dh=-10 dv=0 dx=0 dy=0 dh=0 dv=0
PairPos2: "'kern' Horizontal Kerning in Hebrew lookup 1 subtable" uniFB3E dx=-10 dy=0 dh=-10 dv=0 dx=0 dy=0 dh=0 dv=0
PairPos2: "'kern' Horizontal Kerning in Hebrew lookup 1 subtable" afii57678 dx=-10 dy=0 dh=-10 dv=0 dx=0 dy=0 dh=0 dv=0
PairPos2: "'kern' Horizontal Kerning in Hebrew lookup 1 subtable" uniFB26 dx=-10 dy=0 dh=-10 dv=0 dx=0 dy=0 dh=0 dv=0
PairPos2: "'kern' Horizontal Kerning in Hebrew lookup 1 subtable" afii57677 dx=-10 dy=0 dh=-10 dv=0 dx=0 dy=0 dh=0 dv=0
PairPos2: "'kern' Horizontal Kerning in Hebrew lookup 1 subtable" uniFB4D dx=-5 dy=0 dh=-5 dv=0 dx=0 dy=0 dh=0 dv=0
PairPos2: "'kern' Horizontal Kerning in Hebrew lookup 1 subtable" uniFB3B dx=-5 dy=0 dh=-5 dv=0 dx=0 dy=0 dh=0 dv=0
PairPos2: "'kern' Horizontal Kerning in Hebrew lookup 1 subtable" uniFB24 dx=-5 dy=0 dh=-5 dv=0 dx=0 dy=0 dh=0 dv=0
PairPos2: "'kern' Horizontal Kerning in Hebrew lookup 1 subtable" afii57675 dx=-5 dy=0 dh=-5 dv=0 dx=0 dy=0 dh=0 dv=0
PairPos2: "'kern' Horizontal Kerning in Hebrew lookup 1 subtable" uniFB3A dx=-10 dy=0 dh=-10 dv=0 dx=0 dy=0 dh=0 dv=0
PairPos2: "'kern' Horizontal Kerning in Hebrew lookup 1 subtable" afii57674 dx=-10 dy=0 dh=-10 dv=0 dx=0 dy=0 dh=0 dv=0
PairPos2: "'kern' Horizontal Kerning in Hebrew lookup 1 subtable" uniFB39 dx=-10 dy=0 dh=-10 dv=0 dx=0 dy=0 dh=0 dv=0
PairPos2: "'kern' Horizontal Kerning in Hebrew lookup 1 subtable" afii57673 dx=-10 dy=0 dh=-10 dv=0 dx=0 dy=0 dh=0 dv=0
PairPos2: "'kern' Horizontal Kerning in Hebrew lookup 1 subtable" uniFB38 dx=-20 dy=0 dh=-20 dv=0 dx=0 dy=0 dh=0 dv=0
PairPos2: "'kern' Horizontal Kerning in Hebrew lookup 1 subtable" afii57672 dx=-20 dy=0 dh=-20 dv=0 dx=0 dy=0 dh=0 dv=0
PairPos2: "'kern' Horizontal Kerning in Hebrew lookup 1 subtable" afii57671 dx=-5 dy=0 dh=-5 dv=0 dx=0 dy=0 dh=0 dv=0
PairPos2: "'kern' Horizontal Kerning in Hebrew lookup 1 subtable" uniFB36 dx=-10 dy=0 dh=-10 dv=0 dx=0 dy=0 dh=0 dv=0
PairPos2: "'kern' Horizontal Kerning in Hebrew lookup 1 subtable" afii57670 dx=-10 dy=0 dh=-10 dv=0 dx=0 dy=0 dh=0 dv=0
PairPos2: "'kern' Horizontal Kerning in Hebrew lookup 1 subtable" uniFB34 dx=-10 dy=0 dh=-10 dv=0 dx=0 dy=0 dh=0 dv=0
PairPos2: "'kern' Horizontal Kerning in Hebrew lookup 1 subtable" uniFB23 dx=-10 dy=0 dh=-10 dv=0 dx=0 dy=0 dh=0 dv=0
PairPos2: "'kern' Horizontal Kerning in Hebrew lookup 1 subtable" afii57668 dx=-10 dy=0 dh=-10 dv=0 dx=0 dy=0 dh=0 dv=0
PairPos2: "'kern' Horizontal Kerning in Hebrew lookup 1 subtable" uniFB33 dx=-10 dy=0 dh=-10 dv=0 dx=0 dy=0 dh=0 dv=0
PairPos2: "'kern' Horizontal Kerning in Hebrew lookup 1 subtable" uniFB22 dx=-10 dy=0 dh=-10 dv=0 dx=0 dy=0 dh=0 dv=0
PairPos2: "'kern' Horizontal Kerning in Hebrew lookup 1 subtable" afii57667 dx=-10 dy=0 dh=-10 dv=0 dx=0 dy=0 dh=0 dv=0
PairPos2: "'kern' Horizontal Kerning in Hebrew lookup 1 subtable" uniFB30 dx=-10 dy=0 dh=-10 dv=0 dx=0 dy=0 dh=0 dv=0
PairPos2: "'kern' Horizontal Kerning in Hebrew lookup 1 subtable" uniFB2F dx=-10 dy=0 dh=-10 dv=0 dx=0 dy=0 dh=0 dv=0
PairPos2: "'kern' Horizontal Kerning in Hebrew lookup 1 subtable" uniFB2E dx=-10 dy=0 dh=-10 dv=0 dx=0 dy=0 dh=0 dv=0
PairPos2: "'kern' Horizontal Kerning in Hebrew lookup 1 subtable" uniFB21 dx=-10 dy=0 dh=-10 dv=0 dx=0 dy=0 dh=0 dv=0
PairPos2: "'kern' Horizontal Kerning in Hebrew lookup 1 subtable" afii57664 dx=-10 dy=0 dh=-10 dv=0 dx=0 dy=0 dh=0 dv=0
PairPos2: "'kern' Horizontal Kerning in Hebrew lookup 1 subtable" afii57645 dx=-20 dy=0 dh=-20 dv=0 dx=0 dy=0 dh=0 dv=0
Comment: "%DiaToBase1+AD0A-260+AAoA%DiaToBase2+AD0A-260+AAoA%DiaToBase3+AD0A-260+AAoA%DiaToBaseU+AD0A-260+AAoA%DiaToBaseO+AD0A-15+AAoA" 
EndChar

StartChar: afii57666
Encoding: 1490 1490 147
Width: 384
VWidth: 1000
Flags: HMW
HStem: 0 20 0 200<74 156> 400 200<157 196>
AnchorPoint: "DiaToBaseD" 61.5361 2 basechar 0
AnchorPoint: "DiaToBaseO" -47 0 basechar 0
AnchorPoint: "DiaToBaseU" 113 0 basechar 0
AnchorPoint: "DiaToBase3" 113 0 basechar 0
AnchorPoint: "DiaToBase2" 108 0 basechar 0
AnchorPoint: "DiaToBase1" 123 0 basechar 0
LayerCount: 2
Back
SplineSet
72.5498 200 m 10x60
 109.531 200 l 2
 190.5 200 222.19 230.265 227.5 290 c 0
 233.5 357.5 227 400 173 400 c 2
 148.52 400 l 10
 91.5527 400 64.5195 430 64.5195 519.5 c 0
 64.5195 588.5 92.2236 645.92 121.224 645.92 c 0
 138.474 645.92 129.208 633.644 131.52 619 c 8
 133.175 608.512 143.02 600 151.02 600 c 2
 217.531 600 l 2
 231.531 600 312.531 597 299.531 495 c 0
 291.485 431.871 282.28 417 282.449 365 c 0
 282.752 272.257 364.277 249.5 364.277 120 c 8
 364.277 70.0283 353 -4 332 -4 c 0
 302.5 -4 293.324 41.4893 282 79 c 0
 274 105.5 256.217 157.254 237.826 157.254 c 0
 222.333 157.254 203.865 103.412 193.531 74 c 2
 174.441 19.667 l 2
 169.427 5.39551 164.626 0 144.333 0 c 2
 27.5303 0 l 2
 5.13379 0 6.03125 9.20605 10 25 c 2
 51.3848 187 l 2
 54.1904 197.905 58.8691 200 72.5498 200 c 10x60
EndSplineSet
Fore
SplineSet
50.96 190 m 10x60
 87.9414 190 l 2
 168.91 190 209.058 226.586 233.134 286 c 0
 262.718 359.008 264.18 400 210.18 400 c 2
 185.699 400 l 10
 128.732 400 109.737 430 133.719 519.5 c 0
 152.208 588.5 195.297 645.92 224.298 645.92 c 0
 241.548 645.92 228.992 633.644 227.381 619 c 8
 226.227 608.512 233.789 600 241.789 600 c 2
 308.301 600 l 2
 322.301 600 402.497 597 362.166 495 c 0
 337.204 431.871 324.015 417 310.25 365 c 0
 285.703 272.257 361.13 249.5 326.431 120 c 8
 313.041 70.0283 281.928 -4 260.928 -4 c 0
 231.428 -4 234.441 41.4893 233.168 79 c 0
 232.269 105.5 228.354 157.254 209.962 157.254 c 0
 194.469 157.254 161.574 103.412 143.359 74 c 2
 109.711 19.667 l 2
 100.873 5.39551 94.626 0 74.333 0 c 2
 -42.4697 0 l 2
 -64.8662 0 -61.5645 9.22363 -53.3008 25 c 2
 26.3115 177 l 2
 32.0391 187.905 37.2793 190 50.96 190 c 10x60
EndSplineSet
PairPos2: "'kern' Horizontal Kerning in Hebrew lookup 1 subtable" uniE804 dx=-30 dy=0 dh=-30 dv=0 dx=0 dy=0 dh=0 dv=0
PairPos2: "'kern' Horizontal Kerning in Hebrew lookup 1 subtable" uniE803 dx=-10 dy=0 dh=-10 dv=0 dx=0 dy=0 dh=0 dv=0
PairPos2: "'kern' Horizontal Kerning in Hebrew lookup 1 subtable" uniE802 dx=-10 dy=0 dh=-10 dv=0 dx=0 dy=0 dh=0 dv=0
PairPos2: "'kern' Horizontal Kerning in Hebrew lookup 1 subtable" quotesingle dx=-35 dy=0 dh=-35 dv=0 dx=0 dy=0 dh=0 dv=0
PairPos2: "'kern' Horizontal Kerning in Hebrew lookup 1 subtable" quoteright dx=-35 dy=0 dh=-35 dv=0 dx=0 dy=0 dh=0 dv=0
PairPos2: "'kern' Horizontal Kerning in Hebrew lookup 1 subtable" quotedblright dx=-35 dy=0 dh=-35 dv=0 dx=0 dy=0 dh=0 dv=0
PairPos2: "'kern' Horizontal Kerning in Hebrew lookup 1 subtable" quotedbl dx=-35 dy=0 dh=-35 dv=0 dx=0 dy=0 dh=0 dv=0
PairPos2: "'kern' Horizontal Kerning in Hebrew lookup 1 subtable" question dx=-15 dy=0 dh=-15 dv=0 dx=0 dy=0 dh=0 dv=0
PairPos2: "'kern' Horizontal Kerning in Hebrew lookup 1 subtable" period dx=20 dy=0 dh=20 dv=0 dx=0 dy=0 dh=0 dv=0
PairPos2: "'kern' Horizontal Kerning in Hebrew lookup 1 subtable" ellipsis dx=20 dy=0 dh=20 dv=0 dx=0 dy=0 dh=0 dv=0
PairPos2: "'kern' Horizontal Kerning in Hebrew lookup 1 subtable" comma dx=20 dy=0 dh=20 dv=0 dx=0 dy=0 dh=0 dv=0
PairPos2: "'kern' Horizontal Kerning in Hebrew lookup 1 subtable" uniFB1D dx=-30 dy=0 dh=-30 dv=0 dx=0 dy=0 dh=0 dv=0
PairPos2: "'kern' Horizontal Kerning in Hebrew lookup 1 subtable" uniFB2D dx=-40 dy=0 dh=-40 dv=0 dx=0 dy=0 dh=0 dv=0
PairPos2: "'kern' Horizontal Kerning in Hebrew lookup 1 subtable" uniFB2C dx=-40 dy=0 dh=-40 dv=0 dx=0 dy=0 dh=0 dv=0
PairPos2: "'kern' Horizontal Kerning in Hebrew lookup 1 subtable" uniFB45 dx=-25 dy=0 dh=-25 dv=0 dx=0 dy=0 dh=0 dv=0
PairPos2: "'kern' Horizontal Kerning in Hebrew lookup 1 subtable" uniFB42 dx=-25 dy=0 dh=-25 dv=0 dx=0 dy=0 dh=0 dv=0
PairPos2: "'kern' Horizontal Kerning in Hebrew lookup 1 subtable" uniFB3F dx=-20 dy=0 dh=-20 dv=0 dx=0 dy=0 dh=0 dv=0
PairPos2: "'kern' Horizontal Kerning in Hebrew lookup 1 subtable" uniFB3D dx=10 dy=0 dh=10 dv=0 dx=0 dy=0 dh=0 dv=0
PairPos2: "'kern' Horizontal Kerning in Hebrew lookup 1 subtable" uniFB37 dx=-10 dy=0 dh=-10 dv=0 dx=0 dy=0 dh=0 dv=0
PairPos2: "'kern' Horizontal Kerning in Hebrew lookup 1 subtable" uni05F4 dx=-35 dy=0 dh=-35 dv=0 dx=0 dy=0 dh=0 dv=0
PairPos2: "'kern' Horizontal Kerning in Hebrew lookup 1 subtable" uni05F3 dx=-35 dy=0 dh=-35 dv=0 dx=0 dy=0 dh=0 dv=0
PairPos2: "'kern' Horizontal Kerning in Hebrew lookup 1 subtable" afii57718 dx=-30 dy=0 dh=-30 dv=0 dx=0 dy=0 dh=0 dv=0
PairPos2: "'kern' Horizontal Kerning in Hebrew lookup 1 subtable" afii57705 dx=-30 dy=0 dh=-30 dv=0 dx=0 dy=0 dh=0 dv=0
PairPos2: "'kern' Horizontal Kerning in Hebrew lookup 1 subtable" afii57717 dx=-30 dy=0 dh=-30 dv=0 dx=0 dy=0 dh=0 dv=0
PairPos2: "'kern' Horizontal Kerning in Hebrew lookup 1 subtable" uniFB4A dx=10 dy=0 dh=10 dv=0 dx=0 dy=0 dh=0 dv=0
PairPos2: "'kern' Horizontal Kerning in Hebrew lookup 1 subtable" uniFB28 dx=10 dy=0 dh=10 dv=0 dx=0 dy=0 dh=0 dv=0
PairPos2: "'kern' Horizontal Kerning in Hebrew lookup 1 subtable" afii57690 dx=10 dy=0 dh=10 dv=0 dx=0 dy=0 dh=0 dv=0
PairPos2: "'kern' Horizontal Kerning in Hebrew lookup 1 subtable" uniFB49 dx=-40 dy=0 dh=-40 dv=0 dx=0 dy=0 dh=0 dv=0
PairPos2: "'kern' Horizontal Kerning in Hebrew lookup 1 subtable" afii57695 dx=-40 dy=0 dh=-40 dv=0 dx=0 dy=0 dh=0 dv=0
PairPos2: "'kern' Horizontal Kerning in Hebrew lookup 1 subtable" afii57694 dx=-40 dy=0 dh=-40 dv=0 dx=0 dy=0 dh=0 dv=0
PairPos2: "'kern' Horizontal Kerning in Hebrew lookup 1 subtable" afii57689 dx=-40 dy=0 dh=-40 dv=0 dx=0 dy=0 dh=0 dv=0
PairPos2: "'kern' Horizontal Kerning in Hebrew lookup 1 subtable" uniFB48 dx=10 dy=0 dh=10 dv=0 dx=0 dy=0 dh=0 dv=0
PairPos2: "'kern' Horizontal Kerning in Hebrew lookup 1 subtable" afii57688 dx=10 dy=0 dh=10 dv=0 dx=0 dy=0 dh=0 dv=0
PairPos2: "'kern' Horizontal Kerning in Hebrew lookup 1 subtable" uniFB47 dx=-25 dy=0 dh=-25 dv=0 dx=0 dy=0 dh=0 dv=0
PairPos2: "'kern' Horizontal Kerning in Hebrew lookup 1 subtable" afii57687 dx=-25 dy=0 dh=-25 dv=0 dx=0 dy=0 dh=0 dv=0
PairPos2: "'kern' Horizontal Kerning in Hebrew lookup 1 subtable" uniFB46 dx=-10 dy=0 dh=-10 dv=0 dx=0 dy=0 dh=0 dv=0
PairPos2: "'kern' Horizontal Kerning in Hebrew lookup 1 subtable" afii57686 dx=-10 dy=0 dh=-10 dv=0 dx=0 dy=0 dh=0 dv=0
PairPos2: "'kern' Horizontal Kerning in Hebrew lookup 1 subtable" afii57685 dx=-25 dy=0 dh=-25 dv=0 dx=0 dy=0 dh=0 dv=0
PairPos2: "'kern' Horizontal Kerning in Hebrew lookup 1 subtable" uniFB4E dx=-10 dy=0 dh=-10 dv=0 dx=0 dy=0 dh=0 dv=0
PairPos2: "'kern' Horizontal Kerning in Hebrew lookup 1 subtable" uniFB44 dx=-10 dy=0 dh=-10 dv=0 dx=0 dy=0 dh=0 dv=0
PairPos2: "'kern' Horizontal Kerning in Hebrew lookup 1 subtable" afii57684 dx=-10 dy=0 dh=-10 dv=0 dx=0 dy=0 dh=0 dv=0
PairPos2: "'kern' Horizontal Kerning in Hebrew lookup 1 subtable" afii57682 dx=-25 dy=0 dh=-25 dv=0 dx=0 dy=0 dh=0 dv=0
PairPos2: "'kern' Horizontal Kerning in Hebrew lookup 1 subtable" uniFB40 dx=10 dy=0 dh=10 dv=0 dx=0 dy=0 dh=0 dv=0
PairPos2: "'kern' Horizontal Kerning in Hebrew lookup 1 subtable" afii57680 dx=10 dy=0 dh=10 dv=0 dx=0 dy=0 dh=0 dv=0
PairPos2: "'kern' Horizontal Kerning in Hebrew lookup 1 subtable" afii57679 dx=-20 dy=0 dh=-20 dv=0 dx=0 dy=0 dh=0 dv=0
PairPos2: "'kern' Horizontal Kerning in Hebrew lookup 1 subtable" uniFB26 dx=10 dy=0 dh=10 dv=0 dx=0 dy=0 dh=0 dv=0
PairPos2: "'kern' Horizontal Kerning in Hebrew lookup 1 subtable" afii57677 dx=10 dy=0 dh=10 dv=0 dx=0 dy=0 dh=0 dv=0
PairPos2: "'kern' Horizontal Kerning in Hebrew lookup 1 subtable" uniFB3C dx=-20 dy=0 dh=-20 dv=0 dx=0 dy=0 dh=0 dv=0
PairPos2: "'kern' Horizontal Kerning in Hebrew lookup 1 subtable" uniFB25 dx=-20 dy=0 dh=-20 dv=0 dx=0 dy=0 dh=0 dv=0
PairPos2: "'kern' Horizontal Kerning in Hebrew lookup 1 subtable" afii57676 dx=-20 dy=0 dh=-20 dv=0 dx=0 dy=0 dh=0 dv=0
PairPos2: "'kern' Horizontal Kerning in Hebrew lookup 1 subtable" uniFB3A dx=-10 dy=0 dh=-10 dv=0 dx=0 dy=0 dh=0 dv=0
PairPos2: "'kern' Horizontal Kerning in Hebrew lookup 1 subtable" afii57674 dx=-10 dy=0 dh=-10 dv=0 dx=0 dy=0 dh=0 dv=0
PairPos2: "'kern' Horizontal Kerning in Hebrew lookup 1 subtable" uniFB39 dx=-30 dy=0 dh=-30 dv=0 dx=0 dy=0 dh=0 dv=0
PairPos2: "'kern' Horizontal Kerning in Hebrew lookup 1 subtable" afii57673 dx=-30 dy=0 dh=-30 dv=0 dx=0 dy=0 dh=0 dv=0
PairPos2: "'kern' Horizontal Kerning in Hebrew lookup 1 subtable" uniFB38 dx=-10 dy=0 dh=-10 dv=0 dx=0 dy=0 dh=0 dv=0
PairPos2: "'kern' Horizontal Kerning in Hebrew lookup 1 subtable" afii57672 dx=-10 dy=0 dh=-10 dv=0 dx=0 dy=0 dh=0 dv=0
PairPos2: "'kern' Horizontal Kerning in Hebrew lookup 1 subtable" afii57671 dx=-10 dy=0 dh=-10 dv=0 dx=0 dy=0 dh=0 dv=0
PairPos2: "'kern' Horizontal Kerning in Hebrew lookup 1 subtable" uniFB36 dx=-25 dy=0 dh=-25 dv=0 dx=0 dy=0 dh=0 dv=0
PairPos2: "'kern' Horizontal Kerning in Hebrew lookup 1 subtable" afii57670 dx=-25 dy=0 dh=-25 dv=0 dx=0 dy=0 dh=0 dv=0
PairPos2: "'kern' Horizontal Kerning in Hebrew lookup 1 subtable" uniFB33 dx=-10 dy=0 dh=-10 dv=0 dx=0 dy=0 dh=0 dv=0
PairPos2: "'kern' Horizontal Kerning in Hebrew lookup 1 subtable" uniFB22 dx=-10 dy=0 dh=-10 dv=0 dx=0 dy=0 dh=0 dv=0
PairPos2: "'kern' Horizontal Kerning in Hebrew lookup 1 subtable" afii57667 dx=-10 dy=0 dh=-10 dv=0 dx=0 dy=0 dh=0 dv=0
PairPos2: "'kern' Horizontal Kerning in Hebrew lookup 1 subtable" uniFB32 dx=10 dy=0 dh=10 dv=0 dx=0 dy=0 dh=0 dv=0
PairPos2: "'kern' Horizontal Kerning in Hebrew lookup 1 subtable" afii57666 dx=10 dy=0 dh=10 dv=0 dx=0 dy=0 dh=0 dv=0
PairPos2: "'kern' Horizontal Kerning in Hebrew lookup 1 subtable" afii57645 dx=-35 dy=0 dh=-35 dv=0 dx=0 dy=0 dh=0 dv=0
Comment: "%DiaToBase1+AD0A-200+AAoA%DiaToBase2+AD0A-185+AAoA%DiaToBase3+AD0A-190+AAoA%DiaToBaseU+AD0A-190+AAoA%DiaToBaseO+AD0A-30+AAoA" 
EndChar

StartChar: afii57667
Encoding: 1491 1491 148
Width: 520
VWidth: 1000
Flags: HMW
HStem: 0 20 400 200<115 386>
AnchorPoint: "DiaToBaseD" 183 0 basechar 0
AnchorPoint: "DiaToBaseO" -92 0 basechar 0
AnchorPoint: "DiaToBaseU" 243 0 basechar 0
AnchorPoint: "DiaToBase3" 223 0 basechar 0
AnchorPoint: "DiaToBase2" 283 0 basechar 0
AnchorPoint: "DiaToBase1" 293 0 basechar 0
LayerCount: 2
Back
SplineSet
125.729 400 m 10
 102.389 400 91.0645 401.714 70.0645 417.5 c 0
 60.7432 424.507 50.0645 445.783 46.0645 467.489 c 8
 42.8096 485.153 41.8395 494.255 42.0645 512.216 c 24
 42.416 540.285 44.4482 554 50.0645 581.938 c 8
 55.3604 608.281 62.5645 631.817 78.0645 643 c 8
 84.585 647.704 95.5645 646.5 98.0645 641 c 0
 99.833 637.111 96.5645 628.5 98.0645 619 c 8
 99.7627 608.243 109.564 600.024 117.564 600 c 2
 462.064 600 l 1
 489.064 600 508.396 584.938 508.73 550 c 1
 508.064 440.665 l 2
 507.207 404.685 473.729 424 447.729 369 c 0
 400.349 268.774 449.8 223.043 462.064 147 c 0
 467.064 116 466.564 74 441.064 36 c 0
 416.319 -0.874023 356.03 -11.5781 348.729 4 c 0
 341.229 20 356.729 -5.5 357.729 152.5 c 0
 357.918 182.516 346.729 252.5 373.729 329.5 c 0
 390.602 377.617 409.729 382.514 409.729 392 c 4
 409.729 402 397.718 400 388.729 400 c 22
 125.729 400 l 10
EndSplineSet
Fore
SplineSet
198.998 600 m 2
 532.834 600 l 1
 559.834 600 575.13 584.938 566.102 550 c 1
 535.828 439.5 l 2
 527.242 408.17 509.634 402.349 487.388 388.336 c 0
 448.489 363.835 422.862 318.233 414.627 287.5 c 0
 401.096 237 416.996 198.967 411.452 147 c 0
 408.146 116 396.393 74 360.71 36 c 0
 326.085 -0.874023 262.928 -11.5781 259.801 4 c 0
 256.588 20 265.255 -5.5 308.591 152.5 c 0
 316.823 182.516 324.386 252.5 372.019 329.5 c 0
 401.784 377.617 422.224 382.514 424.765 392 c 0
 426.729 399.333 420.958 400 405.908 400 c 2
 142.908 400 l 10
 85.9414 400 66.9463 430 90.9277 519.5 c 0
 109.417 588.5 152.506 645.92 181.506 645.92 c 0
 198.757 645.92 186.201 633.644 184.589 619 c 8
 183.435 608.512 190.894 600 198.998 600 c 2
EndSplineSet
PairPos2: "'kern' Horizontal Kerning in Hebrew lookup 1 subtable" uniE804 dx=10 dy=0 dh=10 dv=0 dx=0 dy=0 dh=0 dv=0
PairPos2: "'kern' Horizontal Kerning in Hebrew lookup 1 subtable" uniE803 dx=10 dy=0 dh=10 dv=0 dx=0 dy=0 dh=0 dv=0
PairPos2: "'kern' Horizontal Kerning in Hebrew lookup 1 subtable" uniE802 dx=10 dy=0 dh=10 dv=0 dx=0 dy=0 dh=0 dv=0
PairPos2: "'kern' Horizontal Kerning in Hebrew lookup 1 subtable" quotesingle dx=10 dy=0 dh=10 dv=0 dx=0 dy=0 dh=0 dv=0
PairPos2: "'kern' Horizontal Kerning in Hebrew lookup 1 subtable" quoteright dx=10 dy=0 dh=10 dv=0 dx=0 dy=0 dh=0 dv=0
PairPos2: "'kern' Horizontal Kerning in Hebrew lookup 1 subtable" quotedblright dx=10 dy=0 dh=10 dv=0 dx=0 dy=0 dh=0 dv=0
PairPos2: "'kern' Horizontal Kerning in Hebrew lookup 1 subtable" quotedbl dx=10 dy=0 dh=10 dv=0 dx=0 dy=0 dh=0 dv=0
PairPos2: "'kern' Horizontal Kerning in Hebrew lookup 1 subtable" question dx=30 dy=0 dh=30 dv=0 dx=0 dy=0 dh=0 dv=0
PairPos2: "'kern' Horizontal Kerning in Hebrew lookup 1 subtable" period dx=-80 dy=0 dh=-80 dv=0 dx=0 dy=0 dh=0 dv=0
PairPos2: "'kern' Horizontal Kerning in Hebrew lookup 1 subtable" ellipsis dx=-80 dy=0 dh=-80 dv=0 dx=0 dy=0 dh=0 dv=0
PairPos2: "'kern' Horizontal Kerning in Hebrew lookup 1 subtable" hyphen dx=20 dy=0 dh=20 dv=0 dx=0 dy=0 dh=0 dv=0
PairPos2: "'kern' Horizontal Kerning in Hebrew lookup 1 subtable" comma dx=-80 dy=0 dh=-80 dv=0 dx=0 dy=0 dh=0 dv=0
PairPos2: "'kern' Horizontal Kerning in Hebrew lookup 1 subtable" uniFB1D dx=10 dy=0 dh=10 dv=0 dx=0 dy=0 dh=0 dv=0
PairPos2: "'kern' Horizontal Kerning in Hebrew lookup 1 subtable" uniFB2D dx=10 dy=0 dh=10 dv=0 dx=0 dy=0 dh=0 dv=0
PairPos2: "'kern' Horizontal Kerning in Hebrew lookup 1 subtable" uniFB2C dx=10 dy=0 dh=10 dv=0 dx=0 dy=0 dh=0 dv=0
PairPos2: "'kern' Horizontal Kerning in Hebrew lookup 1 subtable" uniFB45 dx=10 dy=0 dh=10 dv=0 dx=0 dy=0 dh=0 dv=0
PairPos2: "'kern' Horizontal Kerning in Hebrew lookup 1 subtable" uniFB3D dx=-10 dy=0 dh=-10 dv=0 dx=0 dy=0 dh=0 dv=0
PairPos2: "'kern' Horizontal Kerning in Hebrew lookup 1 subtable" uniFB37 dx=10 dy=0 dh=10 dv=0 dx=0 dy=0 dh=0 dv=0
PairPos2: "'kern' Horizontal Kerning in Hebrew lookup 1 subtable" uni05F4 dx=10 dy=0 dh=10 dv=0 dx=0 dy=0 dh=0 dv=0
PairPos2: "'kern' Horizontal Kerning in Hebrew lookup 1 subtable" uni05F3 dx=10 dy=0 dh=10 dv=0 dx=0 dy=0 dh=0 dv=0
PairPos2: "'kern' Horizontal Kerning in Hebrew lookup 1 subtable" afii57718 dx=10 dy=0 dh=10 dv=0 dx=0 dy=0 dh=0 dv=0
PairPos2: "'kern' Horizontal Kerning in Hebrew lookup 1 subtable" afii57705 dx=10 dy=0 dh=10 dv=0 dx=0 dy=0 dh=0 dv=0
PairPos2: "'kern' Horizontal Kerning in Hebrew lookup 1 subtable" afii57717 dx=10 dy=0 dh=10 dv=0 dx=0 dy=0 dh=0 dv=0
PairPos2: "'kern' Horizontal Kerning in Hebrew lookup 1 subtable" uniFB4A dx=10 dy=0 dh=10 dv=0 dx=0 dy=0 dh=0 dv=0
PairPos2: "'kern' Horizontal Kerning in Hebrew lookup 1 subtable" uniFB28 dx=10 dy=0 dh=10 dv=0 dx=0 dy=0 dh=0 dv=0
PairPos2: "'kern' Horizontal Kerning in Hebrew lookup 1 subtable" afii57690 dx=10 dy=0 dh=10 dv=0 dx=0 dy=0 dh=0 dv=0
PairPos2: "'kern' Horizontal Kerning in Hebrew lookup 1 subtable" uniFB49 dx=10 dy=0 dh=10 dv=0 dx=0 dy=0 dh=0 dv=0
PairPos2: "'kern' Horizontal Kerning in Hebrew lookup 1 subtable" afii57695 dx=10 dy=0 dh=10 dv=0 dx=0 dy=0 dh=0 dv=0
PairPos2: "'kern' Horizontal Kerning in Hebrew lookup 1 subtable" afii57694 dx=10 dy=0 dh=10 dv=0 dx=0 dy=0 dh=0 dv=0
PairPos2: "'kern' Horizontal Kerning in Hebrew lookup 1 subtable" afii57689 dx=10 dy=0 dh=10 dv=0 dx=0 dy=0 dh=0 dv=0
PairPos2: "'kern' Horizontal Kerning in Hebrew lookup 1 subtable" uniFB48 dx=10 dy=0 dh=10 dv=0 dx=0 dy=0 dh=0 dv=0
PairPos2: "'kern' Horizontal Kerning in Hebrew lookup 1 subtable" afii57688 dx=10 dy=0 dh=10 dv=0 dx=0 dy=0 dh=0 dv=0
PairPos2: "'kern' Horizontal Kerning in Hebrew lookup 1 subtable" uniFB47 dx=10 dy=0 dh=10 dv=0 dx=0 dy=0 dh=0 dv=0
PairPos2: "'kern' Horizontal Kerning in Hebrew lookup 1 subtable" afii57687 dx=10 dy=0 dh=10 dv=0 dx=0 dy=0 dh=0 dv=0
PairPos2: "'kern' Horizontal Kerning in Hebrew lookup 1 subtable" uniFB46 dx=10 dy=0 dh=10 dv=0 dx=0 dy=0 dh=0 dv=0
PairPos2: "'kern' Horizontal Kerning in Hebrew lookup 1 subtable" afii57686 dx=10 dy=0 dh=10 dv=0 dx=0 dy=0 dh=0 dv=0
PairPos2: "'kern' Horizontal Kerning in Hebrew lookup 1 subtable" afii57685 dx=10 dy=0 dh=10 dv=0 dx=0 dy=0 dh=0 dv=0
PairPos2: "'kern' Horizontal Kerning in Hebrew lookup 1 subtable" uniFB43 dx=-10 dy=0 dh=-10 dv=0 dx=0 dy=0 dh=0 dv=0
PairPos2: "'kern' Horizontal Kerning in Hebrew lookup 1 subtable" afii57683 dx=-10 dy=0 dh=-10 dv=0 dx=0 dy=0 dh=0 dv=0
PairPos2: "'kern' Horizontal Kerning in Hebrew lookup 1 subtable" uniFB41 dx=10 dy=0 dh=10 dv=0 dx=0 dy=0 dh=0 dv=0
PairPos2: "'kern' Horizontal Kerning in Hebrew lookup 1 subtable" afii57681 dx=10 dy=0 dh=10 dv=0 dx=0 dy=0 dh=0 dv=0
PairPos2: "'kern' Horizontal Kerning in Hebrew lookup 1 subtable" uniFB26 dx=-10 dy=0 dh=-10 dv=0 dx=0 dy=0 dh=0 dv=0
PairPos2: "'kern' Horizontal Kerning in Hebrew lookup 1 subtable" afii57677 dx=-10 dy=0 dh=-10 dv=0 dx=0 dy=0 dh=0 dv=0
PairPos2: "'kern' Horizontal Kerning in Hebrew lookup 1 subtable" uniFB3C dx=20 dy=0 dh=20 dv=0 dx=0 dy=0 dh=0 dv=0
PairPos2: "'kern' Horizontal Kerning in Hebrew lookup 1 subtable" uniFB25 dx=20 dy=0 dh=20 dv=0 dx=0 dy=0 dh=0 dv=0
PairPos2: "'kern' Horizontal Kerning in Hebrew lookup 1 subtable" afii57676 dx=20 dy=0 dh=20 dv=0 dx=0 dy=0 dh=0 dv=0
PairPos2: "'kern' Horizontal Kerning in Hebrew lookup 1 subtable" uniFB4D dx=10 dy=0 dh=10 dv=0 dx=0 dy=0 dh=0 dv=0
PairPos2: "'kern' Horizontal Kerning in Hebrew lookup 1 subtable" uniFB3B dx=10 dy=0 dh=10 dv=0 dx=0 dy=0 dh=0 dv=0
PairPos2: "'kern' Horizontal Kerning in Hebrew lookup 1 subtable" uniFB24 dx=10 dy=0 dh=10 dv=0 dx=0 dy=0 dh=0 dv=0
PairPos2: "'kern' Horizontal Kerning in Hebrew lookup 1 subtable" afii57675 dx=10 dy=0 dh=10 dv=0 dx=0 dy=0 dh=0 dv=0
PairPos2: "'kern' Horizontal Kerning in Hebrew lookup 1 subtable" uniFB3A dx=10 dy=0 dh=10 dv=0 dx=0 dy=0 dh=0 dv=0
PairPos2: "'kern' Horizontal Kerning in Hebrew lookup 1 subtable" afii57674 dx=10 dy=0 dh=10 dv=0 dx=0 dy=0 dh=0 dv=0
PairPos2: "'kern' Horizontal Kerning in Hebrew lookup 1 subtable" uniFB39 dx=10 dy=0 dh=10 dv=0 dx=0 dy=0 dh=0 dv=0
PairPos2: "'kern' Horizontal Kerning in Hebrew lookup 1 subtable" afii57673 dx=10 dy=0 dh=10 dv=0 dx=0 dy=0 dh=0 dv=0
PairPos2: "'kern' Horizontal Kerning in Hebrew lookup 1 subtable" uniFB38 dx=10 dy=0 dh=10 dv=0 dx=0 dy=0 dh=0 dv=0
PairPos2: "'kern' Horizontal Kerning in Hebrew lookup 1 subtable" afii57672 dx=10 dy=0 dh=10 dv=0 dx=0 dy=0 dh=0 dv=0
PairPos2: "'kern' Horizontal Kerning in Hebrew lookup 1 subtable" afii57671 dx=10 dy=0 dh=10 dv=0 dx=0 dy=0 dh=0 dv=0
PairPos2: "'kern' Horizontal Kerning in Hebrew lookup 1 subtable" uniFB36 dx=10 dy=0 dh=10 dv=0 dx=0 dy=0 dh=0 dv=0
PairPos2: "'kern' Horizontal Kerning in Hebrew lookup 1 subtable" afii57670 dx=10 dy=0 dh=10 dv=0 dx=0 dy=0 dh=0 dv=0
PairPos2: "'kern' Horizontal Kerning in Hebrew lookup 1 subtable" uniFB34 dx=10 dy=0 dh=10 dv=0 dx=0 dy=0 dh=0 dv=0
PairPos2: "'kern' Horizontal Kerning in Hebrew lookup 1 subtable" uniFB23 dx=10 dy=0 dh=10 dv=0 dx=0 dy=0 dh=0 dv=0
PairPos2: "'kern' Horizontal Kerning in Hebrew lookup 1 subtable" afii57668 dx=10 dy=0 dh=10 dv=0 dx=0 dy=0 dh=0 dv=0
PairPos2: "'kern' Horizontal Kerning in Hebrew lookup 1 subtable" uniFB33 dx=10 dy=0 dh=10 dv=0 dx=0 dy=0 dh=0 dv=0
PairPos2: "'kern' Horizontal Kerning in Hebrew lookup 1 subtable" uniFB22 dx=10 dy=0 dh=10 dv=0 dx=0 dy=0 dh=0 dv=0
PairPos2: "'kern' Horizontal Kerning in Hebrew lookup 1 subtable" afii57667 dx=10 dy=0 dh=10 dv=0 dx=0 dy=0 dh=0 dv=0
PairPos2: "'kern' Horizontal Kerning in Hebrew lookup 1 subtable" uniFB32 dx=-25 dy=0 dh=-25 dv=0 dx=0 dy=0 dh=0 dv=0
PairPos2: "'kern' Horizontal Kerning in Hebrew lookup 1 subtable" afii57666 dx=-25 dy=0 dh=-25 dv=0 dx=0 dy=0 dh=0 dv=0
PairPos2: "'kern' Horizontal Kerning in Hebrew lookup 1 subtable" uniFB4C dx=-10 dy=0 dh=-10 dv=0 dx=0 dy=0 dh=0 dv=0
PairPos2: "'kern' Horizontal Kerning in Hebrew lookup 1 subtable" uniFB31 dx=-10 dy=0 dh=-10 dv=0 dx=0 dy=0 dh=0 dv=0
PairPos2: "'kern' Horizontal Kerning in Hebrew lookup 1 subtable" afii57665 dx=-10 dy=0 dh=-10 dv=0 dx=0 dy=0 dh=0 dv=0
PairPos2: "'kern' Horizontal Kerning in Hebrew lookup 1 subtable" afii57645 dx=10 dy=0 dh=10 dv=0 dx=0 dy=0 dh=0 dv=0
Substitution2: "WideLetters" uniFB22
Comment: "%DiaToBase1+AD0A-370+AAoA%DiaToBase2+AD0A-360+AAoA%DiaToBase3+AD0A-300+AAoA%DiaToBaseU+AD0A-320+AAoA%DiaToBaseO+AD0A--15+AAoA" 
EndChar

StartChar: afii57668
Encoding: 1492 1492 149
Width: 557
VWidth: 1000
Flags: HMW
HStem: 0 20 400 200<129 448>
AnchorPoint: "DiaToBaseD" 200 0 basechar 0
AnchorPoint: "DiaToBaseU" 193 0 basechar 0
AnchorPoint: "DiaToBase3" 198 0 basechar 0
AnchorPoint: "DiaToBase2" 183 0 basechar 0
AnchorPoint: "DiaToBase1" 193 0 basechar 0
LayerCount: 2
Back
SplineSet
129.794 400 m 10
 106.453 400 95.1289 401.714 74.1289 417.5 c 0
 64.8076 424.507 54.1289 445.783 50.1289 467.489 c 8
 46.874 485.153 45.9039 494.255 46.1289 512.216 c 24
 46.4805 540.285 48.5127 554 54.1289 581.938 c 8
 59.4248 608.281 66.6289 631.817 82.1289 643 c 8
 88.6494 647.704 99.6289 646.5 102.129 641 c 0
 103.897 637.111 100.629 628.5 102.129 619 c 8
 103.827 608.243 113.629 600.024 121.629 600 c 2
 466.129 600 l 1
 493.129 600 512.459 584.938 512.796 550 c 1
 512.129 453 l 2
 511.768 400.502 492.794 397 480.794 369 c 0
 437.792 268.662 482.864 223.043 495.129 147 c 0
 500.129 116 499.629 74 474.129 36 c 0
 449.385 -0.874023 389.095 -11.5781 381.793 4 c 0
 374.293 20 389.793 -5.5 390.793 152.5 c 0
 390.983 182.516 379.794 252.5 406.794 329.5 c 0
 423.666 377.617 442.794 382.514 442.794 392 c 0
 442.794 402 430.783 400 421.794 400 c 18
 129.794 400 l 10
161.594 293.65 m 0
 170.594 293.65 174.794 291.95 171.794 286 c 0
 161.774 266.129 162.293 205.512 165.794 154.676 c 0
 166.993 137.25 167.178 67.5811 152.594 48.8506 c 0
 127.794 17 72.1934 -1.25 59.5938 -0.400391 c 0
 50.3213 0.225586 46.3936 4.27441 49.7441 10.2246 c 0
 55.1875 19.8936 57.2979 44.0176 58.3936 113.074 c 0
 59.2773 168.753 54.7939 225 78.1934 252.05 c 0
 98.5869 275.625 126.174 293.65 161.594 293.65 c 0
EndSplineSet
Fore
SplineSet
212.986 600 m 2
 556.898 600 l 2
 583.898 600 599.77 584.938 590.168 550 c 2
 564.181 453 l 2
 549.753 400.502 527.311 397 508.785 369 c 0
 442.401 268.662 476.843 223.043 471.389 147 c 0
 469.164 116 458.877 74 424.522 36 c 0
 391.186 -0.874023 328.4 -11.5781 324.729 4 c 0
 320.958 20 330.515 -5.5 368.334 152.5 c 0
 375.518 182.516 380.637 252.5 425.581 329.5 c 0
 453.665 377.617 475.288 382.514 477.83 392 c 0
 479.349 397.667 478.18 400 458.974 400 c 2
 156.894 400 l 10
 99.9268 400 80.9316 430 104.913 519.5 c 0
 123.402 588.5 166.492 645.92 195.492 645.92 c 0
 212.742 645.92 200.187 633.644 198.574 619 c 8
 197.42 608.511 204.82 600 212.986 600 c 2
160.277 293.65 m 0
 169.277 293.65 173.021 291.95 168.428 286 c 0
 153.083 266.129 139.299 205.608 127.239 154.676 c 0
 118.082 116 108.096 75 78.0576 45 c 0
 45.4639 12.4482 -8.1416 -1.25 -20.5137 -0.400391 c 0
 -29.6182 0.225586 -32.4609 4.27441 -27.5166 10.2246 c 0
 -19.4824 19.8936 -10.9072 44.0176 8.69141 113.074 c 0
 24.4941 168.753 35.082 225 65.7305 252.05 c 0
 92.4404 275.625 124.857 293.65 160.277 293.65 c 0
EndSplineSet
PairPos2: "'kern' Horizontal Kerning in Hebrew lookup 1 subtable" uniE801 dx=10 dy=0 dh=10 dv=0 dx=0 dy=0 dh=0 dv=0
PairPos2: "'kern' Horizontal Kerning in Hebrew lookup 1 subtable" quotesingle dx=5 dy=0 dh=5 dv=0 dx=0 dy=0 dh=0 dv=0
PairPos2: "'kern' Horizontal Kerning in Hebrew lookup 1 subtable" quoteright dx=5 dy=0 dh=5 dv=0 dx=0 dy=0 dh=0 dv=0
PairPos2: "'kern' Horizontal Kerning in Hebrew lookup 1 subtable" quotedblright dx=5 dy=0 dh=5 dv=0 dx=0 dy=0 dh=0 dv=0
PairPos2: "'kern' Horizontal Kerning in Hebrew lookup 1 subtable" quotedbl dx=5 dy=0 dh=5 dv=0 dx=0 dy=0 dh=0 dv=0
PairPos2: "'kern' Horizontal Kerning in Hebrew lookup 1 subtable" question dx=15 dy=0 dh=15 dv=0 dx=0 dy=0 dh=0 dv=0
PairPos2: "'kern' Horizontal Kerning in Hebrew lookup 1 subtable" uniFB3D dx=10 dy=0 dh=10 dv=0 dx=0 dy=0 dh=0 dv=0
PairPos2: "'kern' Horizontal Kerning in Hebrew lookup 1 subtable" uni05F4 dx=5 dy=0 dh=5 dv=0 dx=0 dy=0 dh=0 dv=0
PairPos2: "'kern' Horizontal Kerning in Hebrew lookup 1 subtable" uni05F3 dx=5 dy=0 dh=5 dv=0 dx=0 dy=0 dh=0 dv=0
PairPos2: "'kern' Horizontal Kerning in Hebrew lookup 1 subtable" afii57716 dx=10 dy=0 dh=10 dv=0 dx=0 dy=0 dh=0 dv=0
PairPos2: "'kern' Horizontal Kerning in Hebrew lookup 1 subtable" uniFB4A dx=10 dy=0 dh=10 dv=0 dx=0 dy=0 dh=0 dv=0
PairPos2: "'kern' Horizontal Kerning in Hebrew lookup 1 subtable" uniFB28 dx=10 dy=0 dh=10 dv=0 dx=0 dy=0 dh=0 dv=0
PairPos2: "'kern' Horizontal Kerning in Hebrew lookup 1 subtable" afii57690 dx=10 dy=0 dh=10 dv=0 dx=0 dy=0 dh=0 dv=0
PairPos2: "'kern' Horizontal Kerning in Hebrew lookup 1 subtable" uniFB48 dx=20 dy=0 dh=20 dv=0 dx=0 dy=0 dh=0 dv=0
PairPos2: "'kern' Horizontal Kerning in Hebrew lookup 1 subtable" afii57688 dx=20 dy=0 dh=20 dv=0 dx=0 dy=0 dh=0 dv=0
PairPos2: "'kern' Horizontal Kerning in Hebrew lookup 1 subtable" uniFB47 dx=10 dy=0 dh=10 dv=0 dx=0 dy=0 dh=0 dv=0
PairPos2: "'kern' Horizontal Kerning in Hebrew lookup 1 subtable" afii57687 dx=10 dy=0 dh=10 dv=0 dx=0 dy=0 dh=0 dv=0
PairPos2: "'kern' Horizontal Kerning in Hebrew lookup 1 subtable" uniFB41 dx=10 dy=0 dh=10 dv=0 dx=0 dy=0 dh=0 dv=0
PairPos2: "'kern' Horizontal Kerning in Hebrew lookup 1 subtable" afii57681 dx=10 dy=0 dh=10 dv=0 dx=0 dy=0 dh=0 dv=0
PairPos2: "'kern' Horizontal Kerning in Hebrew lookup 1 subtable" uniFB40 dx=10 dy=0 dh=10 dv=0 dx=0 dy=0 dh=0 dv=0
PairPos2: "'kern' Horizontal Kerning in Hebrew lookup 1 subtable" afii57680 dx=10 dy=0 dh=10 dv=0 dx=0 dy=0 dh=0 dv=0
PairPos2: "'kern' Horizontal Kerning in Hebrew lookup 1 subtable" uniFB3E dx=10 dy=0 dh=10 dv=0 dx=0 dy=0 dh=0 dv=0
PairPos2: "'kern' Horizontal Kerning in Hebrew lookup 1 subtable" afii57678 dx=10 dy=0 dh=10 dv=0 dx=0 dy=0 dh=0 dv=0
PairPos2: "'kern' Horizontal Kerning in Hebrew lookup 1 subtable" uniFB26 dx=10 dy=0 dh=10 dv=0 dx=0 dy=0 dh=0 dv=0
PairPos2: "'kern' Horizontal Kerning in Hebrew lookup 1 subtable" afii57677 dx=10 dy=0 dh=10 dv=0 dx=0 dy=0 dh=0 dv=0
PairPos2: "'kern' Horizontal Kerning in Hebrew lookup 1 subtable" uniFB3C dx=20 dy=0 dh=20 dv=0 dx=0 dy=0 dh=0 dv=0
PairPos2: "'kern' Horizontal Kerning in Hebrew lookup 1 subtable" uniFB25 dx=20 dy=0 dh=20 dv=0 dx=0 dy=0 dh=0 dv=0
PairPos2: "'kern' Horizontal Kerning in Hebrew lookup 1 subtable" afii57676 dx=20 dy=0 dh=20 dv=0 dx=0 dy=0 dh=0 dv=0
PairPos2: "'kern' Horizontal Kerning in Hebrew lookup 1 subtable" uniFB4D dx=20 dy=0 dh=20 dv=0 dx=0 dy=0 dh=0 dv=0
PairPos2: "'kern' Horizontal Kerning in Hebrew lookup 1 subtable" uniFB3B dx=20 dy=0 dh=20 dv=0 dx=0 dy=0 dh=0 dv=0
PairPos2: "'kern' Horizontal Kerning in Hebrew lookup 1 subtable" uniFB24 dx=20 dy=0 dh=20 dv=0 dx=0 dy=0 dh=0 dv=0
PairPos2: "'kern' Horizontal Kerning in Hebrew lookup 1 subtable" afii57675 dx=20 dy=0 dh=20 dv=0 dx=0 dy=0 dh=0 dv=0
PairPos2: "'kern' Horizontal Kerning in Hebrew lookup 1 subtable" afii57723 dx=10 dy=0 dh=10 dv=0 dx=0 dy=0 dh=0 dv=0
PairPos2: "'kern' Horizontal Kerning in Hebrew lookup 1 subtable" afii57700 dx=10 dy=0 dh=10 dv=0 dx=0 dy=0 dh=0 dv=0
PairPos2: "'kern' Horizontal Kerning in Hebrew lookup 1 subtable" afii57669 dx=10 dy=0 dh=10 dv=0 dx=0 dy=0 dh=0 dv=0
PairPos2: "'kern' Horizontal Kerning in Hebrew lookup 1 subtable" uniFB33 dx=10 dy=0 dh=10 dv=0 dx=0 dy=0 dh=0 dv=0
PairPos2: "'kern' Horizontal Kerning in Hebrew lookup 1 subtable" uniFB22 dx=10 dy=0 dh=10 dv=0 dx=0 dy=0 dh=0 dv=0
PairPos2: "'kern' Horizontal Kerning in Hebrew lookup 1 subtable" afii57667 dx=10 dy=0 dh=10 dv=0 dx=0 dy=0 dh=0 dv=0
PairPos2: "'kern' Horizontal Kerning in Hebrew lookup 1 subtable" uniFB32 dx=10 dy=0 dh=10 dv=0 dx=0 dy=0 dh=0 dv=0
PairPos2: "'kern' Horizontal Kerning in Hebrew lookup 1 subtable" afii57666 dx=10 dy=0 dh=10 dv=0 dx=0 dy=0 dh=0 dv=0
PairPos2: "'kern' Horizontal Kerning in Hebrew lookup 1 subtable" uniFB4C dx=10 dy=0 dh=10 dv=0 dx=0 dy=0 dh=0 dv=0
PairPos2: "'kern' Horizontal Kerning in Hebrew lookup 1 subtable" uniFB31 dx=10 dy=0 dh=10 dv=0 dx=0 dy=0 dh=0 dv=0
PairPos2: "'kern' Horizontal Kerning in Hebrew lookup 1 subtable" afii57665 dx=10 dy=0 dh=10 dv=0 dx=0 dy=0 dh=0 dv=0
PairPos2: "'kern' Horizontal Kerning in Hebrew lookup 1 subtable" afii57645 dx=-5 dy=0 dh=-5 dv=0 dx=0 dy=0 dh=0 dv=0
Substitution2: "WideLetters" uniFB23
Comment: "%DiaToBase1+AD0A-270+AAoA%DiaToBase2+AD0A-260+AAoA%DiaToBase3+AD0A-275+AAoA%DiaToBaseU+AD0A-270+AAoA" 
EndChar

StartChar: afii57669
Encoding: 1493 1493 150
Width: 329
VWidth: 1000
Flags: HMW
HStem: 0 20 400 200<126 157>
AnchorPoint: "DiaToBaseD" 62.5361 2 basechar 0
AnchorPoint: "DiaToBaseU" 103 0 basechar 0
AnchorPoint: "DiaToBase3" 103 0 basechar 0
AnchorPoint: "DiaToBase2" 123 0 basechar 0
AnchorPoint: "DiaToBase1" 158 0 basechar 0
LayerCount: 2
Back
SplineSet
118.767 600 m 2
 175.641 600 l 2
 269.251 600 279 523.866 279 468 c 0
 279 325.568 279 202.341 279 73 c 0
 279 55.2832 276.041 41.1035 273.074 32.5 c 8
 265.309 9.97949 234.155 -6.5 225.655 -6 c 12
 219.323 -5.62793 214 -0.842773 214 5.5 c 20
 214 100 214 224 214 317 c 4
 214 348 212 400 141.641 400 c 6
 116.267 400 l 10
 59.2998 400 32.2666 430 32.2666 519.5 c 0
 32.2666 588.5 59.9707 645.92 88.9707 645.92 c 0
 106.221 645.92 96.9551 633.644 99.2666 619 c 8
 100.922 608.512 110.662 600 118.767 600 c 2
EndSplineSet
Fore
SplineSet
209.536 600 m 2
 266.41 600 l 2
 360.021 600 349.369 523.866 334.4 468 c 0
 296.235 325.568 263.217 202.341 228.561 73 c 0
 223.813 55.2832 217.055 41.1035 211.782 32.5 c 8
 197.088 8.52051 157.413 -6.5 149.047 -6 c 8
 142.772 -5.625 138.763 -0.885742 140.474 5.5 c 16
 165.795 100 199.021 224 223.939 317 c 0
 232.246 348 244.18 400 173.82 400 c 2
 153.446 400 l 10
 96.4795 400 77.4844 430 101.466 519.5 c 0
 119.955 588.5 163.045 645.92 192.045 645.92 c 0
 209.295 645.92 196.739 633.644 195.128 619 c 8
 193.973 608.512 201.432 600 209.536 600 c 2
EndSplineSet
PairPos2: "'kern' Horizontal Kerning in Hebrew lookup 1 subtable" quotesingle dx=-5 dy=0 dh=-5 dv=0 dx=0 dy=0 dh=0 dv=0
PairPos2: "'kern' Horizontal Kerning in Hebrew lookup 1 subtable" quoteright dx=-5 dy=0 dh=-5 dv=0 dx=0 dy=0 dh=0 dv=0
PairPos2: "'kern' Horizontal Kerning in Hebrew lookup 1 subtable" quotedblright dx=-5 dy=0 dh=-5 dv=0 dx=0 dy=0 dh=0 dv=0
PairPos2: "'kern' Horizontal Kerning in Hebrew lookup 1 subtable" quotedbl dx=-5 dy=0 dh=-5 dv=0 dx=0 dy=0 dh=0 dv=0
PairPos2: "'kern' Horizontal Kerning in Hebrew lookup 1 subtable" question dx=15 dy=0 dh=15 dv=0 dx=0 dy=0 dh=0 dv=0
PairPos2: "'kern' Horizontal Kerning in Hebrew lookup 1 subtable" period dx=-80 dy=0 dh=-80 dv=0 dx=0 dy=0 dh=0 dv=0
PairPos2: "'kern' Horizontal Kerning in Hebrew lookup 1 subtable" ellipsis dx=-80 dy=0 dh=-80 dv=0 dx=0 dy=0 dh=0 dv=0
PairPos2: "'kern' Horizontal Kerning in Hebrew lookup 1 subtable" comma dx=-80 dy=0 dh=-80 dv=0 dx=0 dy=0 dh=0 dv=0
PairPos2: "'kern' Horizontal Kerning in Hebrew lookup 1 subtable" uniFB3D dx=-20 dy=0 dh=-20 dv=0 dx=0 dy=0 dh=0 dv=0
PairPos2: "'kern' Horizontal Kerning in Hebrew lookup 1 subtable" uni05F4 dx=-5 dy=0 dh=-5 dv=0 dx=0 dy=0 dh=0 dv=0
PairPos2: "'kern' Horizontal Kerning in Hebrew lookup 1 subtable" uni05F3 dx=-5 dy=0 dh=-5 dv=0 dx=0 dy=0 dh=0 dv=0
PairPos2: "'kern' Horizontal Kerning in Hebrew lookup 1 subtable" uniFB4E dx=-10 dy=0 dh=-10 dv=0 dx=0 dy=0 dh=0 dv=0
PairPos2: "'kern' Horizontal Kerning in Hebrew lookup 1 subtable" uniFB44 dx=-10 dy=0 dh=-10 dv=0 dx=0 dy=0 dh=0 dv=0
PairPos2: "'kern' Horizontal Kerning in Hebrew lookup 1 subtable" afii57684 dx=-10 dy=0 dh=-10 dv=0 dx=0 dy=0 dh=0 dv=0
PairPos2: "'kern' Horizontal Kerning in Hebrew lookup 1 subtable" uniFB43 dx=-20 dy=0 dh=-20 dv=0 dx=0 dy=0 dh=0 dv=0
PairPos2: "'kern' Horizontal Kerning in Hebrew lookup 1 subtable" afii57683 dx=-20 dy=0 dh=-20 dv=0 dx=0 dy=0 dh=0 dv=0
PairPos2: "'kern' Horizontal Kerning in Hebrew lookup 1 subtable" uniFB40 dx=-5 dy=0 dh=-5 dv=0 dx=0 dy=0 dh=0 dv=0
PairPos2: "'kern' Horizontal Kerning in Hebrew lookup 1 subtable" afii57680 dx=-5 dy=0 dh=-5 dv=0 dx=0 dy=0 dh=0 dv=0
PairPos2: "'kern' Horizontal Kerning in Hebrew lookup 1 subtable" uniFB26 dx=-20 dy=0 dh=-20 dv=0 dx=0 dy=0 dh=0 dv=0
PairPos2: "'kern' Horizontal Kerning in Hebrew lookup 1 subtable" afii57677 dx=-20 dy=0 dh=-20 dv=0 dx=0 dy=0 dh=0 dv=0
PairPos2: "'kern' Horizontal Kerning in Hebrew lookup 1 subtable" uniFB3C dx=10 dy=0 dh=10 dv=0 dx=0 dy=0 dh=0 dv=0
PairPos2: "'kern' Horizontal Kerning in Hebrew lookup 1 subtable" uniFB25 dx=10 dy=0 dh=10 dv=0 dx=0 dy=0 dh=0 dv=0
PairPos2: "'kern' Horizontal Kerning in Hebrew lookup 1 subtable" afii57676 dx=10 dy=0 dh=10 dv=0 dx=0 dy=0 dh=0 dv=0
PairPos2: "'kern' Horizontal Kerning in Hebrew lookup 1 subtable" uniFB4D dx=-5 dy=0 dh=-5 dv=0 dx=0 dy=0 dh=0 dv=0
PairPos2: "'kern' Horizontal Kerning in Hebrew lookup 1 subtable" uniFB3B dx=-5 dy=0 dh=-5 dv=0 dx=0 dy=0 dh=0 dv=0
PairPos2: "'kern' Horizontal Kerning in Hebrew lookup 1 subtable" uniFB24 dx=-5 dy=0 dh=-5 dv=0 dx=0 dy=0 dh=0 dv=0
PairPos2: "'kern' Horizontal Kerning in Hebrew lookup 1 subtable" afii57675 dx=-5 dy=0 dh=-5 dv=0 dx=0 dy=0 dh=0 dv=0
PairPos2: "'kern' Horizontal Kerning in Hebrew lookup 1 subtable" uniFB32 dx=-35 dy=0 dh=-35 dv=0 dx=0 dy=0 dh=0 dv=0
PairPos2: "'kern' Horizontal Kerning in Hebrew lookup 1 subtable" afii57666 dx=-35 dy=0 dh=-35 dv=0 dx=0 dy=0 dh=0 dv=0
PairPos2: "'kern' Horizontal Kerning in Hebrew lookup 1 subtable" uniFB4C dx=-10 dy=0 dh=-10 dv=0 dx=0 dy=0 dh=0 dv=0
PairPos2: "'kern' Horizontal Kerning in Hebrew lookup 1 subtable" uniFB31 dx=-10 dy=0 dh=-10 dv=0 dx=0 dy=0 dh=0 dv=0
PairPos2: "'kern' Horizontal Kerning in Hebrew lookup 1 subtable" afii57665 dx=-10 dy=0 dh=-10 dv=0 dx=0 dy=0 dh=0 dv=0
Comment: "%DiaToBase1+AD0A-235+AAoA%DiaToBase2+AD0A-200+AAoA%DiaToBase3+AD0A-180+AAoA%DiaToBaseU+AD0A-180+AAoA" 
EndChar

StartChar: afii57670
Encoding: 1494 1494 151
Width: 342
VWidth: 1000
Flags: HMW
HStem: 0 20 400 200<120 152>
AnchorPoint: "DiaToBaseD" -13 0 basechar 0
AnchorPoint: "DiaToBaseU" 73 0 basechar 0
AnchorPoint: "DiaToBase3" 83 0 basechar 0
AnchorPoint: "DiaToBase2" 83 0 basechar 0
AnchorPoint: "DiaToBase1" 83 0 basechar 0
LayerCount: 2
Back
SplineSet
236.149 147 m 0
 241.312 116.5 240.649 74 215.149 36 c 0
 190.405 -0.874023 130.116 -11.5781 122.813 4 c 0
 115.313 20 130.813 -5 131.813 152.5 c 0
 132.005 182.516 125.813 252.5 138.954 305.889 c 0
 155.754 374.153 172.313 367.5 169.753 388.984 c 0
 168.089 402.948 156.89 400 146.653 400 c 18
 125.979 400 l 10
 102.638 400 91.3135 401.714 70.3135 417.5 c 4
 60.9922 424.507 50.3135 445.783 46.3135 467.489 c 12
 43.0586 485.153 42.0885 494.255 42.3135 512.216 c 28
 42.665 540.285 44.6973 554 50.3135 581.938 c 12
 55.6094 608.281 62.8135 631.817 78.3135 643 c 12
 84.834 647.704 95.8135 646.5 98.3135 641 c 4
 100.082 637.111 96.8135 628.5 98.3135 619 c 12
 100.012 608.243 109.817 600.241 117.813 600 c 2
 189.553 600 l 2
 204.946 599.535 273.833 584.967 299.553 542.5 c 24
 335.158 483.712 314.954 393.209 299.553 370.675 c 0
 287.261 352.688 245.312 420.301 220.353 384.759 c 0
 186.813 337 223.291 222.945 236.149 147 c 0
EndSplineSet
Fore
SplineSet
204.27 600 m 2
 260.77 600 l 2
 321.217 600 347.394 582 359.113 556.5 c 8
 386.056 497.88 335.314 393.209 313.875 370.675 c 0
 296.764 352.688 272.932 420.301 238.449 384.759 c 0
 192.112 337 198.029 222.945 190.537 147 c 0
 187.528 116.5 175.478 74 139.795 36 c 0
 105.171 -0.874023 42.0137 -11.5781 38.8848 4 c 0
 35.6719 20 44.4736 -5 87.6748 152.5 c 0
 95.9102 182.516 108.47 252.5 135.917 305.889 c 0
 171.008 374.153 185.784 367.5 188.98 388.984 c 0
 191.059 402.948 178.813 400 168.833 400 c 18
 148.181 400 l 10
 91.2139 400 72.2178 430 96.1992 519.5 c 0
 114.688 588.5 157.778 645.92 186.777 645.92 c 0
 204.027 645.92 191.473 633.644 189.861 619 c 8
 188.707 608.512 196.166 600 204.27 600 c 2
EndSplineSet
PairPos2: "'kern' Horizontal Kerning in Hebrew lookup 1 subtable" uniE804 dx=10 dy=0 dh=10 dv=0 dx=0 dy=0 dh=0 dv=0
PairPos2: "'kern' Horizontal Kerning in Hebrew lookup 1 subtable" question dx=20 dy=0 dh=20 dv=0 dx=0 dy=0 dh=0 dv=0
PairPos2: "'kern' Horizontal Kerning in Hebrew lookup 1 subtable" period dx=-50 dy=0 dh=-50 dv=0 dx=0 dy=0 dh=0 dv=0
PairPos2: "'kern' Horizontal Kerning in Hebrew lookup 1 subtable" ellipsis dx=-50 dy=0 dh=-50 dv=0 dx=0 dy=0 dh=0 dv=0
PairPos2: "'kern' Horizontal Kerning in Hebrew lookup 1 subtable" comma dx=-50 dy=0 dh=-50 dv=0 dx=0 dy=0 dh=0 dv=0
PairPos2: "'kern' Horizontal Kerning in Hebrew lookup 1 subtable" uniFB1D dx=10 dy=0 dh=10 dv=0 dx=0 dy=0 dh=0 dv=0
PairPos2: "'kern' Horizontal Kerning in Hebrew lookup 1 subtable" uniFB3F dx=10 dy=0 dh=10 dv=0 dx=0 dy=0 dh=0 dv=0
PairPos2: "'kern' Horizontal Kerning in Hebrew lookup 1 subtable" uniFB37 dx=10 dy=0 dh=10 dv=0 dx=0 dy=0 dh=0 dv=0
PairPos2: "'kern' Horizontal Kerning in Hebrew lookup 1 subtable" afii57718 dx=10 dy=0 dh=10 dv=0 dx=0 dy=0 dh=0 dv=0
PairPos2: "'kern' Horizontal Kerning in Hebrew lookup 1 subtable" afii57705 dx=10 dy=0 dh=10 dv=0 dx=0 dy=0 dh=0 dv=0
PairPos2: "'kern' Horizontal Kerning in Hebrew lookup 1 subtable" afii57717 dx=10 dy=0 dh=10 dv=0 dx=0 dy=0 dh=0 dv=0
PairPos2: "'kern' Horizontal Kerning in Hebrew lookup 1 subtable" uniFB4A dx=5 dy=0 dh=5 dv=0 dx=0 dy=0 dh=0 dv=0
PairPos2: "'kern' Horizontal Kerning in Hebrew lookup 1 subtable" uniFB28 dx=5 dy=0 dh=5 dv=0 dx=0 dy=0 dh=0 dv=0
PairPos2: "'kern' Horizontal Kerning in Hebrew lookup 1 subtable" afii57690 dx=5 dy=0 dh=5 dv=0 dx=0 dy=0 dh=0 dv=0
PairPos2: "'kern' Horizontal Kerning in Hebrew lookup 1 subtable" uniFB4E dx=-10 dy=0 dh=-10 dv=0 dx=0 dy=0 dh=0 dv=0
PairPos2: "'kern' Horizontal Kerning in Hebrew lookup 1 subtable" uniFB44 dx=-10 dy=0 dh=-10 dv=0 dx=0 dy=0 dh=0 dv=0
PairPos2: "'kern' Horizontal Kerning in Hebrew lookup 1 subtable" afii57684 dx=-10 dy=0 dh=-10 dv=0 dx=0 dy=0 dh=0 dv=0
PairPos2: "'kern' Horizontal Kerning in Hebrew lookup 1 subtable" uniFB43 dx=-10 dy=0 dh=-10 dv=0 dx=0 dy=0 dh=0 dv=0
PairPos2: "'kern' Horizontal Kerning in Hebrew lookup 1 subtable" afii57683 dx=-10 dy=0 dh=-10 dv=0 dx=0 dy=0 dh=0 dv=0
PairPos2: "'kern' Horizontal Kerning in Hebrew lookup 1 subtable" uniFB41 dx=10 dy=0 dh=10 dv=0 dx=0 dy=0 dh=0 dv=0
PairPos2: "'kern' Horizontal Kerning in Hebrew lookup 1 subtable" afii57681 dx=10 dy=0 dh=10 dv=0 dx=0 dy=0 dh=0 dv=0
PairPos2: "'kern' Horizontal Kerning in Hebrew lookup 1 subtable" uniFB40 dx=-5 dy=0 dh=-5 dv=0 dx=0 dy=0 dh=0 dv=0
PairPos2: "'kern' Horizontal Kerning in Hebrew lookup 1 subtable" afii57680 dx=-5 dy=0 dh=-5 dv=0 dx=0 dy=0 dh=0 dv=0
PairPos2: "'kern' Horizontal Kerning in Hebrew lookup 1 subtable" afii57679 dx=10 dy=0 dh=10 dv=0 dx=0 dy=0 dh=0 dv=0
PairPos2: "'kern' Horizontal Kerning in Hebrew lookup 1 subtable" uniFB3E dx=-5 dy=0 dh=-5 dv=0 dx=0 dy=0 dh=0 dv=0
PairPos2: "'kern' Horizontal Kerning in Hebrew lookup 1 subtable" afii57678 dx=-5 dy=0 dh=-5 dv=0 dx=0 dy=0 dh=0 dv=0
PairPos2: "'kern' Horizontal Kerning in Hebrew lookup 1 subtable" uniFB3C dx=15 dy=0 dh=15 dv=0 dx=0 dy=0 dh=0 dv=0
PairPos2: "'kern' Horizontal Kerning in Hebrew lookup 1 subtable" uniFB25 dx=15 dy=0 dh=15 dv=0 dx=0 dy=0 dh=0 dv=0
PairPos2: "'kern' Horizontal Kerning in Hebrew lookup 1 subtable" afii57676 dx=15 dy=0 dh=15 dv=0 dx=0 dy=0 dh=0 dv=0
PairPos2: "'kern' Horizontal Kerning in Hebrew lookup 1 subtable" uniFB39 dx=10 dy=0 dh=10 dv=0 dx=0 dy=0 dh=0 dv=0
PairPos2: "'kern' Horizontal Kerning in Hebrew lookup 1 subtable" afii57673 dx=10 dy=0 dh=10 dv=0 dx=0 dy=0 dh=0 dv=0
PairPos2: "'kern' Horizontal Kerning in Hebrew lookup 1 subtable" uniFB38 dx=-5 dy=0 dh=-5 dv=0 dx=0 dy=0 dh=0 dv=0
PairPos2: "'kern' Horizontal Kerning in Hebrew lookup 1 subtable" afii57672 dx=-5 dy=0 dh=-5 dv=0 dx=0 dy=0 dh=0 dv=0
PairPos2: "'kern' Horizontal Kerning in Hebrew lookup 1 subtable" afii57671 dx=10 dy=0 dh=10 dv=0 dx=0 dy=0 dh=0 dv=0
PairPos2: "'kern' Horizontal Kerning in Hebrew lookup 1 subtable" uniFB36 dx=5 dy=0 dh=5 dv=0 dx=0 dy=0 dh=0 dv=0
PairPos2: "'kern' Horizontal Kerning in Hebrew lookup 1 subtable" afii57670 dx=5 dy=0 dh=5 dv=0 dx=0 dy=0 dh=0 dv=0
PairPos2: "'kern' Horizontal Kerning in Hebrew lookup 1 subtable" uniFB34 dx=10 dy=0 dh=10 dv=0 dx=0 dy=0 dh=0 dv=0
PairPos2: "'kern' Horizontal Kerning in Hebrew lookup 1 subtable" uniFB23 dx=10 dy=0 dh=10 dv=0 dx=0 dy=0 dh=0 dv=0
PairPos2: "'kern' Horizontal Kerning in Hebrew lookup 1 subtable" afii57668 dx=10 dy=0 dh=10 dv=0 dx=0 dy=0 dh=0 dv=0
PairPos2: "'kern' Horizontal Kerning in Hebrew lookup 1 subtable" uniFB33 dx=15 dy=0 dh=15 dv=0 dx=0 dy=0 dh=0 dv=0
PairPos2: "'kern' Horizontal Kerning in Hebrew lookup 1 subtable" uniFB22 dx=15 dy=0 dh=15 dv=0 dx=0 dy=0 dh=0 dv=0
PairPos2: "'kern' Horizontal Kerning in Hebrew lookup 1 subtable" afii57667 dx=15 dy=0 dh=15 dv=0 dx=0 dy=0 dh=0 dv=0
PairPos2: "'kern' Horizontal Kerning in Hebrew lookup 1 subtable" uniFB32 dx=-10 dy=0 dh=-10 dv=0 dx=0 dy=0 dh=0 dv=0
PairPos2: "'kern' Horizontal Kerning in Hebrew lookup 1 subtable" afii57666 dx=-10 dy=0 dh=-10 dv=0 dx=0 dy=0 dh=0 dv=0
Comment: "%DiaToBase1+AD0A-160+AAoA%DiaToBase2+AD0A-160+AAoA%DiaToBase3+AD0A-160+AAoA%DiaToBaseU+AD0A-150+AAoA" 
EndChar

StartChar: afii57671
Encoding: 1495 1495 152
Width: 605
VWidth: 1000
Flags: HMW
HStem: 0 20 400 200<138 484>
AnchorPoint: "DiaToBaseD" 236 0 basechar 0
AnchorPoint: "DiaToBaseU" 223 0 basechar 0
AnchorPoint: "DiaToBase3" 228 0 basechar 0
AnchorPoint: "DiaToBase2" 218 0 basechar 0
AnchorPoint: "DiaToBase1" 218 0 basechar 0
LayerCount: 2
Back
SplineSet
449.699 400 m 22
 248.406 400 l 2
 248.406 400 206.406 398 188.406 369 c 0
 153.438 312.661 166.005 222.737 180.034 147 c 0
 185.406 118 184.534 74 159.034 36 c 0
 134.291 -0.874023 74 -11.5781 66.6982 4 c 0
 59.1982 20 74.6982 -5.5 75.6982 152.5 c 0
 75.8887 182.516 73.0596 255.799 87.9062 314 c 0
 100.406 363 137.406 381 139.406 393 c 0
 140.449 399.261 130.778 400.945 123.906 401.5 c 16
 109.457 402.667 93.168 407.372 75.9062 421 c 0
 66.4062 428.5 52.7412 445.783 48.7412 467.489 c 8
 45.5674 484.712 44.5219 494.704 44.7412 512.216 c 24
 45.084 539.584 47.125 554 52.7412 581.938 c 8
 57.9043 607.623 65.2412 631.817 80.7412 643 c 8
 87.0986 647.587 98.2412 646.5 100.741 641 c 0
 102.51 637.111 99.2412 628.5 100.741 619 c 8
 102.396 608.512 112.241 600.025 120.241 600 c 2
 494.741 600 l 5
 521.741 600 541.071 584.938 541.408 550 c 5
 540.741 453 l 6
 540.381 400.502 521.406 397 509.406 369 c 4
 466.404 268.662 511.477 223.043 523.741 147 c 4
 528.741 116 528.241 74 502.741 36 c 4
 477.997 -0.874023 417.707 -11.5781 410.405 4 c 4
 402.905 20 418.405 -5.5 419.405 152.5 c 4
 419.596 182.516 408.406 252.5 435.406 329.5 c 4
 452.278 377.617 471.406 383.014 471.406 392.5 c 4
 471.406 402.5 458.656 400 449.699 400 c 22
EndSplineSet
Fore
SplineSet
160.981 400 m 0
 110.745 408.333 85.0195 430 109.001 519.5 c 0
 127.49 588.5 170.58 645.92 199.58 645.92 c 0
 216.83 645.92 204.273 633.644 202.662 619 c 8
 201.51 608.513 209.071 600 217.069 600 c 2
 600.512 600 l 2
 627.512 600 642.974 584.938 633.372 550 c 2
 607.381 453 l 2
 592.954 400.502 570.924 397 552.398 369 c 0
 486.015 268.662 520.456 223.043 515.002 147 c 0
 512.777 116 502.49 74 468.135 36 c 0
 434.799 -0.874023 372.014 -11.5781 368.343 4 c 0
 364.571 20 388.699 25 411.947 152.5 c 0
 417.488 182.889 419.251 252.5 464.194 329.5 c 0
 492.279 377.617 513.901 382.514 516.443 392 c 0
 518.185 398.5 515.513 400 496.879 400 c 2
 280.586 400 l 2
 250.18 400 230.833 390 212.279 369 c 0
 162.389 312.533 150.688 222.737 144.423 147 c 0
 142.024 118 129.362 74 93.6797 36 c 0
 59.0566 -0.874023 -4.10254 -11.5781 -7.23047 4 c 0
 -10.4424 20 7.28711 16 41.5605 152.5 c 0
 49.0967 182.512 66.6006 255.799 97.042 314 c 0
 122.672 363 164.498 380.999 169.71 393 c 0
 171.509 397.143 168.857 398.694 160.981 400 c 0
EndSplineSet
PairPos2: "'kern' Horizontal Kerning in Hebrew lookup 1 subtable" uniE804 dx=-10 dy=0 dh=-10 dv=0 dx=0 dy=0 dh=0 dv=0
PairPos2: "'kern' Horizontal Kerning in Hebrew lookup 1 subtable" quotesingle dx=-10 dy=0 dh=-10 dv=0 dx=0 dy=0 dh=0 dv=0
PairPos2: "'kern' Horizontal Kerning in Hebrew lookup 1 subtable" quoteright dx=-10 dy=0 dh=-10 dv=0 dx=0 dy=0 dh=0 dv=0
PairPos2: "'kern' Horizontal Kerning in Hebrew lookup 1 subtable" quotedblright dx=-10 dy=0 dh=-10 dv=0 dx=0 dy=0 dh=0 dv=0
PairPos2: "'kern' Horizontal Kerning in Hebrew lookup 1 subtable" quotedbl dx=-10 dy=0 dh=-10 dv=0 dx=0 dy=0 dh=0 dv=0
PairPos2: "'kern' Horizontal Kerning in Hebrew lookup 1 subtable" question dx=-5 dy=0 dh=-5 dv=0 dx=0 dy=0 dh=0 dv=0
PairPos2: "'kern' Horizontal Kerning in Hebrew lookup 1 subtable" uniFB1D dx=-10 dy=0 dh=-10 dv=0 dx=0 dy=0 dh=0 dv=0
PairPos2: "'kern' Horizontal Kerning in Hebrew lookup 1 subtable" uniFB2D dx=-10 dy=0 dh=-10 dv=0 dx=0 dy=0 dh=0 dv=0
PairPos2: "'kern' Horizontal Kerning in Hebrew lookup 1 subtable" uniFB2C dx=-10 dy=0 dh=-10 dv=0 dx=0 dy=0 dh=0 dv=0
PairPos2: "'kern' Horizontal Kerning in Hebrew lookup 1 subtable" uniFB45 dx=-10 dy=0 dh=-10 dv=0 dx=0 dy=0 dh=0 dv=0
PairPos2: "'kern' Horizontal Kerning in Hebrew lookup 1 subtable" uniFB3F dx=5 dy=0 dh=5 dv=0 dx=0 dy=0 dh=0 dv=0
PairPos2: "'kern' Horizontal Kerning in Hebrew lookup 1 subtable" uni05F4 dx=-10 dy=0 dh=-10 dv=0 dx=0 dy=0 dh=0 dv=0
PairPos2: "'kern' Horizontal Kerning in Hebrew lookup 1 subtable" uni05F3 dx=-10 dy=0 dh=-10 dv=0 dx=0 dy=0 dh=0 dv=0
PairPos2: "'kern' Horizontal Kerning in Hebrew lookup 1 subtable" afii57718 dx=-10 dy=0 dh=-10 dv=0 dx=0 dy=0 dh=0 dv=0
PairPos2: "'kern' Horizontal Kerning in Hebrew lookup 1 subtable" afii57705 dx=-10 dy=0 dh=-10 dv=0 dx=0 dy=0 dh=0 dv=0
PairPos2: "'kern' Horizontal Kerning in Hebrew lookup 1 subtable" afii57717 dx=-10 dy=0 dh=-10 dv=0 dx=0 dy=0 dh=0 dv=0
PairPos2: "'kern' Horizontal Kerning in Hebrew lookup 1 subtable" uniFB4A dx=10 dy=0 dh=10 dv=0 dx=0 dy=0 dh=0 dv=0
PairPos2: "'kern' Horizontal Kerning in Hebrew lookup 1 subtable" uniFB28 dx=10 dy=0 dh=10 dv=0 dx=0 dy=0 dh=0 dv=0
PairPos2: "'kern' Horizontal Kerning in Hebrew lookup 1 subtable" afii57690 dx=10 dy=0 dh=10 dv=0 dx=0 dy=0 dh=0 dv=0
PairPos2: "'kern' Horizontal Kerning in Hebrew lookup 1 subtable" uniFB49 dx=-10 dy=0 dh=-10 dv=0 dx=0 dy=0 dh=0 dv=0
PairPos2: "'kern' Horizontal Kerning in Hebrew lookup 1 subtable" afii57695 dx=-10 dy=0 dh=-10 dv=0 dx=0 dy=0 dh=0 dv=0
PairPos2: "'kern' Horizontal Kerning in Hebrew lookup 1 subtable" afii57694 dx=-10 dy=0 dh=-10 dv=0 dx=0 dy=0 dh=0 dv=0
PairPos2: "'kern' Horizontal Kerning in Hebrew lookup 1 subtable" afii57689 dx=-10 dy=0 dh=-10 dv=0 dx=0 dy=0 dh=0 dv=0
PairPos2: "'kern' Horizontal Kerning in Hebrew lookup 1 subtable" uniFB48 dx=10 dy=0 dh=10 dv=0 dx=0 dy=0 dh=0 dv=0
PairPos2: "'kern' Horizontal Kerning in Hebrew lookup 1 subtable" afii57688 dx=10 dy=0 dh=10 dv=0 dx=0 dy=0 dh=0 dv=0
PairPos2: "'kern' Horizontal Kerning in Hebrew lookup 1 subtable" uniFB47 dx=10 dy=0 dh=10 dv=0 dx=0 dy=0 dh=0 dv=0
PairPos2: "'kern' Horizontal Kerning in Hebrew lookup 1 subtable" afii57687 dx=10 dy=0 dh=10 dv=0 dx=0 dy=0 dh=0 dv=0
PairPos2: "'kern' Horizontal Kerning in Hebrew lookup 1 subtable" uniFB46 dx=-10 dy=0 dh=-10 dv=0 dx=0 dy=0 dh=0 dv=0
PairPos2: "'kern' Horizontal Kerning in Hebrew lookup 1 subtable" afii57686 dx=-10 dy=0 dh=-10 dv=0 dx=0 dy=0 dh=0 dv=0
PairPos2: "'kern' Horizontal Kerning in Hebrew lookup 1 subtable" afii57685 dx=-10 dy=0 dh=-10 dv=0 dx=0 dy=0 dh=0 dv=0
PairPos2: "'kern' Horizontal Kerning in Hebrew lookup 1 subtable" uniFB4E dx=-10 dy=0 dh=-10 dv=0 dx=0 dy=0 dh=0 dv=0
PairPos2: "'kern' Horizontal Kerning in Hebrew lookup 1 subtable" uniFB44 dx=-10 dy=0 dh=-10 dv=0 dx=0 dy=0 dh=0 dv=0
PairPos2: "'kern' Horizontal Kerning in Hebrew lookup 1 subtable" afii57684 dx=-10 dy=0 dh=-10 dv=0 dx=0 dy=0 dh=0 dv=0
PairPos2: "'kern' Horizontal Kerning in Hebrew lookup 1 subtable" uniFB43 dx=-5 dy=0 dh=-5 dv=0 dx=0 dy=0 dh=0 dv=0
PairPos2: "'kern' Horizontal Kerning in Hebrew lookup 1 subtable" afii57683 dx=-5 dy=0 dh=-5 dv=0 dx=0 dy=0 dh=0 dv=0
PairPos2: "'kern' Horizontal Kerning in Hebrew lookup 1 subtable" uniFB41 dx=10 dy=0 dh=10 dv=0 dx=0 dy=0 dh=0 dv=0
PairPos2: "'kern' Horizontal Kerning in Hebrew lookup 1 subtable" afii57681 dx=10 dy=0 dh=10 dv=0 dx=0 dy=0 dh=0 dv=0
PairPos2: "'kern' Horizontal Kerning in Hebrew lookup 1 subtable" afii57679 dx=5 dy=0 dh=5 dv=0 dx=0 dy=0 dh=0 dv=0
PairPos2: "'kern' Horizontal Kerning in Hebrew lookup 1 subtable" uniFB3E dx=10 dy=0 dh=10 dv=0 dx=0 dy=0 dh=0 dv=0
PairPos2: "'kern' Horizontal Kerning in Hebrew lookup 1 subtable" afii57678 dx=10 dy=0 dh=10 dv=0 dx=0 dy=0 dh=0 dv=0
PairPos2: "'kern' Horizontal Kerning in Hebrew lookup 1 subtable" uniFB3C dx=10 dy=0 dh=10 dv=0 dx=0 dy=0 dh=0 dv=0
PairPos2: "'kern' Horizontal Kerning in Hebrew lookup 1 subtable" uniFB25 dx=10 dy=0 dh=10 dv=0 dx=0 dy=0 dh=0 dv=0
PairPos2: "'kern' Horizontal Kerning in Hebrew lookup 1 subtable" afii57676 dx=10 dy=0 dh=10 dv=0 dx=0 dy=0 dh=0 dv=0
PairPos2: "'kern' Horizontal Kerning in Hebrew lookup 1 subtable" uniFB39 dx=-10 dy=0 dh=-10 dv=0 dx=0 dy=0 dh=0 dv=0
PairPos2: "'kern' Horizontal Kerning in Hebrew lookup 1 subtable" afii57673 dx=-10 dy=0 dh=-10 dv=0 dx=0 dy=0 dh=0 dv=0
PairPos2: "'kern' Horizontal Kerning in Hebrew lookup 1 subtable" uniFB38 dx=-5 dy=0 dh=-5 dv=0 dx=0 dy=0 dh=0 dv=0
PairPos2: "'kern' Horizontal Kerning in Hebrew lookup 1 subtable" afii57672 dx=-5 dy=0 dh=-5 dv=0 dx=0 dy=0 dh=0 dv=0
PairPos2: "'kern' Horizontal Kerning in Hebrew lookup 1 subtable" uniFB34 dx=10 dy=0 dh=10 dv=0 dx=0 dy=0 dh=0 dv=0
PairPos2: "'kern' Horizontal Kerning in Hebrew lookup 1 subtable" uniFB23 dx=10 dy=0 dh=10 dv=0 dx=0 dy=0 dh=0 dv=0
PairPos2: "'kern' Horizontal Kerning in Hebrew lookup 1 subtable" afii57668 dx=10 dy=0 dh=10 dv=0 dx=0 dy=0 dh=0 dv=0
PairPos2: "'kern' Horizontal Kerning in Hebrew lookup 1 subtable" uniFB33 dx=10 dy=0 dh=10 dv=0 dx=0 dy=0 dh=0 dv=0
PairPos2: "'kern' Horizontal Kerning in Hebrew lookup 1 subtable" uniFB22 dx=10 dy=0 dh=10 dv=0 dx=0 dy=0 dh=0 dv=0
PairPos2: "'kern' Horizontal Kerning in Hebrew lookup 1 subtable" afii57667 dx=10 dy=0 dh=10 dv=0 dx=0 dy=0 dh=0 dv=0
PairPos2: "'kern' Horizontal Kerning in Hebrew lookup 1 subtable" uniFB30 dx=-10 dy=0 dh=-10 dv=0 dx=0 dy=0 dh=0 dv=0
PairPos2: "'kern' Horizontal Kerning in Hebrew lookup 1 subtable" uniFB2F dx=-10 dy=0 dh=-10 dv=0 dx=0 dy=0 dh=0 dv=0
PairPos2: "'kern' Horizontal Kerning in Hebrew lookup 1 subtable" uniFB2E dx=-10 dy=0 dh=-10 dv=0 dx=0 dy=0 dh=0 dv=0
PairPos2: "'kern' Horizontal Kerning in Hebrew lookup 1 subtable" uniFB21 dx=-10 dy=0 dh=-10 dv=0 dx=0 dy=0 dh=0 dv=0
PairPos2: "'kern' Horizontal Kerning in Hebrew lookup 1 subtable" afii57664 dx=-10 dy=0 dh=-10 dv=0 dx=0 dy=0 dh=0 dv=0
PairPos2: "'kern' Horizontal Kerning in Hebrew lookup 1 subtable" afii57645 dx=-10 dy=0 dh=-10 dv=0 dx=0 dy=0 dh=0 dv=0
Comment: "%DiaToBase1+AD0A-295+AAoA%DiaToBase2+AD0A-295+AAoA%DiaToBase3+AD0A-305+AAoA%DiaToBaseU+AD0A-300+AAoA" 
EndChar

